<?xml version="1.0" encoding="UTF-8" standalone="no"?>
<!DOCTYPE svg PUBLIC "-//W3C//DTD SVG 1.1//EN" "http://www.w3.org/Graphics/SVG/1.1/DTD/svg11.dtd">
<svg class="logo-stamp" width="100%" height="100%" viewBox="0 0 148 148" version="1.1"
	xmlns="http://www.w3.org/2000/svg" xmlns:xlink="http://www.w3.org/1999/xlink" xml:space="preserve"
	xmlns:serif="http://www.serif.com/">
	<style>
		.logo-stamp-bg {
			fill: #292928
		}

		.logo-stamp-text {
			fill: #e0e0e0
		}
	</style>
	<g>
		<circle cx="73.701" cy="73.701" r="72.149" class="logo-stamp-bg" />
		<path class="logo-stamp-text"
			d="M103.32,101.511c-0.968,0.438 -1.548,0.848 -1.741,1.232l-0,0.753l0.991,31.27l-0.628,0.241c-1.646,-0 -4.548,-2.83 -8.709,-8.44c-2.657,-4.063 -4.181,-6.316 -4.618,-6.7l-6.479,9.187c-3.34,4.042 -5.661,6.072 -6.964,6.072l-0.631,-0.241l-0,-0.506l0.991,-31.246l-0.119,-0.628c-1.066,-1.096 -2.382,-1.096 -3.35,0l-0.122,0.628l0.995,31.246l-0,0.506l-0.632,0.241c-1.303,-0 -3.628,-2.03 -6.964,-6.072l-6.482,-9.187c-0.434,0.384 -1.958,2.637 -4.615,6.7c-4.164,5.61 -7.063,8.44 -8.708,8.44l-0.628,-0.241l0.991,-31.27l-0,-0.753c-0.194,-0.384 -0.774,-0.794 -1.741,-1.232l-0,-0.604l6.987,-0.506c0.486,0.143 0.727,0.316 0.727,0.506c-1.307,0.821 -1.982,1.937 -1.982,3.339c-0.411,8.294 -0.632,14.824 -0.632,19.585l0,3.241l0.269,0.245c2.273,-1.982 4.184,-4.256 5.732,-6.822c1.741,-2.369 2.609,-3.821 2.609,-4.35l0,-0.126c-0.241,-1.785 -1.449,-4.785 -3.624,-9.044l-0,-0.384c0.19,-0.485 0.774,-0.726 1.737,-0.726l0.146,-0l0.727,0.241l-0.123,1.863l0,0.363c0.873,3 1.623,4.812 2.25,5.464c1.161,-2.152 1.864,-3.94 2.128,-5.342l0,-0.366l-0.122,-1.86l0.726,-0.244l0.146,-0c0.968,-0 1.548,0.244 1.741,0.75l0,0.363c-2.202,4.211 -3.407,7.33 -3.628,9.312c0,0.411 1.09,2.104 3.241,5.081c0.991,1.836 2.685,3.818 5.105,5.949l0.146,-0l0.118,-0.122l0,-3.364c-0.241,-14.46 -0.604,-21.689 -1.137,-21.689l-1.472,-1.239c-0,-0.166 0.241,-0.336 0.722,-0.505c4.728,0.648 9.421,0.645 14.088,-0c0.482,0.169 0.723,0.339 0.723,0.505l-1.473,1.239c-0.533,0 -0.896,7.229 -1.137,21.689l-0,3.364l0.119,0.122l0.146,-0c2.419,-2.131 4.113,-4.113 5.104,-5.949c2.151,-2.977 3.241,-4.67 3.241,-5.081c-0.221,-1.982 -1.429,-5.101 -3.628,-9.312l-0,-0.363c0.193,-0.506 0.774,-0.75 1.741,-0.75l0.146,-0l0.726,0.244l-0.122,1.86l-0,0.366c0.265,1.402 0.967,3.19 2.128,5.342c0.628,-0.652 1.378,-2.464 2.246,-5.464l0,-0.363l-0.118,-1.863l0.726,-0.241l0.146,-0c0.964,-0 1.547,0.241 1.737,0.726l0,0.384c-2.175,4.259 -3.383,7.259 -3.627,9.044l-0,0.126c-0,0.529 0.872,1.981 2.613,4.35c1.547,2.566 3.458,4.84 5.732,6.822l0.268,-0.245l-0,-3.241c-0,-4.761 -0.221,-11.291 -0.631,-19.585c-0,-1.402 -0.676,-2.518 -1.982,-3.339c-0,-0.19 0.241,-0.363 0.723,-0.506l6.991,0.506l-0,0.604Zm-68.544,-57.103c0,-0.486 0.082,-1.029 0.245,-1.633c0.471,-1.642 1.496,-2.463 3.078,-2.463c-0.743,-1.409 -1.113,-2.335 -1.113,-2.777l-0,-0.098c0.227,-1.676 0.651,-2.515 1.276,-2.515l0.112,0l0.146,0.129l-0,0.061l-0.309,1.439l-0,0.228c0.312,1.086 0.814,1.625 1.5,1.625l0.872,-0.159c0.346,-0 0.516,-0.394 0.516,-1.178c-0.01,-0.495 -0.105,-1.103 -0.289,-1.822c-0.797,-2.128 -1.194,-3.642 -1.194,-4.531c-0,-1.269 0.478,-2.929 1.435,-4.968c1.548,-2.386 2.322,-4.69 2.322,-6.903l-0,-1.504l-0.048,-1.9l0.048,-0c0.292,0.258 0.706,0.719 1.242,1.388c2.141,1.816 4.028,2.725 5.664,2.725l0.078,0c0.872,0 1.69,-0.38 2.454,-1.13c1.075,-1.517 1.612,-2.437 1.612,-2.759l0.146,-0l0.081,0.292l0,0.387l1.901,2.803c1.819,1.68 2.871,2.83 3.163,3.455c0.417,-0.442 0.627,-0.9 0.627,-1.371c0,-0.496 -0.349,-1.256 -1.048,-2.291c-1.117,-0.859 -1.677,-1.643 -1.677,-2.352l0,-0.472l0.065,-0.064l4.741,-0.984c0.991,-0.15 1.839,-0.632 2.548,-1.45c0.194,-0.892 0.357,-1.34 0.486,-1.34l0.112,-0c0.689,0.536 1.031,1.011 1.031,1.418l0,0.163c0,0.492 -0.397,1.097 -1.191,1.806c0.055,0.197 0.38,0.309 0.984,0.339l0.207,-0.047l0.129,0.224c0,0.519 -0.224,0.872 -0.675,1.065l0.16,0.207c1.418,0.262 2.216,0.469 2.389,0.632c1.031,0.977 1.747,1.469 2.145,1.469c0.352,0 0.899,-0.254 1.629,-0.76l0.064,-0l-0.064,0.292c-1.141,2.267 -2.172,3.404 -3.099,3.404l-0.886,-0.163c-1.591,-0.967 -2.501,-1.453 -2.725,-1.453c-0.903,0.72 -1.357,2.047 -1.357,3.968l-0,0.502c-0,0.719 0.091,1.418 0.275,2.097c0.088,0.591 0.322,0.886 0.709,0.886l0.115,-0c0.536,-0 0.805,-0.411 0.805,-1.225c0.237,-0 0.624,0.217 1.16,0.645c0.455,0.688 1.504,1.031 3.146,1.031l0.034,0l0.194,0.177c-0,0.057 -0.163,0.152 -0.486,0.292c-1.527,0.733 -2.688,2.358 -3.485,4.887c-0.19,-0 -0.536,-0.73 -1.032,-2.193l-0.336,0c-0.645,0 -1.011,1.955 -1.099,5.868l0.129,2.247c-0,0.329 0.118,0.553 0.356,0.658l0.305,0c0.862,0 1.449,-0.798 1.758,-2.403l0.065,0c0.977,0.934 1.469,1.928 1.469,2.983l0,0.499l-0.098,0.71c-0.428,1.164 -1.375,1.744 -2.837,1.744l-0.163,-0c0.614,1.174 0.92,2.152 0.92,2.935l-0,0.065l-0.224,1.307c-0.689,2.429 -1.989,3.644 -3.903,3.644l-1.049,-0.258c-1.626,-0.6 -2.437,-1.55 -2.437,-2.837c0,-0.777 0.326,-1.432 0.985,-1.968l0.129,-0l0.095,0.112l-0,0.129l-0.224,1.001c-0,0.431 0.288,0.94 0.872,1.531c1.418,-0 2.236,-0.828 2.45,-2.485l-0.129,-0.627c-0.465,-1.375 -1.29,-2.067 -2.484,-2.067c-0.74,-0 -1.829,0.278 -3.258,0.824l-0,0.452l-0.177,0.142l-0.051,0l-0.064,-0.271l0,-0.082c0,-0.407 0.136,-0.848 0.404,-1.323c0.852,-1.157 1.276,-2.03 1.276,-2.61l-0,-0.21c-0.024,-0.109 -0.272,-0.326 -0.743,-0.662l-0,-0.129l0.047,-0.065c0.709,-0.152 1.314,-0.397 1.809,-0.739c0.462,-0.455 0.692,-1.67 0.692,-3.649l0,-0.611c0,-1.238 -0.081,-2.877 -0.244,-4.92l0.064,-2.872c-0.03,-0.546 -0.223,-1.123 -0.576,-1.727c-0.937,-1.49 -2.006,-2.474 -3.211,-2.932l-0.21,-0c-0.669,1.398 -1.001,2.861 -1.001,4.402c-0,0.851 0.21,1.5 0.631,1.951c0.858,0.163 1.289,0.285 1.289,0.37l0,0.068c-1.547,1.082 -2.321,2.681 -2.321,4.788l0.19,1.629c0,0.591 0.326,0.886 0.967,0.886l0.52,-0.112c0.902,0 1.354,-0.526 1.354,-1.581l0.129,-0c0.451,0.644 0.678,1.265 0.678,1.856c0,0.58 -0.156,1.252 -0.468,2.016c-0.322,0.937 -1.184,1.405 -2.579,1.405c-0.217,-0 -0.53,0.767 -0.937,2.304c-0.088,0.689 -0.651,1.599 -1.693,2.725l-0.696,1.504l-0.207,-0c0.139,-0.564 0.207,-1.147 0.207,-1.762l-0,-0.339l-0.061,-0.821c-0.401,-1.891 -1.056,-2.841 -1.972,-2.841l-1.062,0c-1.29,0 -2.023,-0.96 -2.192,-2.884l-0,-0.099c-0,-0.869 0.285,-1.571 0.851,-2.097l0.068,-0c0.17,1.069 0.53,1.598 1.079,1.598l0.306,0c0.495,-0.183 0.811,-1.805 0.95,-4.873c0,-1.459 -0.332,-2.562 -0.998,-3.302l0.095,-0.197c0.896,-0.513 1.341,-1.425 1.341,-2.725l-0.112,-1.694c-0.421,-2.426 -1.083,-3.645 -1.985,-3.645c-0.085,0.289 -0.537,0.805 -1.355,1.548c-0.872,1.442 -1.306,2.885 -1.306,4.324l0.047,0.58c0,0.4 0.296,0.882 0.886,1.452c0,0.065 -0.197,0.14 -0.594,0.228c-0.465,0.268 -0.695,0.828 -0.695,1.676l-0,0.224l0.176,1.921l-0.112,2.515l0.292,3.003l-0,0.272c-0,0.679 -0.248,1.371 -0.743,2.08c-1.13,0.679 -1.891,1.252 -2.291,1.728l-0,0.386c-0,0.387 0.163,0.747 0.485,1.08l0,0.034c0,0.095 -0.163,0.159 -0.485,0.193c-0.289,0 -0.618,-0.237 -0.984,-0.709l-0.065,-0c-1.31,1.116 -1.968,2.365 -1.968,3.74l-0,0.275c-0,1.181 0.366,2.053 1.099,2.613c0,0.095 -0.132,0.163 -0.386,0.193l-0.116,0c-1.096,0 -1.741,-1.042 -1.934,-3.129l-0,-0.193l-0.048,-0.241l0.048,-0.245l-0,-0.288c-0,-0.743 0.193,-1.731 0.58,-2.97c-1.161,0.133 -1.982,0.248 -2.467,0.357c-0.743,0.258 -1.113,0.753 -1.113,1.483l-0,0.193l0.064,0.404l-0.064,0c-0.397,-0.237 -0.598,-0.808 -0.598,-1.71l0,-0.482Zm38.709,14.566l0.068,-0l-0.068,0.482l0,0.614c0,1.323 1.046,2.172 3.133,2.549l2.484,-0.421l0.159,0.034l0,0.047l-0.207,1.229c0,1.038 0.455,1.893 1.368,2.562l0.791,0.193c0.797,0 1.194,-0.465 1.194,-1.405l0,-0.305c0,-0.709 -0.356,-1.344 -1.065,-1.901l-0.757,0.096l-0.065,-0.065l0,-0.064l0.693,-0.693l1.13,0.353c-0,-0.645 0.329,-1.344 0.984,-2.097c0.238,-0.19 0.435,-0.292 0.597,-0.292l0,0.034c-0.4,0.56 -0.597,1.195 -0.597,1.904c0.085,1.591 0.445,2.389 1.079,2.389l0.421,0.044l1.371,0l0,0.085c0,0.051 -0.271,0.2 -0.807,0.451c-0.795,0.547 -1.192,1.426 -1.192,2.627c0,1.293 -0.953,2.199 -2.857,2.729c-0,0.234 0.231,0.4 0.695,0.499c0.829,0.546 1.243,1.17 1.243,1.869l-0,0.163c-0,0.581 -0.252,1.13 -0.744,1.643l-0.064,-0c-0.075,-0.02 -0.282,-0.526 -0.614,-1.514c-0.537,-0.967 -1.31,-1.452 -2.322,-1.452l-0.807,0.064c-0.462,0 -1.107,-0.573 -1.935,-1.727c-0.397,-0.72 -0.702,-1.66 -0.92,-2.82c0.14,-0.044 0.211,-0.146 0.211,-0.309l-0,-0.306c-0.367,-1.313 -1.011,-1.968 -1.935,-1.968l-0.373,0c-1.042,0 -2.006,0.641 -2.888,1.921c-0.319,0.709 -0.482,1.632 -0.482,2.773l0,0.258c0,1.734 0.448,2.799 1.337,3.21l0.533,0.115c0.764,0 1.68,-0.539 2.742,-1.615l0.146,0.163c-0.183,0.502 -0.275,0.916 -0.275,1.239l0,0.257c0,1.12 1.066,1.918 3.194,2.39c0.655,0.183 1.591,0.597 2.806,1.242c1.012,0.699 1.517,1.429 1.517,2.192l0,0.18c0,0.322 -0.166,0.574 -0.502,0.757l-0.095,-0c-0.214,-0.879 -0.533,-1.324 -0.95,-1.324c-0.217,0 -0.377,0.119 -0.485,0.357l-0,0.098c-0,0.2 0.393,1.072 1.177,2.61c0.173,0.624 0.258,1.232 0.258,1.822l0,0.099l-0.112,1.805c0,0.903 0.811,1.68 2.437,2.321l-0,0.163l-0.584,0c-1.279,0 -2.25,0.686 -2.919,2.067c-0.139,0.309 -0.21,0.638 -0.21,0.984l0,0.173l-0.047,0.068l0.047,0.048l0,0.224c0,0.516 0.173,0.841 0.516,0.967l0.129,-0c0.872,-0 1.466,-0.38 1.775,-1.144l0.115,0l0.177,0.116l-0,0.112c-0,1.16 -0.642,2.019 -1.921,2.579l-0.353,0.047c-0.883,-0.061 -1.863,-0.543 -2.936,-1.435c-0.421,-0.601 -0.628,-1.151 -0.628,-1.643c0,-0.258 0.177,-0.661 0.53,-1.211l-0.726,-0l-0.856,-0.082l-0.112,0c-0.858,0 -1.676,0.645 -2.45,1.935l-0.322,0.146l-0.486,-0.998c-0.913,-1.161 -1.934,-1.741 -3.064,-1.741l-0.211,-0c-1.73,0.302 -2.742,0.451 -3.03,0.451l-0.387,0c-0.709,-0.088 -1.066,-0.21 -1.066,-0.373c0.903,-0.472 1.354,-0.957 1.354,-1.453c-0.441,-0.848 -0.661,-1.937 -0.661,-3.271c-0.15,-0.703 -0.37,-1.185 -0.662,-1.453c-0.448,-0.302 -0.821,-0.451 -1.11,-0.451l-0.064,-0c-0.387,-0 -0.696,0.183 -0.92,0.546c-0,0.336 0.288,0.723 0.869,1.164l-0,0.194l-0.611,0.112l-0.468,-0c-0.537,-0.462 -0.808,-0.954 -0.808,-1.47l-0,-0.207c-0,-0.773 0.645,-1.442 1.938,-1.999c0.363,-0.108 0.665,-0.162 0.902,-0.162c0.72,-0 1.324,0.369 1.806,1.113l0.159,-0l0,-0.095c-0.482,-1.12 -1.072,-1.68 -1.771,-1.68l-0.709,0.064l-0.163,-0.064l-0,-0.099c0.376,-0.641 1.001,-0.967 1.87,-0.967l0.274,0c1.185,0 2.2,0.394 3.048,1.181c0.336,0.441 0.675,1.191 1.018,2.257l1.001,-0c0.859,-0 1.477,0.166 1.853,0.499l0,0.064c0,0.055 -0.468,0.292 -1.405,0.71c-0.461,0.332 -0.692,0.716 -0.692,1.147c-0,0.913 0.594,1.53 1.775,1.856l0.193,0c0.764,0 1.602,-0.472 2.518,-1.408c0.506,-0.632 0.757,-1.354 0.757,-2.159l0,-0.098c0,-1.076 -0.393,-1.999 -1.177,-2.773c-0.343,-0.302 -1.042,-0.567 -2.098,-0.791c-0.689,0 -1.849,-0.288 -3.482,-0.872c-0.624,-0.288 -1.255,-0.784 -1.89,-1.483c-0.428,-0.763 -0.641,-1.269 -0.641,-1.517l-0.279,0c-1.225,0 -1.836,0.458 -1.836,1.371l-0.485,0.099l-0.064,-0.034l0.064,-0.486c0,-0.814 -0.991,-1.944 -2.966,-3.387l-0.275,-0.044l-1.469,-0.051l-0,-0.095c1.764,-0.227 2.647,-0.451 2.647,-0.678c0.57,-0.421 1.167,-1.103 1.788,-2.05l0.275,-0.255l0.098,0.112l0,1.144c0.18,0.238 0.506,0.353 0.968,0.353c0.288,-0 0.434,-0.251 0.434,-0.753l-0.434,-1.633l0.271,-1.452c-0.879,0.38 -1.486,0.563 -1.819,0.563c-1.13,0 -2.141,-0.655 -3.034,-1.965l-0.227,-0.696l0.051,-0.044l0.064,0c0.289,0.363 0.597,0.547 0.92,0.547l0.159,-0c0.591,-0 1.259,-0.302 2.003,-0.903l-0,-0.163c-0.828,-0.56 -1.242,-1.201 -1.242,-1.934c-0,-1.29 0.848,-2.342 2.548,-3.163c0.462,-0.129 0.815,-0.19 1.062,-0.19l0.065,0.061l-0,0.068c-0.709,0.665 -1.062,1.245 -1.062,1.737c-0,0.682 0.645,1.235 1.934,1.663l0.258,0.034c1.419,-0 3.38,-1.3 5.888,-3.906l0.061,0.051Zm1.721,-40.179c0.733,0.506 1.276,0.76 1.629,0.76c0.397,0 1.113,-0.492 2.148,-1.469c0.17,-0.163 0.967,-0.37 2.386,-0.631l0.163,-0.207c-0.455,-0.194 -0.679,-0.547 -0.679,-1.066l0.129,-0.224l0.207,0.048c0.604,-0.031 0.93,-0.143 0.988,-0.34c-0.798,-0.709 -1.195,-1.313 -1.195,-1.805l0,-0.163c0,-0.407 0.343,-0.882 1.032,-1.419l0.112,0c0.129,0 0.292,0.448 0.485,1.341c0.709,0.818 1.558,1.3 2.549,1.449l4.741,0.984l0.064,0.065l0,0.471c0,0.706 -0.56,1.494 -1.676,2.352c-0.699,1.035 -1.049,1.795 -1.049,2.291c0,0.472 0.21,0.93 0.628,1.371c0.292,-0.624 1.344,-1.775 3.163,-3.455l1.9,-2.803l0,-0.387l0.082,-0.292l0.146,0c-0,0.323 0.539,1.242 1.612,2.759c0.767,0.75 1.581,1.13 2.453,1.13l0.082,0c1.632,0 3.519,-0.909 5.661,-2.725c0.536,-0.668 0.95,-1.13 1.242,-1.388l0.047,0l-0.047,1.901l-0,1.503c-0,2.213 0.774,4.517 2.321,6.903c0.957,2.04 1.436,3.699 1.436,4.968c-0,0.89 -0.397,2.403 -1.192,4.531c-0.186,0.72 -0.281,1.327 -0.291,1.823c-0,0.783 0.169,1.177 0.515,1.177l0.873,0.16c0.685,-0 1.187,-0.54 1.5,-1.626l-0,-0.227l-0.309,-1.439l-0,-0.061l0.146,-0.129l0.115,-0c0.621,-0 1.045,0.838 1.273,2.514l-0,0.099c-0,0.441 -0.37,1.368 -1.113,2.776c1.581,-0 2.606,0.821 3.081,2.464c0.16,0.604 0.241,1.147 0.241,1.632l0,0.482c0,0.903 -0.2,1.473 -0.597,1.711l-0.065,-0l0.065,-0.404l-0,-0.194c-0,-0.729 -0.37,-1.225 -1.113,-1.483c-0.486,-0.108 -1.307,-0.224 -2.468,-0.356c0.387,1.239 0.581,2.226 0.581,2.966l-0,0.292l0.051,0.244l-0.051,0.241l-0,0.194c-0.194,2.087 -0.839,3.129 -1.935,3.129l-0.115,-0c-0.255,-0.031 -0.384,-0.099 -0.384,-0.194c0.73,-0.56 1.097,-1.432 1.097,-2.613l-0,-0.275c-0,-1.374 -0.659,-2.623 -1.969,-3.74l-0.064,0c-0.367,0.472 -0.693,0.709 -0.984,0.709c-0.323,-0.033 -0.482,-0.098 -0.482,-0.193l-0,-0.034c0.319,-0.333 0.482,-0.692 0.482,-1.079l-0,-0.387c-0.401,-0.475 -1.161,-1.049 -2.291,-1.727c-0.496,-0.71 -0.74,-1.402 -0.74,-2.081l-0,-0.271l0.288,-3.004l-0.112,-2.514l0.177,-1.921l-0,-0.224c-0,-0.849 -0.231,-1.409 -0.696,-1.677c-0.397,-0.088 -0.594,-0.163 -0.594,-0.227c0.591,-0.57 0.886,-1.052 0.886,-1.453l0.051,-0.58c-0,-1.439 -0.438,-2.881 -1.31,-4.324c-0.815,-0.743 -1.269,-1.259 -1.354,-1.547c-0.903,-0 -1.565,1.215 -1.985,3.645l-0.112,1.693c-0,1.3 0.448,2.213 1.34,2.725l0.095,0.197c-0.665,0.74 -0.998,1.843 -0.998,3.302c0.139,3.068 0.455,4.69 0.951,4.874l0.305,-0c0.55,-0 0.91,-0.53 1.083,-1.599l0.064,0c0.57,0.526 0.855,1.225 0.855,2.098l0,0.098c-0.173,1.924 -0.902,2.885 -2.195,2.885l-1.063,-0c-0.916,-0 -1.571,0.95 -1.968,2.84l-0.065,0.821l0,0.34c0,0.614 0.072,1.198 0.211,1.761l-0.211,0l-0.695,-1.503c-1.042,-1.127 -1.605,-2.036 -1.694,-2.725c-0.407,-1.538 -0.719,-2.305 -0.933,-2.305c-1.398,0 -2.257,-0.468 -2.583,-1.405c-0.312,-0.763 -0.465,-1.435 -0.465,-2.016c0,-0.59 0.224,-1.211 0.676,-1.856l0.129,-0c-0,1.055 0.451,1.581 1.354,1.581l0.519,0.112c0.645,0 0.967,-0.295 0.967,-0.885l0.19,-1.629c0,-2.108 -0.773,-3.706 -2.321,-4.789l0,-0.068c0,-0.085 0.431,-0.207 1.29,-0.37c0.421,-0.451 0.631,-1.099 0.631,-1.951c-0,-1.541 -0.333,-3.004 -1.001,-4.402l-0.211,0c-1.204,0.458 -2.273,1.443 -3.207,2.932c-0.356,0.605 -0.55,1.181 -0.58,1.728l0.064,2.871c-0.162,2.043 -0.244,3.682 -0.244,4.921l0,0.611c0,1.978 0.231,3.193 0.696,3.648c0.492,0.343 1.096,0.587 1.805,0.74l0.048,0.064l-0,0.129c-0.472,0.336 -0.72,0.553 -0.74,0.662l-0,0.21c-0,0.581 0.424,1.453 1.273,2.61c0.268,0.475 0.403,0.917 0.403,1.324l0,0.081l-0.064,0.272l-0.048,-0l-0.179,-0.143l-0,-0.451c-1.429,-0.547 -2.515,-0.825 -3.258,-0.825c-1.195,0 -2.02,0.693 -2.485,2.067l-0.129,0.628c0.214,1.656 1.036,2.484 2.454,2.484c0.58,-0.59 0.869,-1.1 0.869,-1.531l-0.224,-1.001l-0,-0.129l0.095,-0.115l0.129,-0c0.658,0.54 0.984,1.195 0.984,1.972c0,1.286 -0.811,2.236 -2.433,2.837l-1.049,0.258c-1.914,-0 -3.217,-1.215 -3.903,-3.645l-0.227,-1.307l-0,-0.064c-0,-0.784 0.305,-1.761 0.92,-2.936l-0.163,0c-1.463,0 -2.41,-0.58 -2.837,-1.744l-0.099,-0.709l0,-0.499c0,-1.056 0.492,-2.05 1.47,-2.983l0.064,-0c0.312,1.605 0.896,2.402 1.758,2.402l0.306,0c0.237,-0.105 0.356,-0.329 0.356,-0.658l0.129,-2.247c-0.088,-3.913 -0.455,-5.867 -1.096,-5.867l-0.34,-0c-0.495,1.462 -0.841,2.192 -1.031,2.192c-0.798,-2.528 -1.959,-4.154 -3.486,-4.887c-0.322,-0.139 -0.485,-0.234 -0.485,-0.292l0.193,-0.176l0.034,-0c1.646,-0 2.695,-0.343 3.146,-1.032c0.536,-0.428 0.923,-0.645 1.161,-0.645c-0,0.815 0.268,1.225 0.808,1.225l0.112,0c0.387,0 0.621,-0.295 0.709,-0.885c0.183,-0.679 0.275,-1.378 0.275,-2.098l-0,-0.502c-0,-1.921 -0.455,-3.248 -1.358,-3.967c-0.224,-0 -1.133,0.485 -2.725,1.452l-0.886,0.163c-0.926,0 -1.958,-1.137 -3.098,-3.404l-0.065,-0.292l0.065,0Zm-52.07,54.989l-18.191,0.852l28.399,-7.626l-3.984,5.881l21.204,-2.314l-3.166,4.653l15.268,-0.754l-24.506,6.964l3.577,-5.498l-21.683,2.532l3.082,-4.69Zm104.215,4.69l-21.683,-2.532l3.577,5.498l-24.506,-6.964l15.268,0.754l-3.169,-4.653l21.207,2.314l-3.988,-5.881l28.403,7.626l-18.191,-0.852l3.082,4.69Z" />
	</g>
</svg>