<?xml version="1.0" encoding="UTF-8" standalone="no"?>
<!DOCTYPE svg PUBLIC "-//W3C//DTD SVG 1.1//EN" "http://www.w3.org/Graphics/SVG/1.1/DTD/svg11.dtd">
<svg width="100%" height="100%" viewBox="0 0 703 69" version="1.1" xmlns="http://www.w3.org/2000/svg"
	xmlns:xlink="http://www.w3.org/1999/xlink" xml:space="preserve" xmlns:serif="http://www.serif.com/">
	<style>
		.logo-text {
			fill: #292928
		}
	</style>
	<path class="logo-text"
		d="M403.777,30.407l12.288,-26.468l-5.501,17.617l3.611,-2.237l-7.992,24.581l4.211,-2.579l-10.829,22.772l4.643,-14.783l-3.611,2.321l7.734,-24.143l-4.554,2.919Zm42.506,-11.877c-0,-0.163 0.234,-0.329 0.699,-0.492l6.733,0.492l-0,0.468c-0.068,0.184 -0.58,0.486 -1.561,0.954l-0.116,0.608l0.957,30.105l0,0.489l-0.607,0.234c-1.259,0 -3.496,-1.961 -6.709,-5.851l-6.248,-8.854c-0.418,0.374 -1.887,2.542 -4.449,6.455c-4.008,5.406 -6.805,8.131 -8.39,8.131l-0.604,-0.23l0.954,-30.133l-0,-0.723c-0.187,-0.37 -0.743,-0.767 -1.677,-1.185l0,-0.583l6.733,-0.492c0.465,0.139 0.7,0.305 0.7,0.492c-1.26,0.79 -1.911,1.863 -1.911,3.214c-0.397,7.995 -0.608,14.284 -0.608,18.876l0,3.125l0.258,0.231c2.193,-1.914 4.032,-4.103 5.522,-6.574c1.68,-2.284 2.518,-3.682 2.518,-4.194l0,-0.116c-0.234,-1.724 -1.398,-4.615 -3.495,-8.715l-0,-0.373c0.186,-0.465 0.746,-0.699 1.679,-0.699l0.14,-0l0.699,0.234l-0.119,1.795l-0,0.346c0.842,2.892 1.561,4.64 2.169,5.267c1.116,-2.07 1.791,-3.797 2.049,-5.148l0,-0.349l-0.118,-1.792l0.702,-0.238l0.139,0c0.93,0 1.49,0.238 1.677,0.723l-0,0.353c-2.118,4.052 -3.285,7.059 -3.496,8.97c0,0.393 1.049,2.029 3.122,4.893c0.957,1.772 2.586,3.683 4.918,5.732l0.142,0l0.116,-0.115l-0,-3.238c-0.234,-13.938 -0.584,-20.902 -1.096,-20.902l-1.422,-1.191Zm21.191,15.822c1.653,-0.092 2.725,-0.21 3.237,-0.37l0.513,0.116l-0,0.393c-0,0.306 -1.235,1.236 -3.75,2.797c-1.331,-1.351 -2.518,-2.026 -3.591,-2.026l-0.675,-0c-1.816,-0 -3.122,1.632 -3.937,4.941l0,0.882l0.699,0.516l0.513,0c0.556,0 1.585,-0.305 3.051,-0.886c0.349,0.557 0.512,1.141 0.512,1.768l0,0.886l-0.322,0.397c-0.934,-0.281 -1.772,-0.397 -2.566,-0.397l-0.675,0c-0.676,0.048 -1.025,0.187 -1.025,0.397l-0,1.259c-0,2.166 0.394,3.52 1.188,4.08c1.116,0.583 1.839,0.882 2.212,0.882l0.866,-0c1.327,-0 3.19,-0.815 5.613,-2.42l0.862,0.513c-1.585,2.189 -4.032,3.309 -7.341,3.309c-4.055,-0 -6.689,-1.12 -7.853,-3.309c-0.79,-2.006 -1.188,-3.357 -1.188,-4.056l0,-0.655c0,-4.381 1.724,-7.269 5.128,-8.62c0.374,-0.21 1.164,-0.373 2.376,-0.512l6.153,0.115Zm9.44,-2.89c-0.746,-0 -1.374,-0.533 -1.887,-1.609c0.489,-1.16 1.117,-1.744 1.887,-1.744c0.56,-0 1.096,0.441 1.609,1.374c-0.35,1.304 -0.886,1.979 -1.609,1.979Zm2.33,4.126c-0.58,0 -0.886,1.816 -0.886,5.474l0,4.966c0,2.983 0.258,4.496 0.723,4.496l0.747,0.608l-0.302,0.254l-1.307,0c-2.026,0 -3.611,-0.091 -4.775,-0.254l0,-0.234c0.489,-0.442 0.72,-0.815 0.72,-1.117l-0,-9.978l0.139,-3.607l-0.859,-0.981c0,-0.278 0.533,-0.397 1.582,-0.397l3.054,0c1.351,0.095 2.026,0.258 2.026,0.512c-0,0.167 -0.278,0.258 -0.862,0.258Zm11.119,-1.584c0.234,0.418 1.073,1.069 2.518,1.907l0.116,0.143l-0,0.258l-0.35,0.115l-0.115,-0.115l-1.236,-0c-1.306,-0 -2.959,1.374 -4.917,4.167l-0.675,3.825l0.115,3.055l-0,0.882c-0,0.957 0.282,1.887 0.794,2.8l0,0.115c0,0.255 -0.862,0.394 -2.633,0.394l-1.47,-0l-1.374,0.373l-0.116,-0.115l0,-0.143c0.699,-1.49 1.025,-3.122 1.025,-4.938l0,-10.816l-0.675,-1.907l0.115,-0.115l1.466,-0l3.662,0.115l0.231,0.255c-0.604,1.072 -0.933,1.839 -0.933,2.284l-0,0.651l0.234,0.258l0.468,0l3.659,-3.448l0.091,0Zm21.326,-15.241c-0.889,1.167 -1.33,3.472 -1.33,6.923l-0.536,5.383l0.139,3.213l-0.139,11.115l-0,1.795c-0,1.867 0.373,2.983 1.072,3.357c0.326,0.139 0.536,0.37 0.652,0.723l-0.116,0.115l-0.139,-0.115l-0.675,-0c-0.166,-0 -0.258,0.115 -0.258,0.346l-2.26,-0.116l-3.472,0c-0.652,0 -1.001,-0.139 -1.072,-0.37c-0,-0.142 0.444,-0.397 1.327,-0.814l0.142,-0.608l0,-0.115l-0.142,0c-2.118,0.862 -3.588,1.303 -4.402,1.303l-0.397,0c-3.078,0 -5.22,-1.608 -6.387,-4.778l-0.139,-1.792c0.349,-5.22 2.029,-8.298 5.06,-9.207c0.93,-0.231 1.887,-0.346 2.817,-0.346c0.957,-0 2.077,0.461 3.332,1.418l0.116,0l-0,-0.119l0.539,-16.123c-0.702,-0.374 -1.072,-0.604 -1.072,-0.723l-0,-0.231c0.37,-0.489 0.906,-0.723 1.605,-0.723l3.591,0c1.116,0 1.815,0.163 2.144,0.489Zm-6.41,27.964l0.142,-2.867c0,-4.31 -0.444,-6.455 -1.33,-6.455l-2.002,-0.37c-1.982,-0 -3.404,1.184 -4.266,3.587l-0.14,1.188l0,1.446c0,4.286 1.256,6.454 3.751,6.454l0.512,0c2.236,-0.56 3.333,-1.561 3.333,-2.983Zm39.926,-28.197c-0,-0.163 0.234,-0.329 0.699,-0.492l6.733,0.492l0,0.468c-0.068,0.184 -0.58,0.486 -1.561,0.954l-0.115,0.608l0.957,30.105l-0,0.489l-0.608,0.234c-1.259,0 -3.495,-1.961 -6.709,-5.851l-6.248,-8.854c-0.417,0.374 -1.887,2.542 -4.449,6.455c-4.008,5.406 -6.805,8.131 -8.39,8.131l-0.604,-0.23l0.954,-30.133l0,-0.723c-0.187,-0.37 -0.743,-0.767 -1.676,-1.185l-0,-0.583l6.733,-0.492c0.465,0.139 0.699,0.305 0.699,0.492c-1.259,0.79 -1.911,1.863 -1.911,3.214c-0.397,7.995 -0.607,14.284 -0.607,18.876l-0,3.125l0.258,0.231c2.192,-1.914 4.031,-4.103 5.521,-6.574c1.68,-2.284 2.518,-3.682 2.518,-4.194l0,-0.116c-0.234,-1.724 -1.398,-4.615 -3.495,-8.715l-0,-0.373c0.186,-0.465 0.746,-0.699 1.68,-0.699l0.139,-0l0.699,0.234l-0.119,1.795l0,0.346c0.842,2.892 1.561,4.64 2.169,5.267c1.116,-2.07 1.792,-3.797 2.05,-5.148l-0,-0.349l-0.119,-1.792l0.702,-0.238l0.139,0c0.93,0 1.49,0.238 1.677,0.723l-0,0.353c-2.118,4.052 -3.285,7.059 -3.496,8.97c0,0.393 1.049,2.029 3.123,4.893c0.957,1.772 2.586,3.683 4.917,5.732l0.143,0l0.115,-0.115l0,-3.238c-0.234,-13.938 -0.584,-20.902 -1.096,-20.902l-1.422,-1.191Zm21.191,15.822c1.652,-0.092 2.725,-0.21 3.237,-0.37l0.513,0.116l-0,0.393c-0,0.306 -1.236,1.236 -3.75,2.797c-1.331,-1.351 -2.518,-2.026 -3.591,-2.026l-0.675,-0c-1.816,-0 -3.122,1.632 -3.937,4.941l0,0.882l0.699,0.516l0.513,0c0.556,0 1.584,-0.305 3.051,-0.886c0.349,0.557 0.512,1.141 0.512,1.768l0,0.886l-0.322,0.397c-0.934,-0.281 -1.772,-0.397 -2.566,-0.397l-0.675,0c-0.676,0.048 -1.025,0.187 -1.025,0.397l-0,1.259c-0,2.166 0.393,3.52 1.188,4.08c1.116,0.583 1.839,0.882 2.212,0.882l0.866,-0c1.327,-0 3.19,-0.815 5.613,-2.42l0.862,0.513c-1.585,2.189 -4.032,3.309 -7.341,3.309c-4.055,-0 -6.689,-1.12 -7.853,-3.309c-0.791,-2.006 -1.188,-3.357 -1.188,-4.056l0,-0.655c0,-4.381 1.724,-7.269 5.128,-8.62c0.374,-0.21 1.164,-0.373 2.376,-0.512l6.153,0.115Zm20.485,12.84c0,1.867 0.374,2.983 1.073,3.357c0.326,0.139 0.536,0.37 0.651,0.723l-0.115,0.115l-0.139,-0.115l-0.676,-0c-0.166,-0 -0.257,0.115 -0.257,0.346l-2.261,-0.116l-3.471,0c-0.652,0 -1.002,-0.139 -1.073,-0.37c0,-0.142 0.445,-0.397 1.327,-0.814l0.143,-0.608l-0,-0.115l-0.143,0c-2.118,0.862 -3.587,1.303 -4.402,1.303l-0.397,0c-3.078,0 -5.219,-1.608 -6.387,-4.778l-0.139,-1.792c0.35,-5.22 2.03,-8.298 5.06,-9.207c0.93,-0.231 1.887,-0.346 2.817,-0.346c0.957,-0 2.077,0.461 3.333,1.418l0.115,0l0,-0.119l0.54,-16.123c-0.703,-0.374 -1.073,-0.604 -1.073,-0.723l0,-0.231c0.37,-0.489 0.906,-0.723 1.605,-0.723l3.591,0c1.117,0 1.816,0.163 2.145,0.489c-0.889,1.167 -1.33,3.472 -1.33,6.923l-0.537,5.383l0.139,3.213l-0.139,11.115l0,1.795Zm-4.544,-0.465l0.143,-2.867c-0,-4.31 -0.445,-6.455 -1.331,-6.455l-2.002,-0.37c-1.982,-0 -3.404,1.184 -4.266,3.587l-0.139,1.188l-0,1.446c-0,4.286 1.256,6.454 3.75,6.454l0.512,0c2.237,-0.56 3.333,-1.561 3.333,-2.983Zm23.006,2.562c0.139,0.187 0.838,0.536 2.121,1.052c0.37,0.323 0.536,0.625 0.536,0.906l-0.889,0.14l-3.703,-0c-2.121,-0 -3.193,-0.187 -3.193,-0.513c2.005,-4.938 3.006,-8.596 3.006,-11.019l0,-1.565c-0.349,-1.839 -1.469,-2.749 -3.356,-2.749l-0.699,0c-1.422,0 -2.237,0.655 -2.467,1.955l-0.19,9.302c-0,2.281 0.539,3.659 1.585,4.076l-0,0.258l-6.36,0.255l-1.236,-0c-0.607,-0 -0.957,-0.14 -1.048,-0.397l-0,-0.116c1.771,-0.675 2.633,-1.374 2.633,-2.094l0,-3.427l0.187,-2.356c-0.048,-4.194 -0.35,-6.292 -0.886,-6.292c-2.236,-0.278 -3.356,-0.58 -3.356,-0.909l-0,-0.139c0.699,-0.652 1.585,-1.12 2.657,-1.443l4.052,0.93l0.19,0c2.725,-0.977 4.894,-1.446 6.523,-1.446c4.008,0.839 6.014,2.308 6.014,4.453l0.186,1.704l0,0.393c0,1.891 -0.77,4.826 -2.307,8.787l-0,0.254Zm18.74,-1.723l0.862,0.512c-1.585,2.193 -4.032,3.309 -7.341,3.309c-4.055,0 -6.689,-1.116 -7.853,-3.309c-0.794,-2.002 -1.188,-3.356 -1.188,-4.055l0,-0.652c0,-4.381 1.724,-7.273 5.125,-8.62c0.373,-0.214 1.167,-0.377 2.379,-0.516l6.153,0.116c1.652,-0.092 2.725,-0.207 3.237,-0.37l0.513,0.115l-0,0.394c-0,0.305 -1.236,1.239 -3.75,2.8c-1.331,-1.354 -2.519,-2.03 -3.591,-2.03l-0.675,0c-1.819,0 -3.123,1.633 -3.937,4.942l-0,0.885l0.699,0.513l0.512,-0c0.557,-0 1.582,-0.306 3.051,-0.886c0.35,0.56 0.513,1.14 0.513,1.771l-0,0.886l-0.326,0.397c-0.933,-0.281 -1.771,-0.397 -2.562,-0.397l-0.676,0c-0.678,0.044 -1.028,0.184 -1.028,0.397l0,1.256c0,2.169 0.397,3.519 1.188,4.079c1.12,0.584 1.843,0.886 2.216,0.886l0.862,0c1.327,0 3.194,-0.814 5.617,-2.423Zm12.587,-14.496c1.863,-0 2.772,0.583 2.772,1.751c0,1.021 -1.7,1.931 -5.124,2.722c-1.867,-0.418 -3.17,-0.601 -3.869,-0.601c-0.723,0.183 -1.14,0.441 -1.259,0.743l-0,0.373c0.747,1.819 2.097,2.749 4.008,2.749c2.61,0 4.381,1.025 5.267,3.099c0.278,0.862 0.417,1.724 0.417,2.61l0,0.512c0,1.819 -1.001,3.098 -3.051,3.869c-1.14,0.329 -2.097,0.489 -2.891,0.489c-0.672,-0 -2.467,-0.628 -5.403,-1.864l-0.421,0l-2.911,0.747l-0.14,-0.119l0,-0.139l4.986,-4.727l0.139,-0c0.468,-0 0.794,0.906 0.977,2.745c0.513,0.492 1.378,0.866 2.634,1.12l0.818,0l1.537,-0.37c0,-3.034 -1.144,-4.989 -3.472,-5.874c-2.681,-1.049 -4.055,-1.887 -4.147,-2.495c-0.655,-1.116 -0.981,-2.002 -0.981,-2.606c0.584,-3.17 2.332,-4.734 5.267,-4.734c0.374,-0 1.887,0.607 4.568,1.866l0.839,0l0.421,-0.377l-0,-0.369l-0.981,-0.863l-0,-0.257Zm21.444,-14.307c-0.889,1.167 -1.331,3.472 -1.331,6.923l-0.536,5.383l0.139,3.213l-0.139,11.115l0,1.795c0,1.867 0.373,2.983 1.073,3.357c0.325,0.139 0.536,0.37 0.651,0.723l-0.115,0.115l-0.139,-0.115l-0.676,-0c-0.166,-0 -0.258,0.115 -0.258,0.346l-2.26,-0.116l-3.472,0c-0.651,0 -1.001,-0.139 -1.072,-0.37c-0,-0.142 0.445,-0.397 1.327,-0.814l0.142,-0.608l0,-0.115l-0.142,0c-2.118,0.862 -3.587,1.303 -4.402,1.303l-0.397,0c-3.078,0 -5.219,-1.608 -6.387,-4.778l-0.139,-1.792c0.35,-5.22 2.029,-8.298 5.06,-9.207c0.93,-0.231 1.887,-0.346 2.817,-0.346c0.957,-0 2.077,0.461 3.333,1.418l0.115,0l-0,-0.119l0.539,-16.123c-0.702,-0.374 -1.072,-0.604 -1.072,-0.723l0,-0.231c0.37,-0.489 0.906,-0.723 1.605,-0.723l3.591,0c1.116,0 1.816,0.163 2.145,0.489Zm-6.411,27.964l0.142,-2.867c0,-4.31 -0.444,-6.455 -1.33,-6.455l-2.002,-0.37c-1.982,-0 -3.404,1.184 -4.266,3.587l-0.139,1.188l-0,1.446c-0,4.286 1.255,6.454 3.75,6.454l0.512,0c2.237,-0.56 3.333,-1.561 3.333,-2.983Zm20.953,-0.815c0.655,1.724 1.958,3.377 3.893,4.914l-0,0.258l-3.448,0.234l-0.584,0l-0.56,0.116l-0.58,-0.116l-0,-0.234l1.001,-1.001c-0.465,-0.957 -0.91,-1.493 -1.283,-1.585l-0.302,0c-3.031,2.121 -6.129,3.19 -9.343,3.19l-2.728,-0.37l-0,-0.746c-0,-4.032 2.586,-8.39 7.761,-13.053l0,-1.466c0,-1.394 0.536,-2.094 1.585,-2.094c1.072,0 1.581,0.116 1.581,0.37l0,0.116l-0.997,0.862l-0,1.49c1.371,4.011 2.375,6.319 3.003,6.879c0.489,-0 0.977,-0.815 1.446,-2.451l0.139,0c1.144,0.913 2.097,2.193 2.868,3.822l-0,0.119l-2.006,-0.119c-0.954,0.19 -1.446,0.468 -1.446,0.865Zm-2.864,0l-0,-0.142c-0,-0.418 -0.56,-1.769 -1.724,-4.053l-0.584,0c-3.054,3.751 -4.592,5.919 -4.592,6.527l-0.139,0.604l0,1.001l0.279,0.234l0.444,0c1.538,0 3.587,-1.235 6.173,-3.682l0.143,-0.489Zm23.237,-11.931l0.723,0.115l0,0.394c-1.025,-0 -1.561,0.329 -1.561,1.004c-0.281,3.448 -0.441,7.436 -0.441,11.933l0.441,6.149l0,0.119c0,1.843 -1.283,3.424 -3.869,4.775c-0.373,0.166 -0.885,0.258 -1.585,0.258l-1.561,-0c-2.328,-0 -3.892,-1.096 -4.73,-3.265l-0.279,-1.513c0.139,-0.605 0.346,-0.886 0.581,-0.886c0.281,-0 0.583,0.699 0.862,2.145l1.004,0.746l1.422,0c1.303,0 2.678,-1.259 4.147,-3.753l0.279,-2.26l-0,-1.002l-0.279,-0.258l-3.427,0.258c-3.075,0 -5.125,-1.605 -6.15,-4.778l-0.305,-2.399l1.167,-6.153l0,-0.255c-0.047,-0.258 -0.444,-0.373 -1.167,-0.373l-1.28,-0l-0.281,-0.255l-0,-0.118c-0,-0.374 1.354,-0.581 4.008,-0.628l3.427,0.115l0.139,0.394c-1.025,2.426 -1.561,4.941 -1.561,7.527c0,2.613 0.767,4.358 2.284,5.271l1.561,0.393c0.93,0 1.609,-0.302 2.003,-0.885l-0,-0.258c-0,-7.548 -0.513,-11.302 -1.561,-11.302c-0,-0.186 -0.187,-0.254 -0.584,-0.254l-0,-0.115c-0,-0.516 2.192,-0.795 6.573,-0.886Zm-651.532,12.04c1.483,0 2.451,0.774 2.895,2.322c0.149,0.563 0.227,1.072 0.227,1.53l0,0.455c0,0.848 -0.186,1.381 -0.56,1.602l-0.061,-0l0.061,-0.377l0,-0.183c0,-0.686 -0.349,-1.151 -1.045,-1.391c-0.458,-0.102 -1.228,-0.211 -2.318,-0.336c0.363,1.16 0.543,2.093 0.543,2.789l0,0.272l0.048,0.227l-0.048,0.231l0,0.176c-0.18,1.962 -0.787,2.939 -1.815,2.939l-0.109,0c-0.241,-0.027 -0.363,-0.088 -0.363,-0.176c0.689,-0.53 1.032,-1.348 1.032,-2.457l-0,-0.258c-0,-1.293 -0.618,-2.467 -1.85,-3.513l-0.061,0c-0.343,0.445 -0.652,0.665 -0.923,0.665c-0.306,-0.03 -0.455,-0.091 -0.455,-0.183l0,-0.027c0.302,-0.316 0.455,-0.655 0.455,-1.018l-0,-0.363c-0.373,-0.448 -1.093,-0.988 -2.152,-1.622c-0.465,-0.669 -0.699,-1.317 -0.699,-1.952l0,-0.261l0.275,-2.817l-0.105,-2.365l0.166,-1.802l0,-0.214c0,-0.794 -0.217,-1.32 -0.651,-1.575c-0.374,-0.078 -0.56,-0.149 -0.56,-0.21c0.553,-0.537 0.831,-0.991 0.831,-1.365l0.044,-0.546c0,-1.354 -0.407,-2.705 -1.225,-4.059c-0.767,-0.699 -1.191,-1.181 -1.273,-1.456c-0.848,0 -1.469,1.14 -1.863,3.424l-0.108,1.592c-0,1.222 0.42,2.074 1.259,2.562l0.091,0.18c-0.628,0.699 -0.94,1.731 -0.94,3.109c0.133,2.874 0.431,4.402 0.893,4.571l0.288,0c0.516,0 0.855,-0.495 1.015,-1.496l0.061,-0c0.536,0.492 0.804,1.15 0.804,1.968l0,0.092c-0.163,1.809 -0.848,2.711 -2.06,2.711l-1.001,0c-0.858,0 -1.473,0.889 -1.849,2.668l-0.058,0.773l-0,0.319c-0,0.571 0.064,1.127 0.193,1.65l-0.193,-0l-0.655,-1.409c-0.977,-1.062 -1.51,-1.917 -1.592,-2.562c-0.38,-1.446 -0.675,-2.168 -0.875,-2.168c-1.317,-0 -2.121,-0.438 -2.427,-1.314c-0.292,-0.719 -0.438,-1.35 -0.438,-1.897c0,-0.553 0.211,-1.137 0.635,-1.744l0.122,-0c0,0.991 0.424,1.49 1.273,1.49l0.485,0.105c0.604,-0 0.91,-0.278 0.91,-0.835l0.18,-1.531c-0,-1.978 -0.727,-3.482 -2.183,-4.5l0,-0.061c0,-0.078 0.408,-0.197 1.215,-0.349c0.394,-0.425 0.591,-1.032 0.591,-1.833c-0,-1.442 -0.316,-2.824 -0.94,-4.134l-0.197,0c-1.13,0.435 -2.138,1.351 -3.017,2.756c-0.333,0.567 -0.513,1.107 -0.543,1.622l0.058,2.698c-0.15,1.918 -0.224,3.459 -0.224,4.619l-0,0.577c-0,1.86 0.213,3 0.651,3.424c0.465,0.323 1.029,0.557 1.697,0.696l0.044,0.061l0,0.119c-0.444,0.316 -0.675,0.523 -0.696,0.624l0,0.197c0,0.547 0.398,1.365 1.198,2.454c0.252,0.445 0.377,0.859 0.377,1.245l0,0.075l-0.061,0.255l-0.044,-0l-0.166,-0.136l-0,-0.424c-1.344,-0.513 -2.366,-0.771 -3.061,-0.771c-1.124,0 -1.901,0.645 -2.335,1.938l-0.119,0.591c0.2,1.557 0.967,2.335 2.301,2.335c0.546,-0.557 0.818,-1.036 0.818,-1.443l-0.211,-0.936l0,-0.123l0.092,-0.105l0.119,0c0.617,0.506 0.926,1.12 0.926,1.85c0,1.211 -0.763,2.1 -2.291,2.667l-0.984,0.241c-1.795,0 -3.02,-1.143 -3.665,-3.427l-0.214,-1.226l0,-0.061c0,-0.736 0.289,-1.656 0.866,-2.755l-0.153,-0c-1.375,-0 -2.264,-0.547 -2.664,-1.64l-0.092,-0.665l0,-0.471c0,-0.991 0.458,-1.921 1.378,-2.804l0.061,0c0.292,1.511 0.842,2.261 1.649,2.261l0.289,-0c0.224,-0.102 0.333,-0.309 0.333,-0.622l0.122,-2.104c-0.082,-3.678 -0.425,-5.514 -1.032,-5.514l-0.316,-0c-0.465,1.371 -0.787,2.056 -0.97,2.056c-0.747,-2.372 -1.836,-3.903 -3.272,-4.592c-0.305,-0.132 -0.455,-0.22 -0.455,-0.271l0.18,-0.166l0.031,-0c1.544,-0 2.532,-0.323 2.956,-0.971c0.502,-0.404 0.869,-0.604 1.089,-0.604c0,0.767 0.251,1.15 0.757,1.15l0.109,0c0.363,0 0.587,-0.274 0.665,-0.834c0.173,-0.635 0.258,-1.29 0.258,-1.969l-0,-0.468c-0,-1.809 -0.425,-3.051 -1.273,-3.73c-0.21,0 -1.066,0.455 -2.559,1.364l-0.835,0.15c-0.868,-0 -1.839,-1.062 -2.908,-3.194l-0.061,-0.271l0.061,-0c0.685,0.475 1.198,0.709 1.53,0.709c0.374,0 1.046,-0.458 2.016,-1.378c0.16,-0.149 0.906,-0.349 2.24,-0.59l0.153,-0.197c-0.424,-0.18 -0.638,-0.516 -0.638,-1.001l0.122,-0.211l0.197,0.044c0.567,-0.03 0.875,-0.139 0.923,-0.315c-0.747,-0.672 -1.12,-1.236 -1.12,-1.697l0,-0.153c0,-0.383 0.326,-0.828 0.971,-1.334l0.105,0c0.122,0 0.271,0.418 0.455,1.256c0.665,0.771 1.466,1.225 2.396,1.364l4.452,0.924l0.061,0.064l0,0.438c0,0.665 -0.526,1.405 -1.574,2.212c-0.659,0.968 -0.988,1.687 -0.988,2.152c0,0.445 0.197,0.876 0.594,1.286c0.271,-0.583 1.262,-1.666 2.969,-3.241l1.786,-2.637l-0,-0.363l0.078,-0.271l0.135,-0c0,0.302 0.506,1.164 1.514,2.586c0.719,0.709 1.486,1.062 2.304,1.062l0.075,0c1.537,0 3.309,-0.852 5.318,-2.559c0.506,-0.628 0.896,-1.059 1.167,-1.303l0.048,-0l-0.048,1.788l0,1.409c0,2.08 0.727,4.242 2.183,6.485c0.899,1.918 1.35,3.472 1.35,4.667c0,0.838 -0.376,2.256 -1.123,4.259c-0.173,0.675 -0.261,1.245 -0.272,1.71c0,0.737 0.16,1.107 0.486,1.107l0.818,0.152c0.644,0 1.113,-0.512 1.408,-1.534l0,-0.21l-0.288,-1.347l-0,-0.061l0.135,-0.123l0.109,0c0.584,0 0.984,0.788 1.194,2.366l0,0.088c0,0.414 -0.346,1.283 -1.045,2.606Zm18.999,-2.576l0.153,-0.193c0.604,0.472 0.91,0.923 0.91,1.347c-0,0.937 -0.628,1.856 -1.881,2.759c-0.173,0.099 -0.383,0.167 -0.634,0.211l-0.927,-0.245l-0.166,0c-0.271,0 -0.458,0.343 -0.56,1.032l0,0.275c0,0.512 0.642,0.998 1.924,1.452l0,0.109c-0.118,0.241 -0.59,0.36 -1.408,0.36c-1.405,-0 -2.355,-0.822 -2.851,-2.468c-0.149,-0.464 -0.227,-0.899 -0.227,-1.303l-0,-0.349l-1.877,0.288c-0.597,-0.034 -0.892,-0.183 -0.892,-0.458c-0.133,-0.109 -0.201,-0.305 -0.201,-0.587l0.031,-0.031l0.458,0.075c0.777,0 1.527,-0.455 2.257,-1.364l0.075,-0.727c-0,-0.346 -0.289,-0.546 -0.863,-0.607c-0.99,0 -1.91,0.475 -2.759,1.425c-0.264,0.377 -0.393,0.801 -0.393,1.273l-0,0.031c-0,0.685 0.295,1.449 0.892,2.287c0,0.092 -0.166,0.136 -0.499,0.136l-0.091,-0c-1.059,-0 -1.714,-0.54 -1.955,-1.622l-0,-0.058c-0.747,0.22 -1.239,0.332 -1.47,0.332c-0.363,0 -0.638,-0.217 -0.817,-0.651c0.98,-0.153 1.469,-0.621 1.469,-1.409l0,-0.135c0,-0.608 -0.567,-1.609 -1.697,-3.004c-0.604,-0.835 -0.909,-1.622 -0.909,-2.362l-0,-0.078c-0,-0.36 0.278,-1.062 0.835,-2.104l-0,-0.441l-0.258,-0.984l0.105,-0.18c1.849,0.322 3.085,0.485 3.713,0.485c0.919,0 2.355,-0.682 4.303,-2.046c0.516,-0.401 0.77,-0.825 0.77,-1.273l0,-0.044c0,-0.496 -0.149,-1.018 -0.451,-1.561c-2.043,0.947 -3.224,1.53 -3.547,1.744l-0.03,0.177c-0,0.549 0.207,0.821 0.621,0.821l-0,0.105c-0.241,0.536 -0.652,0.804 -1.229,0.804l-0.088,0c-0.882,0 -1.517,-0.485 -1.911,-1.456l0,-0.044l-0.319,0.044l-0.21,0c-0.618,0 -1.042,-0.332 -1.273,-0.997c-0.101,-0.224 -0.152,-0.526 -0.152,-0.91c-0,-1.317 0.529,-2.314 1.591,-3.003l0.044,0.047c-0.139,0.262 -0.21,0.475 -0.21,0.635l0,0.349c0.18,0.92 0.631,1.378 1.347,1.378l0.184,0c1.221,0 2.654,-1.171 4.303,-3.512c0.129,-0.424 0.231,-0.635 0.302,-0.635l0.122,0l0.075,0.088l-0,0.394c-0,1.263 0.736,2.379 2.212,3.346c0.635,0.248 1.141,0.367 1.514,0.367c0.506,-0 1.425,-0.319 2.759,-0.954l0.105,0l0,0.027c-1.181,1.466 -1.89,2.977 -2.121,4.531c-0.102,0.346 -0.152,0.75 -0.152,1.215l-0,0.329c-0,0.984 0.41,1.636 1.228,1.958l0,0.061c0,0.041 -0.197,0.146 -0.59,0.319c-0.727,0.666 -1.093,1.707 -1.093,3.119l-0,0.363c-0,1.758 0.505,2.746 1.517,2.956c0.444,-0.332 0.74,-0.75 0.892,-1.259Zm-5.816,-2.362c0.132,-1.031 0.196,-2.213 0.196,-3.546l-0.047,-1.195l-0.075,0c-0.502,0.665 -1.737,1.215 -3.696,1.65c-1.062,0.515 -1.591,0.974 -1.591,1.377l-0.167,0.879c0,0.184 0.269,0.306 0.801,0.363l0.153,0c0.363,0 0.669,-0.203 0.91,-0.617c0.393,-0 0.743,0.573 1.045,1.724l0.105,-0l0.865,-0.149l1.107,0.057c0.261,0 0.394,-0.18 0.394,-0.543Zm49.668,-13.621c-0,0.828 -0.547,1.561 -1.636,2.196c-0.859,0.607 -1.29,1.815 -1.29,3.621c0,1.527 0.431,2.48 1.29,2.864l0.577,0.411c-0,0.21 -0.417,0.488 -1.246,0.831c-0.695,0.384 -1.045,1.154 -1.045,2.304l0,0.18c0.363,3.849 0.631,5.773 0.805,5.773c0.213,0.387 0.447,0.577 0.709,0.577c0.336,-0.027 0.75,-0.21 1.245,-0.546l0.092,-0l0.149,0.152l0,0.031c-0.112,1.12 -0.651,1.68 -1.622,1.68l-0.105,-0c-1.09,-0 -1.87,-0.513 -2.332,-1.544l-0.41,-0.319l-0,0.047c-0,1.151 0.556,2.603 1.666,4.364l0.984,1.256c-0.047,0.098 -0.125,0.153 -0.227,0.153c-1.958,-0 -3.167,-0.75 -3.618,-2.243c-0.648,-1.728 -0.97,-3.869 -0.97,-6.425c-0,-0.94 0.115,-2.525 0.346,-4.758l0.03,-3.305c-0.22,-2.546 -0.821,-3.818 -1.802,-3.818l-0.363,-0c-0.516,-0 -1.011,0.298 -1.483,0.896c-0.194,0.556 -0.289,1.089 -0.289,1.608l0,0.089l0.045,-0l0.044,3.017l-0,2.545c-0,1.907 0.135,3.071 0.41,3.482c0.818,0.163 1.317,0.353 1.5,0.563c0.282,0.302 0.509,0.957 0.683,1.969l-0.136,0.302l-0.031,-0l-0.485,-0.425c-0.811,0 -1.33,0.818 -1.561,2.457l-0.245,1.714l-0.044,0c-0.152,0 -0.407,-0.468 -0.773,-1.398c-0.343,-0.472 -0.842,-0.713 -1.5,-0.713l-0.028,-0.044l0,-0.013l0.028,-0.56c-0.028,-0.577 -0.17,-0.866 -0.425,-0.866c-0.746,1.619 -1.561,2.427 -2.436,2.427c-0.265,-0.065 -0.397,-0.122 -0.397,-0.183c0.556,-0.285 0.855,-0.465 0.896,-0.547c0.485,-0.696 0.726,-1.398 0.726,-2.104c-0,-1.062 -0.35,-1.751 -1.046,-2.063c-0.112,-0.027 -0.207,-0.122 -0.288,-0.272l0,-0.027c0,-0.064 0.156,-0.119 0.472,-0.17c0.573,-0.281 0.862,-0.746 0.862,-1.391l-0.167,-1.487c0.252,-1.707 0.381,-3.254 0.381,-4.635c-0,-1.942 -0.302,-3.194 -0.91,-3.761c-0.132,-0.132 -0.343,-0.196 -0.638,-0.196c-1.018,-0 -1.751,0.631 -2.196,1.893c-0.122,0.706 -0.183,1.276 -0.183,1.711l0.17,2.063l-0.065,4.758c0,1.446 0.329,2.603 0.988,3.472l0.818,0.77l-0.061,0.031l-0.031,-0l-0.923,-0.136c-1.252,0 -2.505,0.55 -3.76,1.649l-0.391,0.53l-0.152,-0.136l-0,-0.105c-0,-0.384 0.332,-1.205 1.001,-2.467l0.105,-0.686c0,-0.451 -0.139,-0.753 -0.411,-0.906c-0.716,1.059 -1.354,1.592 -1.907,1.592l-0.349,-0c-0.642,-0 -1.229,-0.299 -1.762,-0.89c-0.02,0.927 -0.39,1.585 -1.15,1.948c-0.282,0.129 -0.57,0.197 -0.862,0.197c-0.971,-0.342 -1.456,-0.753 -1.456,-1.228l0.078,-0.044l0.529,0.105c0.747,-0 1.124,-0.384 1.124,-1.151c-0,-0.644 -0.33,-0.97 -0.988,-0.97l-0.377,-0.044c-1.17,-0 -1.961,0.763 -2.365,2.287c-0,1.381 -0.241,2.074 -0.726,2.074c-1.456,0.539 -2.315,1.164 -2.576,1.88c-0.133,0.869 -0.251,1.303 -0.363,1.303l-0.76,-1.062l-2.044,-1.164c-0.587,-0.435 -0.878,-1.127 -0.878,-2.077l-0,-0.587l-0.577,0.04c-2.111,0 -3.404,-0.56 -3.879,-1.68l-0.123,-0.482c0.041,-0.356 0.116,-0.532 0.231,-0.532l0.136,-0c0.584,0.414 1.201,0.621 1.846,0.621c1.283,-0 2.152,-0.506 2.606,-1.514c0.323,-1.093 0.486,-2.739 0.486,-4.941l-0.316,-7.897l-0.122,-2.617l0.319,-3.428c-0.54,-1.15 -1.364,-1.727 -2.488,-1.727c-0.495,0.085 -1.058,0.204 -1.696,0.366l-0.075,-0.03l-0,-0.065c0.394,-0.865 1.164,-1.299 2.318,-1.299l0.091,-0c1.426,-0 2.495,0.42 3.211,1.259c0.353,0.587 0.651,0.923 0.896,1.014l-0,-0.38c-0,-0.756 -0.299,-1.425 -0.896,-2.002l-0,-0.027l0.302,-0.153c0.668,0.092 1.205,0.374 1.609,0.849c0.241,0.332 0.414,0.828 0.512,1.483l0.153,0.139c0.757,-0.899 1.415,-1.347 1.971,-1.347l0.347,-0c0.899,0.24 1.35,0.722 1.35,1.438l0,0.106c0,0.695 -0.339,1.245 -1.014,1.649l-0.761,0.065l-0.105,-0.136c0.353,-0.214 0.53,-0.472 0.53,-0.777c-0,-0.404 -0.289,-0.628 -0.862,-0.679c-0.849,0.271 -1.273,0.716 -1.273,1.334c-0,0.431 0.57,0.739 1.71,0.923l0.078,0.047l0,0.105c-0.97,0.686 -1.455,1.473 -1.455,2.362l-0.258,1.256l-0,0.38l0.03,0.957l-0.03,1.816l0.166,8.712l-0.136,2.138c0,0.553 0.126,0.831 0.38,0.831l0.302,0.048c0.767,-1.528 2.006,-2.637 3.713,-3.333c0.414,-0.105 0.767,-0.153 1.059,-0.153c1.059,0 1.805,0.788 2.277,2.274c0.007,-0.003 0.004,-0.013 0.01,-0.017c0.608,0.465 0.988,0.699 1.137,0.699l0.109,0c1.069,0 1.69,-1.167 1.863,-3.499l-0,-0.152c-0.071,-1.819 -0.187,-2.729 -0.35,-2.729c-0.454,-0.414 -0.994,-0.682 -1.622,-0.801l0,-0.109c0,-0.016 0.387,-0.115 1.154,-0.288c0.563,-0.231 0.848,-1.028 0.848,-2.396l0,-0.648c-0.061,-1.375 -0.234,-2.097 -0.515,-2.169c-0.716,0.587 -1.249,0.879 -1.592,0.879l-0.255,0c-0.495,0 -0.974,-0.444 -1.425,-1.334c-0.102,-0.19 -0.166,-0.441 -0.2,-0.756l0.047,-0.302l0.061,-0l0.35,0.499l0.815,-0c1.164,-0 1.744,-0.438 1.744,-1.317c-0.363,-0 -0.706,-0.38 -1.032,-1.137c-0.088,-0.214 -0.136,-0.506 -0.136,-0.879l0,-0.441c0,-0.696 0.35,-1.382 1.049,-2.057l0.058,0.058c-0.102,0.214 -0.15,0.431 -0.15,0.655l0,0.176c0,0.346 0.265,0.564 0.801,0.655l0.061,-0.047c0,-0.618 0.479,-1.215 1.439,-1.802c0.414,-0.231 0.951,-0.35 1.609,-0.35c1.361,0.173 2.043,0.791 2.043,1.85l-0.044,0.03l-0.048,0c-0.352,-0.312 -0.76,-0.472 -1.225,-0.472c-0.838,0 -1.323,0.51 -1.456,1.517c0.082,0.577 0.184,0.869 0.306,0.879l0.197,0c-0,-0.424 0.519,-0.814 1.561,-1.164l0.573,-0.047c0.757,0.088 1.137,0.455 1.137,1.089l0,0.441c-0.04,0.543 -0.112,0.839 -0.214,0.879c-0.071,0 -0.142,-0.173 -0.21,-0.515c-0.204,-0.184 -0.346,-0.272 -0.424,-0.272c-0.526,0 -0.944,0.241 -1.259,0.723l-0.153,0.153l0,0.078c0,0.614 0.217,1.065 0.655,1.347c2.05,0 4.008,-0.964 5.878,-2.891c0.2,-0.336 0.428,-0.584 0.682,-0.744c0.112,0.031 0.258,0.279 0.438,0.744c0.787,0.875 1.914,1.313 3.38,1.313c1.636,-0 2.803,-0.553 3.499,-1.663l0.078,-0.563l0,-0.241l-0.139,-0.665l0.061,-0.048l0.031,0c1.001,0.394 1.5,0.96 1.5,1.697c-0,0.373 -0.191,0.774 -0.577,1.198l0.091,0.075c0.333,-0 0.713,-0.245 1.137,-0.744c0.18,-0.281 0.272,-0.628 0.272,-1.042c-0,-0.325 -0.044,-0.621 -0.136,-0.895l0.061,-0.062c0.93,0.486 1.395,1.253 1.395,2.305Zm15.817,8.349c0.312,1.351 0.851,2.029 1.622,2.029c0.567,0.133 0.848,0.258 0.848,0.381c0,0.577 -0.57,1.052 -1.714,1.439c-0.593,0.322 -0.892,0.963 -0.892,1.924l-0,1.513c-0,1.728 -0.414,2.827 -1.242,3.306c-0.445,0.349 -0.92,0.529 -1.426,0.529l-0.135,0l-1.47,-0.034c-1.211,0.71 -1.819,1.494 -1.819,2.352l0,0.289l-0.075,-0c-0.607,-1.042 -1.113,-1.745 -1.517,-2.108c-0.261,-0.17 -0.485,-0.258 -0.665,-0.258l-1.106,0c-1.666,0 -2.769,-0.58 -3.302,-1.741c-0.275,-0.577 -0.533,-2.138 -0.774,-4.683c0,-0.322 -0.339,-0.608 -1.015,-0.849c-0.495,-0.373 -0.743,-0.787 -0.743,-1.242c1.11,-0.261 1.666,-0.515 1.666,-0.756c0.112,-0 0.194,-0.638 0.245,-1.908c0.441,-1.001 0.665,-1.571 0.665,-1.714l-0,-0.152c-0,-0.282 -0.153,-0.424 -0.455,-0.424c-0.414,0.736 -0.645,1.113 -0.696,1.123l-0.122,-0c-0.373,-0 -0.641,-0.35 -0.801,-1.049l0,-0.424c0,-0.597 0.621,-1.008 1.86,-1.242c0.245,-0.02 0.367,-0.065 0.367,-0.136c-0.173,-0.655 -0.258,-1.099 -0.258,-1.334l-0,-0.424c-0,-0.451 0.407,-0.858 1.225,-1.211c0.112,0.03 0.17,0.074 0.17,0.135c-0.265,0.221 -0.394,0.425 -0.394,0.608c-0,0.665 0.784,1.249 2.362,1.741l0.407,-0c1.062,-0 2.057,-0.883 2.987,-2.651l0.122,0c0.068,0.01 0.258,0.404 0.56,1.181c0.112,0.224 0.516,0.411 1.211,0.564c0.292,0.03 0.764,0.234 1.409,0.617l0.183,0c0.414,0 0.686,-0.404 0.818,-1.211c-0,-0.849 -0.333,-1.514 -1.001,-1.999l-0.167,-0.075c0,0.818 -0.319,1.225 -0.953,1.225c-0.597,-0.353 -0.893,-0.858 -0.893,-1.513l0,-0.122c0.092,-0.747 0.387,-1.124 0.893,-1.124c1.069,0 1.999,0.635 2.789,1.897c0.303,0.533 0.452,1.103 0.452,1.711c-0,0.729 -0.2,1.337 -0.604,1.819l0.787,1.439c0.092,1.707 0.289,2.562 0.591,2.562Zm-4.667,0.394l0,-0.211c0,-1.347 -0.471,-2.562 -1.408,-3.655c-0.356,-0.21 -0.611,-0.315 -0.774,-0.315c-0.818,0.322 -1.225,0.665 -1.225,1.028c-0,0.821 0.285,1.833 0.862,3.048l1.334,1.194l0.074,0c0.757,0 1.137,-0.363 1.137,-1.089Zm-0.455,9.092c0.306,-1.083 0.455,-2.39 0.455,-3.927l-0.149,-2.606l-0.244,-0c-0.628,0.264 -1.188,0.393 -1.684,0.393l-0.18,0c-0.495,0 -1.116,-0.088 -1.863,-0.271c-0.132,0.556 -0.197,0.97 -0.197,1.242l0.394,4.683c0.251,1.039 0.787,1.558 1.605,1.558l0.061,-0c0.998,-0 1.602,-0.356 1.802,-1.072Zm73.169,-12.337l-0,0.577c-0,0.971 -0.346,1.667 -1.032,2.091l-0.726,0.183c-0.516,0 -0.845,-0.204 -0.984,-0.607l-0.092,-0.547c0.01,-0.159 0.085,-0.241 0.227,-0.241l0.394,0.17l0.153,-0c0.332,-0 0.499,-0.221 0.499,-0.655l-0,-0.122c-0.231,-0.91 -0.666,-1.361 -1.304,-1.361c-0.818,-0 -1.778,0.713 -2.878,2.138c-0.295,0.533 -0.441,1.011 -0.441,1.435c0,0.224 0.218,0.713 0.652,1.47l-0.044,-0l-0.757,-0.241c-0.93,-0 -2.484,1.822 -4.66,5.471c-2.178,3.645 -3.264,5.979 -3.264,6.998c0.342,0.213 0.706,0.319 1.089,0.319c0.526,-0.343 0.787,-0.557 0.787,-0.635l0.106,-0c0.081,-0 0.169,0.309 0.257,0.923c-0.169,1.354 -0.75,2.029 -1.74,2.029c-0.588,0 -1.107,-0.319 -1.562,-0.953l-0.152,-0c0.163,0.858 0.244,1.473 0.244,1.849l0,0.058c0,1.293 -0.713,2.108 -2.138,2.44l-0.377,0.048l-0.424,-0c-1.14,-0.265 -1.85,-0.587 -2.124,-0.974l-0,-0.089l0.064,0c1.351,0.394 2.199,0.204 2.545,-0.576l-0.061,-1.059c-0.302,-0.363 -1.072,-0.815 -2.304,-1.351c-1.381,1.425 -2.399,2.226 -3.044,2.41l-0.061,-0l-0.061,-0.045l-0,-0.061c0.241,-0.342 0.363,-0.695 0.363,-1.062l-0,-0.254c-0,-0.503 -0.19,-1.453 -0.499,-2.681l-0,0.271c-0,0.848 -0.187,1.381 -0.56,1.605l-0.061,0l0.061,-0.376l-0,-0.184c-0,-0.685 -0.35,-1.15 -1.045,-1.391c-0.455,-0.105 -1.229,-0.214 -2.318,-0.336c0.363,1.161 0.546,2.09 0.546,2.786l0,0.272l0.044,0.23l-0.044,0.228l0,0.18c-0.183,1.961 -0.791,2.939 -1.819,2.939l-0.105,-0c-0.245,-0.031 -0.367,-0.089 -0.367,-0.18c0.689,-0.526 1.032,-1.344 1.032,-2.454l-0,-0.258c-0,-1.293 -0.618,-2.467 -1.85,-3.516l-0.061,0c-0.342,0.445 -0.648,0.669 -0.923,0.669c-0.302,-0.031 -0.455,-0.095 -0.455,-0.183l0,-0.031c0.306,-0.316 0.455,-0.652 0.455,-1.018l0,-0.36c-0.373,-0.448 -1.089,-0.987 -2.151,-1.625c-0.465,-0.666 -0.696,-1.314 -0.696,-1.952l-0,-0.258l0.271,-2.817l-0.105,-2.365l0.166,-1.805l0,-0.211c0,-0.794 -0.217,-1.323 -0.651,-1.575c-0.373,-0.078 -0.56,-0.152 -0.56,-0.21c0.553,-0.54 0.831,-0.991 0.831,-1.368l0.048,-0.543c-0,-1.354 -0.411,-2.708 -1.229,-4.059c-0.767,-0.699 -1.191,-1.184 -1.272,-1.455c-0.849,-0 -1.47,1.14 -1.863,3.424l-0.106,1.591c0,1.222 0.418,2.074 1.256,2.563l0.092,0.176c-0.625,0.699 -0.94,1.734 -0.94,3.109c0.132,2.878 0.431,4.405 0.892,4.575l0.289,-0c0.515,-0 0.855,-0.499 1.014,-1.497l0.061,0c0.537,0.492 0.805,1.147 0.805,1.968l-0,0.092c-0.163,1.805 -0.849,2.712 -2.06,2.712l-1.001,-0c-0.859,-0 -1.473,0.885 -1.85,2.667l-0.058,0.77l0,0.319c0,0.574 0.065,1.127 0.194,1.653l-0.194,0l-0.655,-1.412c-0.977,-1.058 -1.507,-1.914 -1.588,-2.558c-0.383,-1.446 -0.679,-2.169 -0.879,-2.169c-1.313,-0 -2.121,-0.438 -2.423,-1.317c-0.295,-0.719 -0.441,-1.347 -0.441,-1.894c-0,-0.553 0.214,-1.136 0.638,-1.744l0.119,0c-0,0.991 0.424,1.487 1.272,1.487l0.485,0.108c0.608,0 0.91,-0.278 0.91,-0.835l0.183,-1.534c0,-1.978 -0.729,-3.478 -2.182,-4.5l0,-0.057c0,-0.082 0.404,-0.197 1.212,-0.35c0.393,-0.424 0.59,-1.035 0.59,-1.833c0,-1.445 -0.312,-2.823 -0.94,-4.137l-0.197,0c-1.13,0.435 -2.138,1.355 -3.013,2.76c-0.333,0.566 -0.516,1.106 -0.547,1.618l0.061,2.698c-0.152,1.921 -0.227,3.462 -0.227,4.623l-0,0.577c-0,1.856 0.217,2.996 0.652,3.42c0.465,0.326 1.028,0.557 1.696,0.696l0.045,0.065l-0,0.118c-0.445,0.316 -0.676,0.52 -0.696,0.625l-0,0.193c-0,0.547 0.397,1.368 1.198,2.457c0.251,0.445 0.377,0.859 0.377,1.242l-0,0.079l-0.062,0.254l-0.044,0l-0.166,-0.136l0,-0.424c-1.344,-0.516 -2.365,-0.774 -3.061,-0.774c-1.12,0 -1.897,0.649 -2.332,1.942l-0.122,0.587c0.2,1.557 0.971,2.338 2.301,2.338c0.547,-0.557 0.818,-1.039 0.818,-1.442l-0.21,-0.937l-0,-0.122l0.091,-0.109l0.119,0c0.618,0.509 0.927,1.12 0.927,1.85c-0,1.215 -0.764,2.1 -2.288,2.667l-0.984,0.245c-1.799,-0 -3.024,-1.144 -3.669,-3.428l-0.213,-1.225l-0,-0.061c-0,-0.74 0.288,-1.656 0.865,-2.759l-0.153,-0c-1.371,-0 -2.263,-0.547 -2.664,-1.636l-0.091,-0.665l-0,-0.472c-0,-0.991 0.458,-1.921 1.377,-2.803l0.061,-0c0.292,1.506 0.842,2.26 1.653,2.26l0.289,-0c0.22,-0.102 0.332,-0.309 0.332,-0.625l0.119,-2.104c-0.081,-3.678 -0.424,-5.515 -1.028,-5.515l-0.319,0c-0.465,1.375 -0.788,2.06 -0.971,2.06c-0.746,-2.375 -1.836,-3.906 -3.271,-4.591c-0.306,-0.133 -0.455,-0.221 -0.455,-0.272l0.18,-0.169l0.034,-0c1.544,-0 2.528,-0.319 2.952,-0.968c0.506,-0.403 0.869,-0.607 1.09,-0.607c-0,0.77 0.254,1.15 0.76,1.15l0.105,0c0.363,0 0.587,-0.275 0.669,-0.831c0.169,-0.635 0.254,-1.293 0.254,-1.968l0,-0.472c0,-1.809 -0.424,-3.048 -1.273,-3.727c-0.21,0 -1.065,0.455 -2.558,1.365l-0.835,0.149c-0.869,0 -1.84,-1.062 -2.909,-3.193l-0.061,-0.272l0.061,0c0.689,0.472 1.198,0.709 1.531,0.709c0.373,0 1.045,-0.458 2.016,-1.381c0.159,-0.149 0.906,-0.346 2.24,-0.59l0.152,-0.194c-0.424,-0.183 -0.638,-0.519 -0.638,-1.001l0.126,-0.214l0.193,0.048c0.567,-0.034 0.876,-0.139 0.927,-0.319c-0.75,-0.669 -1.12,-1.232 -1.12,-1.697l-0,-0.153c-0,-0.383 0.322,-0.828 0.967,-1.33l0.105,-0c0.122,-0 0.272,0.417 0.455,1.255c0.665,0.771 1.466,1.222 2.396,1.361l4.453,0.927l0.061,0.061l-0,0.438c-0,0.668 -0.523,1.405 -1.575,2.216c-0.658,0.967 -0.988,1.687 -0.988,2.148c0,0.445 0.201,0.876 0.594,1.286c0.272,-0.583 1.263,-1.663 2.97,-3.241l1.788,-2.633l0,-0.367l0.075,-0.271l0.136,-0c-0,0.302 0.505,1.167 1.513,2.589c0.72,0.709 1.487,1.062 2.305,1.062l0.078,0c1.534,0 3.305,-0.851 5.314,-2.558c0.506,-0.628 0.896,-1.063 1.168,-1.304l0.047,0l-0.047,1.785l-0,1.409c-0,2.084 0.729,4.242 2.182,6.485c0.899,1.921 1.351,3.475 1.351,4.667c-0,0.838 -0.377,2.256 -1.124,4.259c-0.173,0.675 -0.261,1.245 -0.271,1.71c-0,0.74 0.159,1.107 0.485,1.107l0.818,0.152c0.645,0 1.117,-0.509 1.408,-1.53l0,-0.211l-0.288,-1.35l-0,-0.058l0.139,-0.126l0.105,0c0.584,0 0.984,0.791 1.195,2.369l-0,0.088c-0,0.414 -0.346,1.283 -1.045,2.607c1.486,-0 2.45,0.77 2.894,2.318c0.045,0.163 0.034,0.288 0.065,0.441l-0.003,-0.38l0.074,-0.272c0.445,0.282 0.855,0.424 1.229,0.424l0.074,0c0.557,0 0.917,-0.122 1.076,-0.366l0,-0.017c-0.685,-0.251 -1.133,-0.76 -1.334,-1.527c-0.302,-0.536 -0.454,-0.981 -0.454,-1.334l-0,-0.03c-0,-1.063 0.845,-2.016 2.531,-2.865l0.028,0l-0,0.122c-0.676,0.367 -1.012,1.188 -1.012,2.471c0,0.482 0.163,0.798 0.499,0.937c0.323,0.285 0.625,0.424 0.91,0.424c1.483,-0 2.973,-1.466 4.469,-4.409c0.292,-1.018 0.438,-1.645 0.438,-1.876c-1.717,-1.911 -3.119,-3.377 -4.212,-4.395c-1.028,-1.062 -1.73,-1.592 -2.104,-1.592l-0.108,0c-0.496,0 -0.822,0.19 -0.985,0.56c0,0.102 0.408,0.489 1.229,1.154c0.19,0.292 0.288,0.635 0.288,1.032l0,0.027c-0.112,0.648 -0.475,0.97 -1.092,0.97l-0.35,-0.044l0,-0.105l0.227,-0.349c0,-0.598 -0.118,-0.961 -0.363,-1.093c-0.93,-0.353 -1.391,-0.91 -1.391,-1.663l-0,-0.078c0.241,-2.372 1.038,-3.564 2.393,-3.564l1.316,0.306c0.224,-0.92 1.137,-1.87 2.746,-2.851l1.028,-0.254c1.829,0.363 2.742,1.286 2.742,2.769c0,0.879 -0.363,1.466 -1.089,1.761l-0.455,0.105c-0.434,0 -0.879,-0.132 -1.334,-0.393l0,-0.048c0,-0.047 0.207,-0.125 0.621,-0.227c0.102,-0.061 0.153,-0.272 0.153,-0.635l0.044,0c-0.102,-0.709 -0.329,-1.062 -0.682,-1.062l-0.288,-0.031c-0.676,0 -1.12,0.265 -1.334,0.791c-0.112,0.2 -0.166,0.424 -0.166,0.665l0.108,0.652l0.272,-0c0.695,1.262 2.236,3.085 4.622,5.471l0.18,-0c0.203,-0 0.485,-0.482 0.848,-1.439c2.04,-2.447 3.061,-4.273 3.061,-5.485l0.062,-0.59c-0,-1.052 -0.489,-1.755 -1.47,-2.108l-0.879,-0.122l0,-0.044c0,-0.315 0.645,-0.55 1.941,-0.713c0.706,0 1.456,0.635 2.257,1.908c0,0.122 0.105,0.234 0.316,0.332l0.091,-1.483l0,-0.41c0,-1.545 -0.529,-2.546 -1.591,-2.997l-0.106,-0.153l0,-0.047l0.106,-0.105c1.211,-0 1.992,0.179 2.335,0.529c1.052,0.882 1.574,2.274 1.574,4.181l-0.061,0.655l0.061,0c0.496,-0.173 0.991,-0.295 1.487,-0.367c1.564,0 2.545,1.154 2.939,3.455Zm19.878,8.594c-0.061,0.149 -0.339,0.434 -0.835,0.848c0.163,0.204 0.279,0.55 0.35,1.046c-0,0.875 -0.509,1.615 -1.531,2.212l-0.516,-0.064c0.316,-0.574 0.472,-1.011 0.472,-1.314l0,-0.047c0,-0.445 -0.322,-0.706 -0.97,-0.787l-0.136,-0c-1.12,-0 -2.797,1.398 -5.03,4.194c-0.373,0.469 -0.916,0.944 -1.622,1.443l-0.377,-0l-0.091,-0.095l0.074,-0.255c0,-1.425 -1.014,-2.864 -3.044,-4.317c-1.123,-0.709 -2.162,-1.062 -3.122,-1.062c-0.618,-0 -0.974,0.156 -1.076,0.468c-0.132,0.404 -0.197,0.733 -0.197,0.988l0,0.088c0,0.397 0.489,0.703 1.47,0.927l0.699,-0.048l0.119,0.078c-0.496,0.513 -1.035,0.771 -1.622,0.771c-0.917,-0 -1.585,-0.472 -1.999,-1.409l-0.136,-0.726c0.03,-0.414 0.156,-1.011 0.38,-1.789c-0.77,-0.261 -1.154,-0.726 -1.154,-1.394l0,-0.272c0.071,-0.465 0.329,-0.696 0.774,-0.696c0.22,0.577 0.668,0.859 1.347,0.859l2.803,-0.36l0.153,0c0.889,0 1.924,0.608 3.105,1.816c0.554,1.021 1.263,1.53 2.121,1.53c0.818,0 1.585,-0.291 2.305,-0.875c0.292,-0.435 0.438,-0.889 0.438,-1.368c-0,-1.249 -0.499,-2.297 -1.5,-3.136c-1.545,-0.566 -2.777,-0.848 -3.696,-0.848l-0.228,-0c-0.767,-0 -1.153,0.254 -1.153,0.76l0.288,0.91l-0.061,-0c-0.859,-0.445 -1.381,-0.669 -1.575,-0.669l-0.18,-0.044c-0.305,0.02 -0.665,0.17 -1.079,0.451l-0.088,0l0.088,-0.648l0,-0.21c-0.088,-0.984 -0.529,-1.473 -1.317,-1.473l-0.515,-0.088l-0,-0.061c-0,-0.065 0.234,-0.15 0.699,-0.258c0.614,-0.476 0.923,-1.164 0.923,-2.064l-0,-0.512c-0,-1.103 -0.292,-2.07 -0.879,-2.909l-0.455,0c-0.455,0.241 -0.74,0.438 -0.862,0.587l-0,0.289l0.122,0.638l-0.17,-0c-0.363,-0.282 -0.543,-0.743 -0.543,-1.378c0,-0.889 0.727,-1.592 2.183,-2.107l-0.092,-0.774c0.058,-0.486 0.292,-0.726 0.696,-0.726l0.393,0.061c0.153,-0.706 0.744,-1.063 1.775,-1.063l0.346,0c0.357,0.041 0.53,0.112 0.53,0.214c-0.02,0.058 -0.275,0.146 -0.77,0.258c-0.465,0.312 -0.7,0.686 -0.7,1.12c0.174,0.665 0.391,1.001 0.652,1.001c1.395,0 2.637,-0.682 3.73,-2.046c0.393,-0.604 0.59,-1.09 0.59,-1.453l-0.03,-0.183l0.061,0c0.332,0.271 0.96,1.188 1.88,2.742c0.757,0.991 1.476,1.483 2.165,1.483c1.31,-0.251 1.968,-0.675 1.968,-1.272l-0.118,-1.317c0.037,-0.302 0.098,-0.452 0.18,-0.452c0.716,0.462 1.075,1.209 1.075,2.24c0,1.191 -0.539,2.07 -1.622,2.637c-0.332,0.109 -0.706,0.187 -1.12,0.224l-1.014,-0.105l-0.048,0.17c0,0.495 0.285,0.913 0.848,1.255l1.609,-0.319l0.092,0l0.118,0.092c0,0.624 -0.621,1.164 -1.863,1.605l-0.804,0.078c-1.463,0 -2.474,-1.188 -3.027,-3.56c-0.234,-0.363 -0.676,-0.546 -1.32,-0.546c-0.808,0.926 -1.212,1.873 -1.212,2.834c0,1.221 0.53,2.026 1.592,2.409l0.879,0.136l0.468,-0c1.13,-0 2.854,-0.451 5.169,-1.351c-0.689,1.398 -1.046,2.593 -1.079,3.594c-0,1.544 0.895,2.488 2.684,2.831c0.757,-0 1.137,-0.306 1.137,-0.92c0.129,-0.278 0.217,-0.414 0.254,-0.414c0.285,-0 0.543,0.634 0.774,1.897Zm13.925,-15.988c1.313,0 2.246,0.723 2.803,2.169l0.061,0.587l-0,0.353c-0,1.191 -0.57,2.05 -1.714,2.576c-0.261,0.108 -0.58,0.166 -0.954,0.166l-0.091,-0c-0.543,-0 -0.998,-0.136 -1.364,-0.407l-0,-0.031c-0,-0.064 0.254,-0.143 0.76,-0.248c0.638,-0.461 0.953,-1.021 0.953,-1.68c-0.179,-0.655 -0.519,-0.984 -1.014,-0.984l-0.302,-0.044c-0.859,0 -2.176,0.757 -3.941,2.274c-0.264,0.241 -0.393,0.886 -0.393,1.938l-0.228,3.621l0.058,3.696l-0.105,2.182c-0,0.594 0.092,0.892 0.275,0.892l0.288,0.078c0.767,-1.656 1.962,-2.874 3.591,-3.651c0.363,-0.102 0.662,-0.15 0.892,-0.15c1.232,0 2.03,1.175 2.396,3.53l0,0.648c0,1.011 -0.359,1.707 -1.075,2.091c-0.306,0.254 -0.584,0.383 -0.835,0.383c-0.849,-0.468 -1.273,-0.943 -1.273,-1.425l0.031,-0.048l0.485,0.105c0.665,0 0.998,-0.386 0.998,-1.164c-0,-0.821 -0.289,-1.228 -0.862,-1.228l-0.363,-0.061c-1.114,-0 -1.853,0.855 -2.23,2.562c-0,1.554 -0.211,2.332 -0.635,2.332c-1.374,0.546 -2.162,1.252 -2.362,2.121c-0.153,0.93 -0.271,1.394 -0.349,1.394l-0.835,-1.181l-1.758,-1.32c-0.625,-0.475 -0.94,-1.262 -0.94,-2.362l-0,-0.607l-0.499,0.061c-1.958,-0 -3.146,-0.57 -3.56,-1.711l-0.119,-0.668c0.027,-0.414 0.098,-0.621 0.21,-0.621l0.089,-0c0.516,0.465 1.062,0.699 1.639,0.699c1.232,-0 2.043,-0.533 2.44,-1.592c0.373,-1.232 0.56,-3.044 0.56,-5.443c-0,-3.825 -0.166,-5.739 -0.499,-5.739l-0.261,-0.306c-1.069,0 -1.697,0.435 -1.877,1.307l0,0.21c0,0.343 0.122,0.91 0.363,1.697l-0.061,0.044c-1.14,-0.281 -1.71,-0.78 -1.71,-1.496l-0,-0.384c-0,-0.533 0.22,-1.204 0.665,-2.012c-0,-0.112 -0.197,-0.207 -0.591,-0.289c-0.393,-0.342 -0.59,-0.814 -0.59,-1.408c-0,-0.465 0.173,-1.293 0.516,-2.484l0.074,-0c0.072,-0 0.105,0.054 0.105,0.166l-0.105,0.512l0,0.35c0,0.787 0.652,1.442 1.955,1.955l0.438,0.047l0.197,0c0.424,0 0.75,-0.105 0.97,-0.319l-0.088,-3.577l0.363,-3.787c-0.546,-1.273 -1.313,-1.907 -2.304,-1.907c-0.526,0.078 -1.062,0.21 -1.605,0.393l-0.078,-0.03l-0,-0.048c0.332,-0.981 1.062,-1.469 2.182,-1.469l0.108,-0c1.344,-0 2.328,0.478 2.953,1.442c0.302,0.614 0.556,0.974 0.757,1.073l-0,-0.455c-0,-0.774 -0.251,-1.483 -0.757,-2.121l-0,-0.044l0.258,-0.275c0.614,0.173 1.13,0.502 1.544,0.987c0.214,0.384 0.353,0.93 0.424,1.636l0.153,0.166c0.679,-0.95 1.31,-1.422 1.894,-1.422l0.336,0c0.767,0.241 1.15,0.754 1.15,1.528l0,0.122c0,0.79 -0.288,1.395 -0.865,1.819l-0.652,0.061l-0.105,-0.153c0.312,-0.214 0.472,-0.482 0.472,-0.801c-0,-0.455 -0.296,-0.706 -0.883,-0.76c-0.767,0.295 -1.15,0.774 -1.15,1.442c-0,0.492 0.556,0.832 1.666,1.015l0.031,0.058l-0,0.122c-0.961,0.767 -1.439,1.659 -1.439,2.667c-0.143,0.679 -0.211,1.154 -0.211,1.439l0,0.15c0,0.173 0.034,0.258 0.105,0.258c1.585,-0 2.875,-0.733 3.863,-2.21c0.203,-1.021 0.329,-1.53 0.38,-1.53c0.332,0.261 0.498,0.638 0.498,1.137l0,0.482l-0.074,0.974l0.757,-0.065Zm16.667,17.579c0.859,-0 1.405,0.57 1.636,1.71l0.047,0.394c0,1.164 -0.461,1.985 -1.381,2.47l-0.333,0.075l-0.061,-0.048l0,-0.088c0.455,-0.434 0.682,-0.797 0.682,-1.089c-0.061,-0.475 -0.298,-0.713 -0.712,-0.713c-0.716,0 -1.517,0.937 -2.41,2.817c0,0.265 -0.044,0.394 -0.136,0.394l-0.044,-0c-0.658,-0.567 -1.462,-0.849 -2.426,-0.849l-0.044,0c-0.767,0 -1.297,0.319 -1.592,0.954l-0.105,0.56c-0,0.275 0.163,0.906 0.485,1.897l-0.061,0.061l-0.03,-0c-1.243,-1.283 -1.864,-3.102 -1.864,-5.457l0,-0.407c0,-0.404 0.177,-1.908 0.53,-4.517l-0,-0.469c-0,-1.578 -0.357,-2.474 -1.076,-2.698c-0.451,-0.153 -0.686,-0.268 -0.696,-0.346l0,-0.095c0.961,0 1.572,-0.791 1.833,-2.376l0.122,-1.259c-0.122,-1.968 -0.299,-2.952 -0.529,-2.952c-0.618,-0.275 -1.083,-0.645 -1.395,-1.124l-0,-0.044c0.061,-0.112 0.312,-0.237 0.757,-0.38c0.868,-0.553 1.795,-1.459 2.772,-2.711c-0.271,-0.645 -0.78,-1.599 -1.53,-2.865l-0.197,-0.587c1.405,-1.659 2.107,-2.545 2.107,-2.671l0.089,0c1.164,1.487 1.778,2.546 1.849,3.184c-0.414,0.526 -1.048,1.51 -1.907,2.956c0.292,1.486 0.808,2.62 1.544,3.407c0.899,0.495 1.354,0.78 1.364,0.865l0,0.224l-0.695,2.61c-0.224,0.967 -0.336,1.775 -0.336,2.423l-0,0.547c-0,0.946 0.264,1.476 0.787,1.591c0.516,0.058 0.774,0.136 0.774,0.224c-0.072,0.234 -0.479,0.516 -1.225,0.849c-0.326,0.495 -0.486,1.568 -0.486,3.214c0.061,1.968 0.268,2.952 0.621,2.952l0.106,0.078c0.977,-0.736 1.469,-1.792 1.469,-3.166c0,-0.245 -0.095,-0.604 -0.288,-1.093l0.078,-0.031l0.088,0c0.485,0 0.794,0.421 0.926,1.26l0.044,0.38l0.32,-0.061l0.529,-0Zm15.394,-1.866c0.747,-0 1.124,0.298 1.124,0.896l-0,0.376l-0.123,0.092c-0.183,-0.241 -0.448,-0.363 -0.804,-0.363c-0.302,0.173 -0.455,0.292 -0.455,0.363l-0.091,1.032l0.152,2.664c0,0.923 -0.21,1.666 -0.634,2.243l-0.031,-0l-0.122,-0.075c0.204,-0.281 0.302,-0.522 0.302,-0.726c0,-0.859 -0.692,-1.578 -2.073,-2.155c-0.245,-0.078 -0.537,-0.136 -0.879,-0.166c-1.175,-0 -1.993,0.648 -2.454,1.941l0.058,0.77c-0,0.112 -0.055,0.204 -0.167,0.275c-0.061,0 -0.105,-0.264 -0.135,-0.787c-0.262,-0.838 -0.832,-1.514 -1.714,-2.033c-0.696,-0.312 -1.263,-0.465 -1.697,-0.465l-0.211,0c-1.031,0.129 -1.547,0.597 -1.547,1.409c-0,0.308 0.197,0.675 0.594,1.089l-0.788,0.075c-0.991,-0 -1.486,-0.489 -1.486,-1.47c-0,-0.312 0.064,-0.787 0.197,-1.422c-0.445,0 -0.818,-0.366 -1.12,-1.089l-0.061,-0.458c-0,-0.649 0.292,-1.209 0.879,-1.68l0.197,-0.048c0.081,1.123 0.261,1.683 0.546,1.683c0.058,0.129 0.166,0.221 0.316,0.272l0.485,-0.031c-0.506,-0.98 -0.757,-1.958 -0.757,-2.939c0,-0.906 -0.265,-1.54 -0.787,-1.893c-0.74,-0.445 -1.259,-0.852 -1.561,-1.229l-0,-0.058c-0,-0.05 0.387,-0.115 1.167,-0.183c0.584,-0.271 0.978,-0.621 1.181,-1.048c0.424,-1.046 0.635,-2.067 0.635,-3.058l-0,-0.183c-0,-0.727 -0.197,-1.212 -0.591,-1.453c-0.312,0 -0.59,0.221 -0.831,0.665c-0,0.173 0.19,0.584 0.573,1.229c-0.129,0.081 -0.353,0.119 -0.665,0.119c-0.706,-0 -1.116,-0.309 -1.228,-0.924l-0.045,-0.149c0,-0.933 0.594,-1.598 1.789,-2.002l-0.621,-1.073l-0.048,-0.563c0,-0.848 0.567,-1.646 1.697,-2.393l0.048,0.045c-0.143,0.291 -0.214,0.56 -0.214,0.804l0,0.18c0,0.597 0.462,0.96 1.381,1.093l0.289,0.027c0.824,-0 1.629,-0.336 2.406,-1.012l1.032,-1.775l0.332,-0.241l0.031,0.045l-0,0.424c-0,0.343 0.458,0.811 1.378,1.395c0.848,0.726 1.5,1.422 1.954,2.077c0.486,0.39 1.032,0.59 1.64,0.59c0.359,0 1.048,-0.346 2.056,-1.032l0.065,0c0.271,0.404 0.407,0.778 0.407,1.12l-0,0.153c-0,0.77 -0.828,1.626 -2.484,2.576c-0.801,0.567 -1.198,1.127 -1.198,1.683c-0,0.676 0.227,1.015 0.682,1.015l0.136,-0c0.21,-0 0.434,-0.071 0.668,-0.214c0.068,0 0.105,0.048 0.105,0.136c0,0.618 -0.421,1.072 -1.259,1.368l-0.376,0.057l-0.411,0c-1.079,0 -1.829,-0.631 -2.243,-1.893l-0.136,-0.788l-0,-0.197l0.638,-2.728l-0,-0.363c-0,-0.818 -0.475,-1.229 -1.425,-1.229c-0.516,0.316 -0.913,1.178 -1.198,2.593c-0.696,2.179 -1.046,3.882 -1.046,5.107l0,0.438c0,2.474 0.492,4.334 1.47,5.576l0.38,0.241l0.166,0c0.655,0 1.969,-1.184 3.94,-3.556c0.557,-0.499 1.141,-0.744 1.758,-0.744c0.615,0 1.137,0.265 1.561,0.801l0,0.092l-0.848,-0.149c-0.679,-0 -1.147,0.553 -1.408,1.662l-0,0.411l0.044,0c0.071,0 0.237,-0.176 0.499,-0.529c0.234,-0.184 0.57,-0.292 1.014,-0.336Zm32.214,-14.271l0.394,0.044l1.29,-0l-0,0.074c-0,0.055 -0.255,0.194 -0.761,0.425c-0.746,0.516 -1.12,1.34 -1.12,2.47c0,1.212 -0.896,2.067 -2.684,2.563c-0,0.22 0.217,0.376 0.655,0.468c0.777,0.516 1.167,1.099 1.167,1.758l0,0.153c0,0.543 -0.234,1.058 -0.699,1.544l-0.061,-0c-0.071,-0.021 -0.261,-0.496 -0.577,-1.426c-0.502,-0.909 -1.232,-1.361 -2.182,-1.361l-0.757,0.058c-0.434,0 -1.038,-0.539 -1.815,-1.619c-0.377,-0.678 -0.662,-1.561 -0.866,-2.654c0.133,-0.037 0.197,-0.135 0.197,-0.288l0,-0.288c-0.343,-1.229 -0.947,-1.847 -1.819,-1.847l-0.346,0c-0.981,0 -1.887,0.601 -2.715,1.806c-0.302,0.665 -0.451,1.534 -0.451,2.603l-0,0.244c-0,1.626 0.417,2.63 1.255,3.014l0.502,0.108c0.717,0 1.575,-0.505 2.573,-1.517l0.136,0.15c-0.17,0.478 -0.255,0.865 -0.255,1.167l0,0.245c0,1.052 0.998,1.795 3,2.239c0.614,0.173 1.493,0.56 2.634,1.168c0.95,0.655 1.425,1.347 1.425,2.063l0,0.163c0,0.306 -0.156,0.543 -0.468,0.713l-0.092,-0c-0.2,-0.828 -0.499,-1.242 -0.892,-1.242c-0.204,-0 -0.353,0.112 -0.455,0.336l-0,0.088c-0,0.193 0.366,1.011 1.103,2.457c0.163,0.587 0.244,1.157 0.244,1.714l0,0.088l-0.105,1.697c-0,0.848 0.764,1.575 2.287,2.182l0,0.149l-0.546,0c-1.201,0 -2.114,0.649 -2.742,1.942c-0.129,0.295 -0.197,0.6 -0.197,0.923l-0,0.166l-0.044,0.064l0.044,0.041l-0,0.214c-0,0.485 0.163,0.787 0.485,0.91l0.122,-0c0.818,-0 1.371,-0.357 1.667,-1.076l0.105,-0l0.166,0.105l0,0.105c0,1.093 -0.6,1.901 -1.802,2.427l-0.332,0.044c-0.832,-0.061 -1.752,-0.509 -2.76,-1.348c-0.393,-0.563 -0.59,-1.082 -0.59,-1.547c-0,-0.241 0.166,-0.618 0.499,-1.137l-0.679,0l-0.804,-0.075l-0.109,0c-0.808,0 -1.574,0.608 -2.301,1.819l-0.305,0.136l-0.452,-0.937c-0.858,-1.089 -1.819,-1.639 -2.881,-1.639l-0.197,0c-1.625,0.282 -2.572,0.425 -2.847,0.425l-0.363,-0c-0.669,-0.079 -1.001,-0.194 -1.001,-0.347c0.848,-0.444 1.272,-0.899 1.272,-1.364c-0.414,-0.797 -0.621,-1.826 -0.621,-3.078c-0.139,-0.655 -0.346,-1.11 -0.621,-1.361c-0.424,-0.282 -0.774,-0.424 -1.045,-0.424l-0.061,-0c-0.363,-0 -0.652,0.173 -0.862,0.512c-0,0.316 0.271,0.679 0.818,1.093l-0,0.18l-0.577,0.109l-0.438,-0c-0.506,-0.435 -0.757,-0.893 -0.757,-1.382l0,-0.193c0,-0.73 0.604,-1.358 1.816,-1.88c0.343,-0.102 0.628,-0.153 0.848,-0.153c0.676,0 1.242,0.35 1.697,1.049l0.153,-0l-0,-0.095c-0.455,-1.049 -1.011,-1.575 -1.666,-1.575l-0.669,0.061l-0.149,-0.061l-0,-0.092c0.353,-0.607 0.94,-0.906 1.754,-0.906l0.262,0c1.109,0 2.063,0.367 2.86,1.107c0.316,0.414 0.632,1.119 0.958,2.121l0.936,-0c0.811,-0 1.392,0.156 1.745,0.468l-0,0.061c-0,0.051 -0.442,0.272 -1.321,0.665c-0.434,0.312 -0.651,0.672 -0.651,1.079c-0,0.859 0.556,1.436 1.67,1.738l0.179,0c0.716,0 1.507,-0.438 2.366,-1.313c0.472,-0.598 0.713,-1.273 0.713,-2.033l-0,-0.088c-0,-1.012 -0.37,-1.881 -1.11,-2.61c-0.323,-0.282 -0.978,-0.53 -1.969,-0.743c-0.648,-0 -1.737,-0.272 -3.271,-0.818c-0.587,-0.272 -1.178,-0.737 -1.772,-1.392c-0.407,-0.719 -0.607,-1.194 -0.607,-1.425l-0.258,-0c-1.154,-0 -1.728,0.431 -1.728,1.29l-0.454,0.088l-0.061,-0.031l0.061,-0.451c-0,-0.771 -0.93,-1.829 -2.79,-3.183l-0.254,-0.045l-1.382,-0.047l0,-0.092c1.656,-0.21 2.485,-0.424 2.485,-0.634c0.536,-0.394 1.099,-1.039 1.683,-1.925l0.258,-0.244l0.091,0.109l0,1.075c0.17,0.221 0.475,0.333 0.91,0.333c0.271,0 0.407,-0.238 0.407,-0.713l-0.407,-1.53l0.258,-1.365c-0.828,0.357 -1.402,0.53 -1.714,0.53c-1.062,-0 -2.009,-0.614 -2.851,-1.85l-0.21,-0.648l0.047,-0.047l0.058,-0c0.275,0.346 0.563,0.515 0.865,0.515l0.153,0c0.553,0 1.181,-0.281 1.877,-0.848l-0,-0.149c-0.777,-0.53 -1.164,-1.134 -1.164,-1.819c-0,-1.215 0.794,-2.203 2.392,-2.97c0.435,-0.125 0.767,-0.183 1.002,-0.183l0.061,0.058l-0,0.064c-0.669,0.628 -1.001,1.171 -1.001,1.632c-0,0.642 0.604,1.161 1.815,1.562l0.245,0.033c1.333,0 3.176,-1.221 5.528,-3.668l0.064,0.047l0.058,0l-0.058,0.455l0,0.577c0,1.242 0.978,2.036 2.936,2.393l2.335,-0.397l0.153,0.03l-0,0.048l-0.197,1.154c-0,0.977 0.427,1.781 1.286,2.406l0.743,0.18c0.747,-0 1.12,-0.438 1.12,-1.314l0,-0.288c0,-0.669 -0.332,-1.263 -1.001,-1.792l-0.709,0.095l-0.061,-0.065l-0,-0.057l0.651,-0.652l1.059,0.333c0,-0.608 0.309,-1.263 0.927,-1.969c0.22,-0.183 0.407,-0.275 0.559,-0.275l0,0.034c-0.373,0.523 -0.559,1.12 -0.559,1.785c0.081,1.494 0.417,2.244 1.014,2.244Zm18.816,8.803c0.313,1.351 0.852,2.029 1.623,2.029c0.566,0.133 0.848,0.258 0.848,0.381c0,0.577 -0.57,1.052 -1.714,1.439c-0.594,0.322 -0.892,0.963 -0.892,1.924l-0,1.513c-0,1.728 -0.414,2.827 -1.242,3.306c-0.445,0.349 -0.92,0.529 -1.426,0.529l-0.136,0l-1.469,-0.034c-1.212,0.71 -1.819,1.494 -1.819,2.352l-0,0.289l-0.075,-0c-0.607,-1.042 -1.113,-1.745 -1.517,-2.108c-0.261,-0.17 -0.485,-0.258 -0.665,-0.258l-1.106,0c-1.667,0 -2.77,-0.58 -3.302,-1.741c-0.275,-0.577 -0.533,-2.138 -0.774,-4.683c-0,-0.322 -0.339,-0.608 -1.015,-0.849c-0.495,-0.373 -0.743,-0.787 -0.743,-1.242c1.11,-0.261 1.666,-0.515 1.666,-0.756c0.112,-0 0.194,-0.638 0.245,-1.908c0.441,-1.001 0.665,-1.571 0.665,-1.714l-0,-0.152c-0,-0.282 -0.153,-0.424 -0.455,-0.424c-0.414,0.736 -0.645,1.113 -0.696,1.123l-0.122,-0c-0.373,-0 -0.641,-0.35 -0.801,-1.049l0,-0.424c0,-0.597 0.621,-1.008 1.86,-1.242c0.244,-0.02 0.366,-0.065 0.366,-0.136c-0.173,-0.655 -0.257,-1.099 -0.257,-1.334l-0,-0.424c-0,-0.451 0.407,-0.858 1.225,-1.211c0.112,0.03 0.169,0.074 0.169,0.135c-0.264,0.221 -0.393,0.425 -0.393,0.608c-0,0.665 0.784,1.249 2.362,1.741l0.407,-0c1.062,-0 2.057,-0.883 2.986,-2.651l0.123,0c0.068,0.01 0.258,0.404 0.56,1.181c0.112,0.224 0.515,0.411 1.211,0.564c0.292,0.03 0.764,0.234 1.409,0.617l0.183,0c0.414,0 0.685,-0.404 0.818,-1.211c-0,-0.849 -0.333,-1.514 -1.001,-1.999l-0.167,-0.075c0,0.818 -0.319,1.225 -0.953,1.225c-0.598,-0.353 -0.893,-0.858 -0.893,-1.513l0,-0.122c0.092,-0.747 0.387,-1.124 0.893,-1.124c1.069,0 1.999,0.635 2.789,1.897c0.302,0.533 0.452,1.103 0.452,1.711c-0,0.729 -0.201,1.337 -0.604,1.819l0.787,1.439c0.092,1.707 0.288,2.562 0.59,2.562Zm-4.666,0.394l0,-0.211c0,-1.347 -0.472,-2.562 -1.408,-3.655c-0.357,-0.21 -0.611,-0.315 -0.774,-0.315c-0.818,0.322 -1.225,0.665 -1.225,1.028c-0,0.821 0.285,1.833 0.862,3.048l1.334,1.194l0.074,0c0.757,0 1.137,-0.363 1.137,-1.089Zm-0.455,9.092c0.306,-1.083 0.455,-2.39 0.455,-3.927l-0.149,-2.606l-0.245,-0c-0.627,0.264 -1.187,0.393 -1.683,0.393l-0.18,0c-0.495,0 -1.116,-0.088 -1.863,-0.271c-0.132,0.556 -0.197,0.97 -0.197,1.242l0.394,4.683c0.251,1.039 0.787,1.558 1.605,1.558l0.061,-0c0.998,-0 1.602,-0.356 1.802,-1.072Zm22.259,-4.018c0.747,-0 1.123,0.298 1.123,0.896l0,0.376l-0.122,0.092c-0.183,-0.241 -0.448,-0.363 -0.804,-0.363c-0.302,0.173 -0.455,0.292 -0.455,0.363l-0.091,1.032l0.152,2.664c0,0.923 -0.21,1.666 -0.634,2.243l-0.031,-0l-0.122,-0.075c0.204,-0.281 0.302,-0.522 0.302,-0.726c-0,-0.859 -0.692,-1.578 -2.074,-2.155c-0.244,-0.078 -0.536,-0.136 -0.879,-0.166c-1.174,-0 -1.992,0.648 -2.453,1.941l0.057,0.77c0,0.112 -0.054,0.204 -0.166,0.275c-0.061,0 -0.105,-0.264 -0.136,-0.787c-0.261,-0.838 -0.831,-1.514 -1.713,-2.033c-0.696,-0.312 -1.263,-0.465 -1.697,-0.465l-0.211,0c-1.031,0.129 -1.547,0.597 -1.547,1.409c-0,0.308 0.197,0.675 0.594,1.089l-0.788,0.075c-0.991,-0 -1.486,-0.489 -1.486,-1.47c-0,-0.312 0.064,-0.787 0.197,-1.422c-0.445,0 -0.818,-0.366 -1.12,-1.089l-0.061,-0.458c-0,-0.649 0.292,-1.209 0.879,-1.68l0.196,-0.048c0.082,1.123 0.262,1.683 0.547,1.683c0.058,0.129 0.166,0.221 0.316,0.272l0.485,-0.031c-0.506,-0.98 -0.757,-1.958 -0.757,-2.939c0,-0.906 -0.265,-1.54 -0.787,-1.893c-0.74,-0.445 -1.259,-0.852 -1.561,-1.229l-0,-0.058c-0,-0.05 0.386,-0.115 1.167,-0.183c0.584,-0.271 0.977,-0.621 1.181,-1.048c0.424,-1.046 0.635,-2.067 0.635,-3.058l-0,-0.183c-0,-0.727 -0.197,-1.212 -0.591,-1.453c-0.312,0 -0.59,0.221 -0.831,0.665c-0,0.173 0.19,0.584 0.573,1.229c-0.129,0.081 -0.353,0.119 -0.665,0.119c-0.706,-0 -1.117,-0.309 -1.229,-0.924l-0.044,-0.149c0,-0.933 0.594,-1.598 1.789,-2.002l-0.621,-1.073l-0.048,-0.563c0,-0.848 0.567,-1.646 1.697,-2.393l0.048,0.045c-0.143,0.291 -0.214,0.56 -0.214,0.804l-0,0.18c-0,0.597 0.461,0.96 1.381,1.093l0.289,0.027c0.824,-0 1.629,-0.336 2.406,-1.012l1.031,-1.775l0.333,-0.241l0.031,0.045l-0,0.424c-0,0.343 0.458,0.811 1.377,1.395c0.849,0.726 1.5,1.422 1.955,2.077c0.486,0.39 1.032,0.59 1.639,0.59c0.36,0 1.049,-0.346 2.057,-1.032l0.064,0c0.272,0.404 0.408,0.778 0.408,1.12l-0,0.153c-0,0.77 -0.828,1.626 -2.484,2.576c-0.801,0.567 -1.198,1.127 -1.198,1.683c-0,0.676 0.227,1.015 0.682,1.015l0.135,-0c0.211,-0 0.435,-0.071 0.669,-0.214c0.068,0 0.105,0.048 0.105,0.136c0,0.618 -0.421,1.072 -1.259,1.368l-0.377,0.057l-0.41,0c-1.079,0 -1.829,-0.631 -2.243,-1.893l-0.136,-0.788l-0,-0.197l0.638,-2.728l-0,-0.363c-0,-0.818 -0.475,-1.229 -1.426,-1.229c-0.515,0.316 -0.912,1.178 -1.198,2.593c-0.695,2.179 -1.045,3.882 -1.045,5.107l0,0.438c0,2.474 0.492,4.334 1.47,5.576l0.38,0.241l0.166,0c0.655,0 1.968,-1.184 3.94,-3.556c0.557,-0.499 1.14,-0.744 1.758,-0.744c0.614,0 1.137,0.265 1.561,0.801l0,0.092l-0.848,-0.149c-0.679,-0 -1.147,0.553 -1.409,1.662l0,0.411l0.045,0c0.071,0 0.237,-0.176 0.498,-0.529c0.235,-0.184 0.571,-0.292 1.015,-0.336Zm14.561,1.866c0.859,-0 1.405,0.57 1.636,1.71l0.047,0.394c0,1.164 -0.461,1.985 -1.381,2.47l-0.333,0.075l-0.061,-0.048l0,-0.088c0.455,-0.434 0.682,-0.797 0.682,-1.089c-0.061,-0.475 -0.298,-0.713 -0.712,-0.713c-0.716,0 -1.517,0.937 -2.41,2.817c0,0.265 -0.044,0.394 -0.136,0.394l-0.044,-0c-0.658,-0.567 -1.462,-0.849 -2.426,-0.849l-0.044,0c-0.767,0 -1.297,0.319 -1.592,0.954l-0.105,0.56c-0,0.275 0.163,0.906 0.485,1.897l-0.061,0.061l-0.03,-0c-1.243,-1.283 -1.864,-3.102 -1.864,-5.457l0,-0.407c0,-0.404 0.177,-1.908 0.53,-4.517l-0,-0.469c-0,-1.578 -0.357,-2.474 -1.076,-2.698c-0.451,-0.153 -0.686,-0.268 -0.696,-0.346l0,-0.095c0.961,0 1.572,-0.791 1.833,-2.376l0.122,-1.259c-0.122,-1.968 -0.299,-2.952 -0.529,-2.952c-0.618,-0.275 -1.083,-0.645 -1.395,-1.124l-0,-0.044c0.061,-0.112 0.312,-0.237 0.757,-0.38c0.868,-0.553 1.795,-1.459 2.772,-2.711c-0.271,-0.645 -0.78,-1.599 -1.53,-2.865l-0.197,-0.587c1.405,-1.659 2.107,-2.545 2.107,-2.671l0.089,0c1.164,1.487 1.778,2.546 1.849,3.184c-0.414,0.526 -1.048,1.51 -1.907,2.956c0.292,1.486 0.808,2.62 1.544,3.407c0.899,0.495 1.354,0.78 1.364,0.865l0,0.224l-0.695,2.61c-0.224,0.967 -0.336,1.775 -0.336,2.423l-0,0.547c-0,0.946 0.264,1.476 0.787,1.591c0.516,0.058 0.774,0.136 0.774,0.224c-0.072,0.234 -0.479,0.516 -1.225,0.849c-0.326,0.495 -0.486,1.568 -0.486,3.214c0.061,1.968 0.268,2.952 0.621,2.952l0.106,0.078c0.977,-0.736 1.469,-1.792 1.469,-3.166c0,-0.245 -0.095,-0.604 -0.288,-1.093l0.078,-0.031l0.088,0c0.485,0 0.794,0.421 0.926,1.26l0.044,0.38l0.32,-0.061l0.529,-0Zm13.24,-7.2l-0.197,0.135l0,0.096c0,0.21 0.326,0.665 0.971,1.36l0,0.061c-0.221,0.537 -0.584,0.971 -1.089,1.304c-0.404,0.292 -1.263,0.6 -2.576,0.923c-1.619,0.414 -2.423,1.157 -2.423,2.226c-0.153,0.394 -0.357,0.631 -0.608,0.699l-0.047,0.061l-0.031,0c-0.058,-0.108 -0.108,-0.407 -0.149,-0.896c-0.153,-0.078 -0.302,-0.118 -0.455,-0.118l-0.044,-0c-0.377,-0 -0.57,0.22 -0.594,0.665c0,0.76 0.4,1.408 1.198,1.958l0.333,0.105l0.213,0c0.184,0 0.506,-0.193 0.971,-0.577l0.027,-0.061l0.048,0.061l-0.048,0.424c0,0.241 0.275,0.479 0.821,0.713c0.554,0 1.059,-0.492 1.514,-1.473c0.577,-2.077 1.344,-3.377 2.304,-3.892c0.686,-0.506 1.45,-0.757 2.288,-0.757c0.414,-0 0.706,0.125 0.879,0.376l-0,0.109l-0.441,-0.061c-0.737,-0 -1.287,0.543 -1.65,1.636l0,0.424l0.058,0.244l0.913,0.041c0.292,0.295 0.438,0.557 0.438,0.777l-0.031,0.061l-0.047,0l-0.286,-0.061c-0.668,0 -1.123,0.621 -1.364,1.863l0,0.347c0,0.529 0.319,1.113 0.954,1.757l0.183,0.635c-0.041,0.136 -0.088,0.2 -0.136,0.2l-0.227,0c-0.255,0 -0.916,-0.2 -1.985,-0.59c-0.153,-0.051 -0.425,-0.075 -0.818,-0.075l-0.075,0c-0.93,0 -1.812,0.326 -2.637,0.984c-0.142,0.231 -0.214,0.445 -0.214,0.635l0,0.092l0.031,0.241l-0.031,0.047l-0.03,0c-0.112,-0.01 -0.258,-0.278 -0.438,-0.804c-0.316,-0.492 -0.835,-0.855 -1.561,-1.076c-1.738,-0.224 -2.854,-0.506 -3.35,-0.848c-0.648,-0.455 -1.099,-1.266 -1.364,-2.441c-0.302,-3.363 -0.74,-5.277 -1.317,-5.738c-0.061,-0.143 -0.298,-0.353 -0.712,-0.625l-0.045,-0.047l0,-0.119l0.302,0.03l0.486,0c0.434,-0.281 0.651,-0.963 0.651,-2.043c0.058,-0.285 0.207,-0.685 0.438,-1.198c-0.726,-0.305 -1.089,-0.814 -1.089,-1.53c0.03,-0.194 0.085,-0.289 0.166,-0.289c0.02,0.123 0.251,0.201 0.696,0.241l0.136,0c0.505,-0.088 0.76,-0.268 0.76,-0.529c-0.567,-0 -1.063,-0.519 -1.487,-1.561l-0.03,-0.472c-0,-0.261 0.085,-0.461 0.258,-0.601c0.403,0.574 0.97,0.859 1.697,0.859l0.074,-0c1.246,-0 2.576,-0.509 4.001,-1.531c0.638,-0.916 1.066,-1.459 1.29,-1.632l0.027,0c0.071,0.098 0.207,0.543 0.411,1.33c-0,0.184 0.488,0.462 1.469,0.835c1.032,0.384 2.053,1.117 3.061,2.196c0.455,0.536 0.683,1.327 0.683,2.365c-0,1.687 0.241,2.529 0.726,2.529l0.047,-0c0.462,-0 0.696,-0.272 0.696,-0.818c0.01,-0.292 0.044,-0.438 0.105,-0.438l0.122,0c0.374,0.302 0.56,0.641 0.56,1.015c0,0.746 -0.495,1.293 -1.483,1.639l-0.169,-0c-0.655,-0 -1.232,-0.465 -1.728,-1.398Zm-2.755,1.473l-0,-0.106c-0.727,-0.468 -1.09,-1.031 -1.09,-1.7l0,-0.302c0,-0.383 0.295,-1.48 0.893,-3.288l0.061,-0.53l-0,-0.105c-0,-0.726 -0.431,-1.239 -1.29,-1.534l-0.56,-0.088c-0.838,-0 -1.656,1.171 -2.453,3.512c-0.112,0.587 -0.167,1.222 -0.167,1.897l0.031,2.651l1.452,-0.76l0.228,-0.041c0.607,0.078 0.909,0.336 0.909,0.77l-0.516,-0.258c-0.414,0.143 -0.621,0.486 -0.621,1.032l0,0.136c0,0.271 0.296,0.41 0.879,0.41c0.991,0 1.738,-0.566 2.244,-1.696Zm21.925,-11.852c1.313,0 2.246,0.723 2.803,2.169l0.061,0.587l0,0.353c0,1.191 -0.57,2.05 -1.714,2.576c-0.261,0.108 -0.58,0.166 -0.953,0.166l-0.092,-0c-0.543,-0 -0.998,-0.136 -1.364,-0.407l-0,-0.031c-0,-0.064 0.254,-0.143 0.76,-0.248c0.638,-0.461 0.954,-1.021 0.954,-1.68c-0.18,-0.655 -0.52,-0.984 -1.015,-0.984l-0.302,-0.044c-0.859,0 -2.176,0.757 -3.94,2.274c-0.265,0.241 -0.394,0.886 -0.394,1.938l-0.227,3.621l0.057,3.696l-0.105,2.182c0,0.594 0.092,0.892 0.275,0.892l0.288,0.078c0.767,-1.656 1.962,-2.874 3.591,-3.651c0.363,-0.102 0.662,-0.15 0.893,-0.15c1.231,0 2.029,1.175 2.396,3.53l-0,0.648c-0,1.011 -0.36,1.707 -1.076,2.091c-0.306,0.254 -0.584,0.383 -0.835,0.383c-0.849,-0.468 -1.273,-0.943 -1.273,-1.425l0.031,-0.048l0.485,0.105c0.665,0 0.998,-0.386 0.998,-1.164c-0,-0.821 -0.289,-1.228 -0.862,-1.228l-0.363,-0.061c-1.113,-0 -1.853,0.855 -2.23,2.562c-0,1.554 -0.21,2.332 -0.635,2.332c-1.374,0.546 -2.161,1.252 -2.362,2.121c-0.152,0.93 -0.271,1.394 -0.349,1.394l-0.835,-1.181l-1.758,-1.32c-0.625,-0.475 -0.94,-1.262 -0.94,-2.362l-0,-0.607l-0.499,0.061c-1.958,-0 -3.146,-0.57 -3.56,-1.711l-0.119,-0.668c0.027,-0.414 0.099,-0.621 0.211,-0.621l0.088,-0c0.516,0.465 1.062,0.699 1.639,0.699c1.232,-0 2.043,-0.533 2.44,-1.592c0.373,-1.232 0.56,-3.044 0.56,-5.443c0,-3.825 -0.166,-5.739 -0.499,-5.739l-0.261,-0.306c-1.069,0 -1.697,0.435 -1.877,1.307l0,0.21c0,0.343 0.122,0.91 0.363,1.697l-0.061,0.044c-1.14,-0.281 -1.71,-0.78 -1.71,-1.496l-0,-0.384c-0,-0.533 0.22,-1.204 0.665,-2.012c-0,-0.112 -0.197,-0.207 -0.591,-0.289c-0.393,-0.342 -0.59,-0.814 -0.59,-1.408c-0,-0.465 0.173,-1.293 0.516,-2.484l0.074,-0c0.072,-0 0.106,0.054 0.106,0.166l-0.106,0.512l0,0.35c0,0.787 0.652,1.442 1.955,1.955l0.438,0.047l0.197,0c0.424,0 0.75,-0.105 0.97,-0.319l-0.088,-3.577l0.363,-3.787c-0.546,-1.273 -1.313,-1.907 -2.304,-1.907c-0.526,0.078 -1.062,0.21 -1.605,0.393l-0.078,-0.03l-0,-0.048c0.332,-0.981 1.062,-1.469 2.182,-1.469l0.108,-0c1.344,-0 2.329,0.478 2.953,1.442c0.302,0.614 0.557,0.974 0.757,1.073l-0,-0.455c-0,-0.774 -0.251,-1.483 -0.757,-2.121l-0,-0.044l0.258,-0.275c0.614,0.173 1.13,0.502 1.544,0.987c0.214,0.384 0.353,0.93 0.424,1.636l0.153,0.166c0.679,-0.95 1.31,-1.422 1.894,-1.422l0.336,0c0.767,0.241 1.15,0.754 1.15,1.528l0,0.122c0,0.79 -0.288,1.395 -0.865,1.819l-0.652,0.061l-0.105,-0.153c0.312,-0.214 0.472,-0.482 0.472,-0.801c-0,-0.455 -0.296,-0.706 -0.883,-0.76c-0.767,0.295 -1.15,0.774 -1.15,1.442c-0,0.492 0.556,0.832 1.666,1.015l0.031,0.058l-0,0.122c-0.961,0.767 -1.439,1.659 -1.439,2.667c-0.143,0.679 -0.211,1.154 -0.211,1.439l0,0.15c0,0.173 0.034,0.258 0.106,0.258c1.584,-0 2.874,-0.733 3.862,-2.21c0.203,-1.021 0.329,-1.53 0.38,-1.53c0.332,0.261 0.499,0.638 0.499,1.137l-0,0.482l-0.075,0.974l0.757,-0.065Zm25.288,3.941c1.565,-0 2.546,1.154 2.939,3.455l0,0.573c0,0.974 -0.342,1.67 -1.031,2.094l-0.726,0.18c-0.516,-0 -0.842,-0.2 -0.985,-0.604l-0.091,-0.546c0.01,-0.16 0.088,-0.245 0.227,-0.245l0.394,0.17l0.152,-0c0.333,-0 0.499,-0.217 0.499,-0.652l0,-0.122c-0.23,-0.909 -0.665,-1.364 -1.303,-1.364c-0.818,-0 -1.775,0.712 -2.878,2.138c-0.295,0.533 -0.441,1.015 -0.441,1.439c0,0.22 0.217,0.712 0.652,1.469l-0.044,0l-0.757,-0.244c-0.93,-0 -2.481,1.822 -4.66,5.474c-2.179,3.645 -3.265,5.976 -3.265,6.998c0.343,0.214 0.706,0.319 1.09,0.319c0.526,-0.346 0.787,-0.557 0.787,-0.638l0.109,-0c0.078,-0 0.166,0.309 0.258,0.926c-0.173,1.351 -0.754,2.026 -1.745,2.026c-0.583,0 -1.106,-0.315 -1.557,-0.953l-0.153,-0c0.159,0.858 0.241,1.476 0.241,1.849l-0,0.061c-0,1.293 -0.713,2.108 -2.135,2.437l-0.38,0.048l-0.424,-0c-1.14,-0.262 -1.85,-0.587 -2.121,-0.971l-0,-0.088l0.061,-0c1.354,0.394 2.202,0.2 2.545,-0.577l-0.061,-1.062c-0.302,-0.36 -1.072,-0.811 -2.304,-1.348c-1.382,1.426 -2.4,2.227 -3.045,2.41l-0.061,-0l-0.061,-0.044l0,-0.065c0.245,-0.339 0.363,-0.695 0.363,-1.059l0,-0.254c0,-0.597 -0.217,-1.704 -0.651,-3.323l-0.014,-1.014l0.075,-0.272c0.445,0.282 0.855,0.424 1.228,0.424l0.075,0c0.557,0 0.916,-0.122 1.076,-0.363l-0,-0.017c-0.686,-0.251 -1.13,-0.763 -1.33,-1.527c-0.306,-0.536 -0.459,-0.981 -0.459,-1.337l0,-0.03c0,-1.059 0.845,-2.013 2.532,-2.861l0.031,-0l-0,0.122c-0.679,0.363 -1.015,1.184 -1.015,2.467c-0,0.485 0.166,0.801 0.499,0.94c0.326,0.285 0.624,0.424 0.909,0.424c1.483,0 2.973,-1.469 4.47,-4.408c0.292,-1.022 0.441,-1.646 0.441,-1.88c-1.72,-1.908 -3.122,-3.374 -4.215,-4.395c-1.028,-1.059 -1.731,-1.588 -2.104,-1.588l-0.105,-0c-0.496,-0 -0.825,0.186 -0.984,0.56c-0,0.101 0.407,0.485 1.225,1.15c0.193,0.292 0.288,0.638 0.288,1.032l0,0.03c-0.112,0.645 -0.475,0.971 -1.089,0.971l-0.35,-0.048l0,-0.105l0.224,-0.346c0,-0.597 -0.119,-0.964 -0.359,-1.096c-0.93,-0.35 -1.395,-0.906 -1.395,-1.663l-0,-0.075c0.241,-2.375 1.038,-3.563 2.392,-3.563l1.32,0.305c0.221,-0.923 1.137,-1.87 2.743,-2.851l1.028,-0.254c1.829,0.36 2.745,1.286 2.745,2.769c0,0.879 -0.366,1.466 -1.092,1.762l-0.455,0.105c-0.435,-0 -0.879,-0.133 -1.334,-0.394l0,-0.047c0,-0.051 0.207,-0.126 0.621,-0.228c0.102,-0.061 0.153,-0.275 0.153,-0.638l0.044,0c-0.102,-0.706 -0.329,-1.059 -0.682,-1.059l-0.289,-0.03c-0.675,-0 -1.12,0.265 -1.333,0.787c-0.109,0.204 -0.163,0.424 -0.163,0.665l0.105,0.655l0.271,0c0.696,1.263 2.237,3.085 4.623,5.468l0.18,-0c0.203,-0 0.485,-0.479 0.848,-1.439c2.043,-2.444 3.061,-4.27 3.061,-5.485l0.061,-0.59c0,-1.049 -0.488,-1.751 -1.469,-2.108l-0.879,-0.122l-0,-0.044c-0,-0.312 0.645,-0.55 1.941,-0.713c0.706,0 1.456,0.638 2.257,1.911c-0,0.119 0.105,0.231 0.319,0.333l0.088,-1.487l0,-0.407c0,-1.544 -0.529,-2.545 -1.588,-3l-0.109,-0.153l0,-0.044l0.109,-0.109c1.211,0 1.989,0.18 2.331,0.533c1.052,0.879 1.578,2.274 1.578,4.181l-0.064,0.652l0.064,-0c0.493,-0.17 0.988,-0.292 1.483,-0.363Z" />
</svg>