<?xml version="1.0" encoding="UTF-8" standalone="no"?>
<!DOCTYPE svg PUBLIC "-//W3C//DTD SVG 1.1//EN" "http://www.w3.org/Graphics/SVG/1.1/DTD/svg11.dtd">
<svg viewBox="0 0 191 33" version="1.1" xmlns="http://www.w3.org/2000/svg" xmlns:xlink="http://www.w3.org/1999/xlink"
	xml:space="preserve" xmlns:serif="http://www.serif.com/" class="logo-mms">
	<style>
		.logo-long-text {
			fill: #333
		}
	</style>
	<path id="mms1" serif:id="mms" class="logo-long-text"
		d="M19.884,22.052C20.595,22.052 21.058,22.423 21.271,23.164C21.343,23.434 21.38,23.678 21.38,23.898L21.38,24.116C21.38,24.522 21.291,24.777 21.112,24.883L21.083,24.883L21.112,24.703L21.112,24.615C21.112,24.286 20.944,24.063 20.611,23.948C20.391,23.899 20.022,23.847 19.5,23.787C19.674,24.343 19.76,24.79 19.76,25.124L19.76,25.254L19.783,25.363L19.76,25.473L19.76,25.558C19.674,26.498 19.383,26.966 18.891,26.966L18.838,26.966C18.723,26.953 18.664,26.924 18.664,26.882C18.995,26.628 19.159,26.236 19.159,25.704L19.159,25.581C19.159,24.961 18.863,24.398 18.273,23.898L18.243,23.898C18.079,24.111 17.931,24.216 17.801,24.216C17.655,24.202 17.583,24.172 17.583,24.129L17.583,24.116C17.728,23.964 17.801,23.802 17.801,23.628L17.801,23.454C17.622,23.239 17.277,22.98 16.77,22.676C16.547,22.356 16.435,22.045 16.435,21.741L16.435,21.616L16.567,20.266L16.516,19.133L16.596,18.269L16.596,18.167C16.596,17.787 16.492,17.534 16.284,17.412C16.105,17.375 16.015,17.341 16.015,17.312C16.281,17.055 16.414,16.837 16.414,16.658L16.435,16.396C16.435,15.747 16.24,15.1 15.848,14.451C15.48,14.116 15.277,13.885 15.238,13.754C14.832,13.754 14.534,14.3 14.345,15.394L14.293,16.157C14.293,16.743 14.495,17.151 14.897,17.385L14.941,17.471C14.64,17.806 14.49,18.3 14.49,18.961C14.554,20.338 14.697,21.07 14.918,21.151L15.056,21.151C15.303,21.151 15.466,20.914 15.542,20.434L15.572,20.434C15.828,20.67 15.957,20.985 15.957,21.377L15.957,21.421C15.879,22.288 15.55,22.72 14.97,22.72L14.49,22.72C14.079,22.72 13.784,23.146 13.604,23.998L13.576,24.369L13.576,24.522C13.576,24.795 13.607,25.062 13.669,25.312L13.576,25.312L13.262,24.638C12.794,24.129 12.539,23.719 12.5,23.41C12.318,22.717 12.176,22.371 12.08,22.371C11.449,22.371 11.064,22.161 10.917,21.741C10.778,21.397 10.708,21.094 10.708,20.832C10.708,20.567 10.808,20.288 11.012,19.996L11.07,19.996C11.07,20.471 11.274,20.71 11.68,20.71L11.913,20.761C12.202,20.761 12.348,20.627 12.348,20.361L12.435,19.627C12.435,18.679 12.087,17.959 11.389,17.471L11.389,17.442C11.389,17.404 11.584,17.347 11.971,17.274C12.16,17.071 12.254,16.78 12.254,16.396C12.254,15.705 12.103,15.043 11.804,14.415L11.709,14.415C11.168,14.624 10.685,15.063 10.264,15.736C10.104,16.007 10.018,16.266 10.004,16.513L10.031,17.806C9.96,18.725 9.924,19.463 9.924,20.019L9.924,20.296C9.924,21.187 10.026,21.733 10.236,21.936C10.459,22.091 10.729,22.203 11.049,22.27L11.07,22.299L11.07,22.356C10.857,22.507 10.747,22.606 10.737,22.655L10.737,22.75C10.737,23.011 10.927,23.403 11.311,23.925C11.431,24.138 11.491,24.337 11.491,24.522L11.491,24.558L11.462,24.68L11.441,24.68L11.361,24.615L11.361,24.411C10.717,24.166 10.228,24.042 9.895,24.042C9.356,24.042 8.984,24.351 8.776,24.971L8.719,25.254C8.815,26 9.182,26.373 9.821,26.373C10.083,26.106 10.213,25.877 10.213,25.682L10.112,25.233L10.112,25.174L10.156,25.124L10.213,25.124C10.509,25.366 10.657,25.66 10.657,26.01C10.657,26.591 10.291,27.017 9.56,27.288L9.088,27.404C8.228,27.404 7.641,26.856 7.332,25.761L7.229,25.174L7.229,25.145C7.229,24.792 7.368,24.351 7.644,23.824L7.571,23.824C6.912,23.824 6.486,23.563 6.294,23.039L6.25,22.72L6.25,22.494C6.25,22.019 6.47,21.574 6.911,21.151L6.94,21.151C7.08,21.875 7.343,22.234 7.73,22.234L7.868,22.234C7.976,22.185 8.028,22.086 8.028,21.936L8.086,20.928C8.047,19.165 7.883,18.286 7.592,18.286L7.441,18.286C7.218,18.943 7.063,19.271 6.976,19.271C6.618,18.135 6.096,17.401 5.408,17.071C5.262,17.008 5.19,16.965 5.19,16.941L5.276,16.861L5.291,16.861C6.031,16.861 6.504,16.707 6.707,16.396C6.948,16.203 7.124,16.107 7.229,16.107C7.229,16.474 7.35,16.658 7.592,16.658L7.644,16.658C7.818,16.658 7.925,16.526 7.963,16.258C8.046,15.954 8.086,15.64 8.086,15.315L8.086,15.09C8.086,14.224 7.883,13.628 7.476,13.303C7.376,13.303 6.966,13.521 6.25,13.957L5.85,14.028C5.434,14.028 4.969,13.519 4.457,12.498L4.427,12.368L4.457,12.368C4.785,12.596 5.031,12.708 5.19,12.708C5.369,12.708 5.691,12.488 6.156,12.048C6.232,11.976 6.59,11.88 7.229,11.765L7.302,11.671C7.099,11.584 6.997,11.423 6.997,11.191L7.055,11.09L7.15,11.111C7.421,11.096 7.569,11.044 7.592,10.96C7.234,10.638 7.055,10.368 7.055,10.147L7.055,10.074C7.055,9.89 7.211,9.677 7.52,9.435L7.571,9.435C7.629,9.435 7.701,9.635 7.789,10.036C8.107,10.405 8.491,10.623 8.937,10.69L11.07,11.132L11.1,11.163L11.1,11.373C11.1,11.692 10.847,12.046 10.345,12.433C10.03,12.897 9.872,13.241 9.872,13.464C9.872,13.677 9.966,13.884 10.156,14.08C10.286,13.801 10.761,13.282 11.579,12.527L12.435,11.264L12.435,11.09L12.472,10.96L12.537,10.96C12.537,11.105 12.779,11.518 13.262,12.199C13.607,12.539 13.975,12.708 14.367,12.708L14.402,12.708C15.139,12.708 15.988,12.3 16.95,11.482C17.193,11.181 17.38,10.975 17.51,10.857L17.533,10.857L17.51,11.714L17.51,12.389C17.51,13.386 17.858,14.422 18.556,15.497C18.986,16.416 19.203,17.16 19.203,17.733C19.203,18.135 19.022,18.814 18.664,19.774C18.582,20.097 18.539,20.37 18.534,20.593C18.534,20.946 18.611,21.123 18.767,21.123L19.159,21.197C19.468,21.197 19.692,20.951 19.834,20.462L19.834,20.361L19.695,19.715L19.695,19.686L19.76,19.627L19.813,19.627C20.092,19.627 20.284,20.005 20.385,20.761L20.385,20.803C20.385,21.001 20.219,21.418 19.884,22.052ZM28.988,20.818L29.061,20.725C29.35,20.951 29.497,21.167 29.497,21.37C29.497,21.819 29.196,22.26 28.596,22.692C28.513,22.74 28.412,22.772 28.292,22.793L27.848,22.676L27.768,22.676C27.638,22.676 27.549,22.84 27.5,23.171L27.5,23.302C27.5,23.548 27.807,23.78 28.422,23.998L28.422,24.05C28.365,24.166 28.139,24.223 27.747,24.223C27.074,24.223 26.619,23.829 26.381,23.04C26.31,22.818 26.272,22.61 26.272,22.416L26.272,22.249L25.373,22.387C25.087,22.37 24.945,22.299 24.945,22.167C24.882,22.115 24.849,22.021 24.849,21.886L24.864,21.871L25.083,21.907C25.456,21.907 25.815,21.689 26.165,21.253L26.201,20.905C26.201,20.739 26.062,20.644 25.788,20.614C25.313,20.614 24.872,20.842 24.465,21.297C24.339,21.478 24.277,21.681 24.277,21.907L24.277,21.922C24.277,22.25 24.418,22.616 24.705,23.018C24.705,23.062 24.625,23.083 24.465,23.083L24.422,23.083C23.914,23.083 23.6,22.824 23.485,22.305L23.485,22.278C23.127,22.384 22.891,22.437 22.781,22.437C22.607,22.437 22.475,22.333 22.389,22.125C22.859,22.052 23.093,21.827 23.093,21.45L23.093,21.385C23.093,21.094 22.821,20.614 22.28,19.946C21.99,19.546 21.844,19.169 21.844,18.814L21.844,18.777C21.844,18.604 21.977,18.268 22.244,17.768L22.244,17.557L22.121,17.085L22.171,16.999C23.057,17.154 23.649,17.232 23.95,17.232C24.391,17.232 25.079,16.905 26.012,16.251C26.259,16.059 26.381,15.856 26.381,15.641L26.381,15.62C26.381,15.383 26.31,15.132 26.165,14.872C25.186,15.326 24.62,15.606 24.465,15.708L24.451,15.793C24.451,16.056 24.55,16.186 24.748,16.186L24.748,16.237C24.633,16.494 24.436,16.622 24.16,16.622L24.117,16.622C23.695,16.622 23.391,16.389 23.202,15.924L23.202,15.903L23.049,15.924L22.948,15.924C22.652,15.924 22.449,15.765 22.338,15.446C22.29,15.339 22.265,15.194 22.265,15.01C22.265,14.38 22.519,13.901 23.028,13.571L23.049,13.594C22.982,13.719 22.948,13.822 22.948,13.898L22.948,14.066C23.034,14.506 23.251,14.726 23.594,14.726L23.682,14.726C24.267,14.726 24.953,14.165 25.744,13.043C25.805,12.84 25.854,12.739 25.888,12.739L25.947,12.739L25.983,12.781L25.983,12.97C25.983,13.575 26.336,14.11 27.043,14.573C27.347,14.692 27.589,14.749 27.768,14.749C28.011,14.749 28.451,14.596 29.09,14.292L29.141,14.292L29.141,14.305C28.575,15.007 28.235,15.731 28.124,16.476C28.076,16.642 28.051,16.835 28.051,17.058L28.051,17.216C28.051,17.687 28.248,17.999 28.64,18.154L28.64,18.183C28.64,18.203 28.546,18.253 28.357,18.336C28.009,18.655 27.833,19.154 27.833,19.83L27.833,20.004C27.833,20.847 28.076,21.32 28.56,21.421C28.773,21.261 28.915,21.061 28.988,20.818ZM26.201,19.686C26.264,19.191 26.295,18.625 26.295,17.986L26.272,17.414L26.236,17.414C25.996,17.733 25.404,17.996 24.465,18.204C23.956,18.451 23.703,18.671 23.703,18.864L23.623,19.286C23.623,19.373 23.752,19.432 24.007,19.46L24.08,19.46C24.254,19.46 24.4,19.362 24.516,19.164C24.705,19.164 24.872,19.439 25.017,19.99L25.067,19.99L25.482,19.918L26.012,19.946C26.137,19.946 26.201,19.86 26.201,19.686ZM50,13.159C50,13.556 49.738,13.907 49.216,14.211C48.805,14.502 48.598,15.081 48.598,15.946C48.598,16.678 48.805,17.135 49.216,17.318L49.493,17.515C49.493,17.616 49.293,17.749 48.896,17.914C48.562,18.097 48.395,18.467 48.395,19.018L48.395,19.104C48.569,20.948 48.697,21.87 48.78,21.87C48.883,22.056 48.995,22.147 49.12,22.147C49.281,22.134 49.48,22.046 49.717,21.885L49.761,21.885L49.832,21.958L49.832,21.973C49.779,22.509 49.52,22.778 49.055,22.778L49.005,22.778C48.483,22.778 48.109,22.532 47.888,22.038L47.691,21.885L47.691,21.908C47.691,22.459 47.958,23.155 48.489,23.999L48.961,24.6C48.938,24.648 48.901,24.674 48.852,24.674C47.914,24.674 47.335,24.314 47.118,23.599C46.808,22.771 46.653,21.745 46.653,20.52C46.653,20.07 46.709,19.311 46.819,18.241L46.834,16.657C46.728,15.437 46.44,14.827 45.97,14.827L45.796,14.827C45.549,14.827 45.312,14.97 45.086,15.257C44.993,15.523 44.947,15.779 44.947,16.027L44.947,16.07L44.969,16.07L44.99,17.515L44.99,18.735C44.99,19.649 45.055,20.207 45.187,20.403C45.578,20.481 45.817,20.572 45.905,20.673C46.04,20.818 46.149,21.132 46.232,21.616L46.167,21.761L46.152,21.761L45.92,21.558C45.531,21.558 45.282,21.95 45.172,22.735L45.055,23.556L45.034,23.556C44.961,23.556 44.839,23.332 44.663,22.886C44.499,22.66 44.26,22.545 43.944,22.545L43.931,22.524L43.931,22.517L43.944,22.249C43.931,21.973 43.863,21.834 43.741,21.834C43.383,22.61 42.993,22.997 42.573,22.997C42.446,22.966 42.383,22.939 42.383,22.909C42.65,22.773 42.793,22.686 42.812,22.647C43.045,22.314 43.16,21.977 43.16,21.639C43.16,21.13 42.993,20.8 42.659,20.651C42.606,20.637 42.56,20.592 42.521,20.52L42.521,20.507C42.521,20.477 42.596,20.45 42.747,20.426C43.022,20.291 43.16,20.068 43.16,19.759L43.081,19.047C43.201,18.229 43.263,17.488 43.263,16.826C43.263,15.896 43.118,15.296 42.827,15.024C42.764,14.961 42.663,14.93 42.521,14.93C42.033,14.93 41.682,15.232 41.469,15.837C41.411,16.175 41.381,16.448 41.381,16.657L41.463,17.645L41.432,19.925C41.432,20.618 41.589,21.172 41.905,21.589L42.297,21.958L42.268,21.973L42.253,21.973L41.811,21.908C41.211,21.908 40.611,22.171 40.009,22.698L39.822,22.952L39.749,22.886L39.749,22.836C39.749,22.652 39.908,22.259 40.228,21.654L40.279,21.325C40.279,21.109 40.212,20.964 40.082,20.891C39.739,21.399 39.433,21.654 39.168,21.654L39.001,21.654C38.693,21.654 38.412,21.511 38.157,21.228C38.147,21.672 37.97,21.987 37.605,22.161C37.47,22.223 37.332,22.256 37.192,22.256C36.727,22.091 36.495,21.895 36.495,21.667L36.532,21.646L36.786,21.696C37.144,21.696 37.324,21.512 37.324,21.145C37.324,20.836 37.166,20.68 36.851,20.68L36.67,20.659C36.109,20.659 35.73,21.025 35.537,21.755C35.537,22.417 35.421,22.748 35.189,22.748C34.491,23.007 34.08,23.306 33.955,23.649C33.891,24.065 33.834,24.274 33.781,24.274L33.416,23.765L32.437,23.207C32.156,22.999 32.016,22.667 32.016,22.212L32.016,21.93L31.74,21.95C30.728,21.95 30.109,21.681 29.881,21.145L29.823,20.914C29.842,20.743 29.878,20.659 29.933,20.659L29.998,20.659C30.278,20.857 30.574,20.956 30.883,20.956C31.497,20.956 31.914,20.714 32.132,20.231C32.286,19.707 32.364,18.919 32.364,17.863L32.213,14.079L32.154,12.825L32.307,11.183C32.049,10.632 31.654,10.355 31.115,10.355C30.878,10.396 30.608,10.453 30.302,10.531L30.266,10.516L30.266,10.485C30.455,10.071 30.824,9.863 31.377,9.863L31.421,9.863C32.104,9.863 32.616,10.064 32.959,10.466C33.129,10.747 33.272,10.908 33.389,10.952L33.389,10.77C33.389,10.407 33.246,10.087 32.959,9.81L32.959,9.797L33.104,9.724C33.425,9.768 33.681,9.903 33.875,10.131C33.99,10.29 34.073,10.528 34.121,10.841L34.194,10.908C34.556,10.477 34.872,10.263 35.138,10.263L35.304,10.263C35.735,10.378 35.952,10.609 35.952,10.952L35.952,11.002C35.952,11.336 35.789,11.599 35.465,11.793L35.101,11.824L35.051,11.759C35.22,11.656 35.304,11.533 35.304,11.386C35.304,11.193 35.166,11.085 34.891,11.061C34.485,11.191 34.281,11.404 34.281,11.7C34.281,11.907 34.555,12.055 35.101,12.142L35.138,12.165L35.138,12.216C34.673,12.544 34.441,12.921 34.441,13.347L34.317,13.949L34.317,14.131L34.332,14.59L34.317,15.46L34.397,19.634L34.332,20.659C34.332,20.924 34.392,21.057 34.514,21.057L34.659,21.08C35.026,20.348 35.62,19.816 36.438,19.483C36.636,19.433 36.805,19.41 36.945,19.41C37.453,19.41 37.81,19.787 38.036,20.499C38.04,20.498 38.038,20.493 38.041,20.491C38.332,20.714 38.514,20.826 38.586,20.826L38.638,20.826C39.15,20.826 39.448,20.267 39.531,19.15L39.531,19.076C39.497,18.205 39.441,17.769 39.363,17.769C39.145,17.571 38.887,17.442 38.586,17.385L38.586,17.333C38.586,17.325 38.771,17.278 39.139,17.195C39.409,17.084 39.545,16.702 39.545,16.047L39.545,15.736C39.516,15.078 39.433,14.731 39.298,14.697C38.955,14.978 38.7,15.118 38.536,15.118L38.414,15.118C38.176,15.118 37.947,14.905 37.731,14.479C37.682,14.388 37.651,14.268 37.635,14.117L37.657,13.972L37.687,13.972L37.854,14.211L38.244,14.211C38.802,14.211 39.08,14.001 39.08,13.58C38.906,13.58 38.742,13.398 38.586,13.035C38.544,12.933 38.521,12.793 38.521,12.614L38.521,12.403C38.521,12.069 38.688,11.741 39.023,11.417L39.051,11.445C39.002,11.547 38.979,11.651 38.979,11.759L38.979,11.843C38.979,12.009 39.106,12.113 39.363,12.157L39.393,12.134C39.393,11.838 39.622,11.552 40.082,11.271C40.28,11.16 40.537,11.103 40.853,11.103C41.505,11.186 41.832,11.482 41.832,11.99L41.811,12.004L41.788,12.004C41.619,11.855 41.424,11.778 41.201,11.778C40.799,11.778 40.567,12.022 40.503,12.505C40.542,12.781 40.591,12.921 40.65,12.926L40.744,12.926C40.744,12.723 40.993,12.536 41.492,12.368L41.767,12.346C42.129,12.388 42.311,12.564 42.311,12.868L42.311,13.079C42.292,13.339 42.258,13.481 42.209,13.5C42.175,13.5 42.141,13.417 42.108,13.253C42.011,13.165 41.942,13.123 41.905,13.123C41.653,13.123 41.453,13.238 41.302,13.469L41.228,13.543L41.228,13.58C41.228,13.874 41.333,14.091 41.542,14.226C42.525,14.226 43.463,13.764 44.359,12.84C44.455,12.679 44.564,12.56 44.686,12.484C44.739,12.499 44.809,12.617 44.895,12.84C45.273,13.26 45.813,13.469 46.515,13.469C47.299,13.469 47.858,13.204 48.192,12.673L48.229,12.403L48.229,12.287L48.162,11.968L48.192,11.946L48.206,11.946C48.686,12.134 48.925,12.406 48.925,12.759C48.925,12.938 48.834,13.129 48.649,13.333L48.693,13.369C48.852,13.369 49.034,13.251 49.237,13.012C49.324,12.877 49.367,12.712 49.367,12.513C49.367,12.357 49.346,12.216 49.302,12.084L49.332,12.055C49.777,12.287 50,12.655 50,13.159ZM57.579,17.159C57.728,17.807 57.987,18.132 58.356,18.132C58.628,18.195 58.763,18.255 58.763,18.314C58.763,18.59 58.49,18.818 57.942,19.004C57.657,19.158 57.514,19.465 57.514,19.926L57.514,20.651C57.514,21.479 57.315,22.005 56.919,22.235C56.706,22.402 56.478,22.488 56.236,22.488L56.171,22.488L55.467,22.472C54.886,22.812 54.595,23.188 54.595,23.599L54.595,23.737L54.559,23.737C54.268,23.238 54.026,22.901 53.832,22.727C53.707,22.646 53.6,22.604 53.513,22.604L52.983,22.604C52.185,22.604 51.656,22.326 51.401,21.77C51.269,21.493 51.146,20.745 51.03,19.526C51.03,19.371 50.868,19.234 50.544,19.119C50.307,18.94 50.188,18.742 50.188,18.524C50.72,18.399 50.986,18.277 50.986,18.161C51.04,18.161 51.079,17.855 51.104,17.247C51.315,16.768 51.422,16.494 51.422,16.426L51.422,16.353C51.422,16.218 51.349,16.15 51.204,16.15C51.006,16.502 50.895,16.683 50.871,16.688L50.812,16.688C50.634,16.688 50.505,16.52 50.429,16.185L50.429,15.982C50.429,15.696 50.726,15.499 51.32,15.387C51.437,15.377 51.495,15.356 51.495,15.322C51.412,15.008 51.372,14.795 51.372,14.683L51.372,14.48C51.372,14.263 51.567,14.068 51.959,13.899C52.013,13.914 52.04,13.935 52.04,13.964C51.913,14.07 51.852,14.167 51.852,14.255C51.852,14.574 52.227,14.854 52.983,15.089L53.178,15.089C53.687,15.089 54.164,14.667 54.61,13.819L54.668,13.819C54.701,13.824 54.792,14.013 54.936,14.385C54.99,14.493 55.184,14.582 55.517,14.655C55.657,14.67 55.883,14.767 56.192,14.951L56.28,14.951C56.478,14.951 56.608,14.758 56.671,14.371C56.671,13.964 56.512,13.645 56.192,13.413L56.112,13.377C56.112,13.769 55.959,13.964 55.655,13.964C55.369,13.795 55.227,13.553 55.227,13.239L55.227,13.18C55.271,12.822 55.413,12.642 55.655,12.642C56.167,12.642 56.613,12.946 56.992,13.551C57.137,13.806 57.208,14.079 57.208,14.371C57.208,14.72 57.112,15.011 56.919,15.242L57.296,15.932C57.34,16.75 57.434,17.159 57.579,17.159ZM55.343,17.348L55.343,17.247C55.343,16.602 55.117,16.02 54.668,15.496C54.497,15.395 54.375,15.345 54.297,15.345C53.905,15.499 53.71,15.663 53.71,15.837C53.71,16.231 53.847,16.716 54.123,17.298L54.762,17.87L54.798,17.87C55.161,17.87 55.343,17.696 55.343,17.348ZM55.125,21.705C55.271,21.186 55.343,20.56 55.343,19.823L55.271,18.574L55.154,18.574C54.853,18.701 54.585,18.763 54.348,18.763L54.262,18.763C54.024,18.763 53.727,18.721 53.369,18.633C53.305,18.899 53.274,19.098 53.274,19.228L53.463,21.472C53.583,21.97 53.84,22.218 54.232,22.218L54.262,22.218C54.74,22.218 55.029,22.048 55.125,21.705ZM90.185,15.793L90.185,16.07C90.185,16.535 90.019,16.868 89.69,17.072L89.342,17.159C89.095,17.159 88.938,17.062 88.871,16.868L88.827,16.607C88.832,16.53 88.868,16.491 88.936,16.491L89.125,16.572L89.198,16.572C89.357,16.572 89.437,16.467 89.437,16.259L89.437,16.2C89.326,15.764 89.118,15.548 88.812,15.548C88.42,15.548 87.96,15.889 87.433,16.572C87.292,16.828 87.222,17.057 87.222,17.26C87.222,17.368 87.326,17.602 87.534,17.964L87.513,17.964L87.15,17.849C86.705,17.849 85.96,18.722 84.918,20.47C83.874,22.217 83.353,23.336 83.353,23.823C83.517,23.926 83.691,23.976 83.875,23.976C84.127,23.812 84.253,23.71 84.253,23.672L84.303,23.672C84.342,23.672 84.384,23.82 84.427,24.115C84.345,24.763 84.067,25.087 83.592,25.087C83.311,25.087 83.062,24.934 82.844,24.63L82.771,24.63C82.849,25.041 82.888,25.336 82.888,25.516L82.888,25.544C82.888,26.164 82.547,26.554 81.864,26.713L81.683,26.736L81.48,26.736C80.934,26.609 80.594,26.455 80.462,26.269L80.462,26.227L80.493,26.227C81.14,26.416 81.547,26.325 81.712,25.95L81.683,25.443C81.538,25.269 81.169,25.053 80.579,24.796C79.917,25.479 79.429,25.863 79.12,25.95L79.091,25.95L79.062,25.929L79.062,25.9C79.177,25.736 79.236,25.567 79.236,25.391L79.236,25.269C79.236,25.028 79.145,24.573 78.997,23.984L78.997,24.115C78.997,24.521 78.907,24.776 78.728,24.884L78.699,24.884L78.728,24.703L78.728,24.615C78.728,24.287 78.561,24.064 78.228,23.949C78.01,23.898 77.639,23.846 77.117,23.788C77.291,24.344 77.379,24.789 77.379,25.123L77.379,25.253L77.4,25.363L77.379,25.472L77.379,25.559C77.291,26.499 77,26.967 76.507,26.967L76.457,26.967C76.34,26.952 76.281,26.925 76.281,26.881C76.611,26.629 76.775,26.237 76.775,25.705L76.775,25.581C76.775,24.962 76.479,24.399 75.889,23.897L75.86,23.897C75.696,24.11 75.549,24.217 75.418,24.217C75.273,24.202 75.2,24.171 75.2,24.129L75.2,24.115C75.346,23.963 75.418,23.802 75.418,23.627L75.418,23.454C75.239,23.24 74.896,22.981 74.387,22.675C74.164,22.357 74.053,22.046 74.053,21.74L74.053,21.617L74.183,20.267L74.133,19.134L74.213,18.268L74.213,18.168C74.213,17.787 74.109,17.533 73.9,17.413C73.721,17.376 73.632,17.34 73.632,17.312C73.897,17.054 74.03,16.837 74.03,16.657L74.053,16.397C74.053,15.748 73.856,15.099 73.465,14.452C73.097,14.117 72.894,13.884 72.855,13.754C72.448,13.754 72.151,14.301 71.962,15.395L71.912,16.158C71.912,16.743 72.112,17.151 72.513,17.385L72.557,17.47C72.258,17.805 72.107,18.301 72.107,18.96C72.17,20.339 72.313,21.07 72.534,21.152L72.673,21.152C72.92,21.152 73.082,20.913 73.159,20.435L73.188,20.435C73.445,20.67 73.574,20.984 73.574,21.378L73.574,21.422C73.495,22.287 73.167,22.721 72.586,22.721L72.107,22.721C71.695,22.721 71.401,23.145 71.22,23.999L71.193,24.368L71.193,24.521C71.193,24.796 71.224,25.061 71.285,25.313L71.193,25.313L70.879,24.637C70.411,24.129 70.157,23.719 70.118,23.41C69.934,22.718 69.793,22.371 69.697,22.371C69.067,22.371 68.68,22.162 68.536,21.74C68.394,21.396 68.324,21.095 68.324,20.833C68.324,20.568 68.427,20.288 68.63,19.997L68.687,19.997C68.687,20.472 68.89,20.709 69.297,20.709L69.529,20.761C69.82,20.761 69.965,20.628 69.965,20.361L70.053,19.626C70.053,18.678 69.703,17.96 69.007,17.47L69.007,17.442C69.007,17.403 69.201,17.348 69.588,17.275C69.776,17.072 69.871,16.779 69.871,16.397C69.871,15.704 69.721,15.044 69.42,14.414L69.326,14.414C68.784,14.623 68.301,15.063 67.882,15.737C67.723,16.008 67.635,16.267 67.62,16.512L67.649,17.805C67.576,18.725 67.54,19.464 67.54,20.02L67.54,20.296C67.54,21.186 67.645,21.732 67.853,21.935C68.075,22.092 68.345,22.202 68.666,22.269L68.687,22.3L68.687,22.357C68.474,22.508 68.363,22.605 68.354,22.656L68.354,22.749C68.354,23.01 68.544,23.404 68.928,23.926C69.048,24.139 69.108,24.337 69.108,24.521L69.108,24.558L69.079,24.68L69.058,24.68L68.978,24.615L68.978,24.412C68.334,24.165 67.845,24.041 67.511,24.041C66.975,24.041 66.602,24.352 66.394,24.972L66.335,25.253C66.431,25.999 66.801,26.373 67.438,26.373C67.7,26.107 67.83,25.876 67.83,25.682L67.729,25.233L67.729,25.175L67.773,25.123L67.83,25.123C68.126,25.367 68.274,25.659 68.274,26.009C68.274,26.591 67.908,27.016 67.178,27.287L66.706,27.404C65.844,27.404 65.257,26.856 64.948,25.762L64.846,25.175L64.846,25.146C64.846,24.791 64.984,24.352 65.261,23.823L65.187,23.823C64.53,23.823 64.103,23.562 63.911,23.04L63.867,22.721L63.867,22.495C63.867,22.02 64.086,21.574 64.527,21.152L64.556,21.152C64.696,21.874 64.96,22.235 65.348,22.235L65.487,22.235C65.592,22.186 65.646,22.087 65.646,21.935L65.703,20.927C65.664,19.165 65.5,18.285 65.21,18.285L65.057,18.285C64.835,18.943 64.68,19.272 64.592,19.272C64.234,18.134 63.712,17.4 63.025,17.072C62.878,17.008 62.807,16.966 62.807,16.942L62.893,16.86L62.909,16.86C63.649,16.86 64.121,16.707 64.324,16.397C64.566,16.203 64.74,16.106 64.846,16.106C64.846,16.475 64.968,16.657 65.21,16.657L65.261,16.657C65.435,16.657 65.542,16.525 65.581,16.259C65.662,15.954 65.703,15.639 65.703,15.315L65.703,15.089C65.703,14.223 65.5,13.629 65.093,13.304C64.992,13.304 64.582,13.522 63.867,13.958L63.467,14.029C63.051,14.029 62.586,13.52 62.073,12.499L62.044,12.369L62.073,12.369C62.403,12.595 62.647,12.709 62.807,12.709C62.986,12.709 63.308,12.489 63.773,12.047C63.849,11.975 64.207,11.881 64.846,11.764L64.919,11.671C64.716,11.583 64.613,11.422 64.613,11.191L64.674,11.089L64.766,11.112C65.038,11.095 65.186,11.045 65.21,10.959C64.851,10.639 64.674,10.369 64.674,10.146L64.674,10.073C64.674,9.889 64.828,9.676 65.137,9.435L65.187,9.435C65.246,9.435 65.317,9.635 65.405,10.037C65.724,10.406 66.108,10.622 66.553,10.689L68.687,11.133L68.716,11.162L68.716,11.372C68.716,11.692 68.466,12.045 67.962,12.434C67.646,12.897 67.488,13.242 67.488,13.463C67.488,13.676 67.584,13.883 67.773,14.079C67.903,13.8 68.378,13.283 69.196,12.527L70.053,11.265L70.053,11.089L70.089,10.959L70.154,10.959C70.154,11.104 70.396,11.518 70.879,12.2C71.224,12.54 71.591,12.709 71.983,12.709L72.021,12.709C72.756,12.709 73.604,12.3 74.567,11.483C74.809,11.182 74.996,10.974 75.126,10.858L75.149,10.858L75.126,11.713L75.126,12.388C75.126,13.387 75.476,14.421 76.172,15.496C76.603,16.416 76.819,17.161 76.819,17.732C76.819,18.134 76.639,18.813 76.281,19.773C76.198,20.096 76.156,20.37 76.151,20.592C76.151,20.947 76.227,21.122 76.384,21.122L76.775,21.196C77.084,21.196 77.31,20.952 77.45,20.462L77.45,20.361L77.312,19.714L77.312,19.687L77.379,19.626L77.429,19.626C77.709,19.626 77.901,20.005 78.002,20.761L78.002,20.804C78.002,21.002 77.836,21.418 77.501,22.053C78.213,22.053 78.675,22.422 78.888,23.163C78.909,23.241 78.904,23.301 78.919,23.375L78.917,23.193L78.953,23.062C79.166,23.197 79.363,23.266 79.542,23.266L79.577,23.266C79.844,23.266 80.016,23.207 80.093,23.09L80.093,23.082C79.764,22.962 79.55,22.718 79.454,22.35C79.309,22.093 79.236,21.88 79.236,21.711L79.236,21.696C79.236,21.187 79.641,20.731 80.449,20.324L80.462,20.324L80.462,20.383C80.138,20.558 79.977,20.952 79.977,21.566C79.977,21.797 80.055,21.949 80.216,22.015C80.371,22.152 80.516,22.218 80.652,22.218C81.363,22.218 82.077,21.516 82.794,20.106C82.934,19.618 83.004,19.317 83.004,19.207C82.181,18.291 81.509,17.589 80.986,17.101C80.493,16.592 80.156,16.338 79.977,16.338L79.925,16.338C79.688,16.338 79.532,16.429 79.454,16.607C79.454,16.655 79.649,16.841 80.042,17.159C80.133,17.299 80.181,17.464 80.181,17.654L80.181,17.667C80.127,17.977 79.953,18.132 79.657,18.132L79.489,18.111L79.489,18.06L79.598,17.893C79.598,17.607 79.542,17.433 79.424,17.369C78.979,17.2 78.758,16.933 78.758,16.572L78.758,16.535C78.873,15.398 79.255,14.828 79.904,14.828L80.535,14.974C80.642,14.533 81.08,14.078 81.851,13.608L82.343,13.486C83.22,13.66 83.657,14.102 83.657,14.813C83.657,15.234 83.483,15.515 83.135,15.657L82.917,15.707C82.709,15.707 82.496,15.644 82.278,15.519L82.278,15.496C82.278,15.473 82.378,15.436 82.576,15.387C82.625,15.358 82.649,15.257 82.649,15.083L82.67,15.083C82.621,14.743 82.513,14.574 82.343,14.574L82.205,14.559C81.882,14.559 81.669,14.686 81.566,14.938C81.512,15.034 81.486,15.141 81.486,15.257L81.538,15.569L81.669,15.569C82.002,16.174 82.74,17.047 83.883,18.19L83.97,18.19C84.067,18.19 84.202,17.96 84.376,17.501C85.353,16.328 85.843,15.454 85.843,14.873L85.872,14.59C85.872,14.086 85.638,13.749 85.168,13.58L84.747,13.522L84.747,13.501C84.747,13.349 85.056,13.237 85.677,13.159C86.015,13.159 86.375,13.463 86.758,14.073C86.758,14.132 86.809,14.185 86.91,14.232L86.954,13.522L86.954,13.325C86.954,12.585 86.7,12.105 86.191,11.889L86.141,11.816L86.141,11.793L86.191,11.743C86.771,11.743 87.145,11.829 87.31,11.996C87.814,12.419 88.064,13.086 88.064,14L88.035,14.314L88.064,14.314C88.302,14.231 88.539,14.172 88.777,14.138C89.526,14.138 89.996,14.691 90.185,15.793ZM99.71,19.911C99.681,19.983 99.547,20.119 99.31,20.318C99.388,20.415 99.443,20.581 99.477,20.819C99.477,21.238 99.233,21.593 98.744,21.879L98.497,21.848C98.648,21.573 98.723,21.363 98.723,21.219L98.723,21.196C98.723,20.983 98.568,20.858 98.258,20.819L98.193,20.819C97.656,20.819 96.853,21.489 95.783,22.829C95.604,23.053 95.344,23.281 95.005,23.52L94.825,23.52L94.781,23.474L94.817,23.352C94.817,22.669 94.331,21.98 93.358,21.284C92.82,20.944 92.322,20.775 91.862,20.775C91.566,20.775 91.395,20.85 91.347,20.999C91.283,21.193 91.252,21.35 91.252,21.472L91.252,21.515C91.252,21.705 91.486,21.851 91.956,21.959L92.291,21.936L92.348,21.973C92.111,22.219 91.852,22.342 91.571,22.342C91.132,22.342 90.811,22.116 90.613,21.668L90.548,21.32C90.563,21.121 90.623,20.835 90.73,20.463C90.361,20.337 90.177,20.115 90.177,19.794L90.177,19.664C90.211,19.441 90.335,19.331 90.548,19.331C90.654,19.607 90.868,19.742 91.194,19.742L92.537,19.57L92.61,19.57C93.036,19.57 93.532,19.861 94.098,20.44C94.363,20.929 94.703,21.173 95.114,21.173C95.506,21.173 95.874,21.033 96.218,20.754C96.358,20.545 96.428,20.328 96.428,20.098C96.428,19.5 96.189,18.997 95.709,18.596C94.97,18.324 94.379,18.189 93.939,18.189L93.83,18.189C93.462,18.189 93.277,18.311 93.277,18.553L93.415,18.989L93.386,18.989C92.974,18.776 92.724,18.669 92.631,18.669L92.545,18.648C92.399,18.657 92.226,18.729 92.028,18.864L91.986,18.864L92.028,18.553L92.028,18.453C91.986,17.981 91.774,17.747 91.397,17.747L91.15,17.705L91.15,17.675C91.15,17.644 91.262,17.604 91.485,17.552C91.779,17.324 91.927,16.994 91.927,16.563L91.927,16.317C91.927,15.789 91.787,15.325 91.506,14.924L91.288,14.924C91.07,15.039 90.933,15.134 90.875,15.205L90.875,15.343L90.933,15.649L90.852,15.649C90.678,15.514 90.592,15.293 90.592,14.989C90.592,14.563 90.94,14.226 91.638,13.979L91.594,13.608C91.621,13.376 91.734,13.26 91.927,13.26L92.116,13.29C92.189,12.951 92.472,12.781 92.966,12.781L93.132,12.781C93.303,12.8 93.386,12.834 93.386,12.883C93.376,12.911 93.254,12.953 93.017,13.007C92.794,13.156 92.682,13.335 92.682,13.543C92.765,13.862 92.869,14.023 92.994,14.023C93.662,14.023 94.257,13.696 94.781,13.042C94.97,12.753 95.064,12.52 95.064,12.346L95.049,12.259L95.079,12.259C95.238,12.389 95.539,12.828 95.979,13.572C96.342,14.047 96.687,14.283 97.017,14.283C97.645,14.163 97.96,13.959 97.96,13.673L97.903,13.042C97.921,12.898 97.95,12.826 97.989,12.826C98.333,13.047 98.505,13.405 98.505,13.899C98.505,14.47 98.246,14.891 97.728,15.163C97.568,15.215 97.389,15.252 97.191,15.27L96.705,15.22L96.682,15.301C96.682,15.538 96.819,15.739 97.088,15.903L97.859,15.75L97.903,15.75L97.96,15.794C97.96,16.093 97.663,16.352 97.067,16.563L96.682,16.6C95.981,16.6 95.496,16.031 95.231,14.895C95.119,14.721 94.908,14.633 94.599,14.633C94.212,15.077 94.018,15.53 94.018,15.991C94.018,16.576 94.272,16.961 94.781,17.145L95.202,17.21L95.427,17.21C95.968,17.21 96.794,16.994 97.903,16.563C97.573,17.233 97.402,17.805 97.386,18.285C97.386,19.025 97.815,19.477 98.672,19.641C99.035,19.641 99.217,19.495 99.217,19.201C99.279,19.067 99.321,19.002 99.339,19.002C99.476,19.002 99.599,19.306 99.71,19.911ZM106.382,12.25C107.011,12.25 107.459,12.597 107.725,13.29L107.754,13.571L107.754,13.74C107.754,14.311 107.481,14.722 106.933,14.974C106.808,15.026 106.655,15.054 106.476,15.054L106.432,15.054C106.172,15.054 105.954,14.989 105.779,14.859L105.779,14.844C105.779,14.813 105.901,14.776 106.143,14.725C106.449,14.504 106.6,14.236 106.6,13.92C106.514,13.607 106.351,13.449 106.114,13.449L105.969,13.428C105.558,13.428 104.927,13.79 104.081,14.517C103.954,14.633 103.892,14.942 103.892,15.446L103.783,17.181L103.811,18.952L103.761,19.997C103.761,20.282 103.805,20.425 103.892,20.425L104.031,20.463C104.398,19.669 104.971,19.085 105.751,18.713C105.925,18.664 106.068,18.641 106.179,18.641C106.769,18.641 107.151,19.204 107.327,20.332L107.327,20.643C107.327,21.128 107.154,21.461 106.811,21.645C106.665,21.767 106.532,21.828 106.411,21.828C106.005,21.604 105.801,21.376 105.801,21.146L105.816,21.123L106.049,21.173C106.367,21.173 106.527,20.988 106.527,20.615C106.527,20.222 106.389,20.027 106.114,20.027L105.94,19.997C105.406,19.997 105.052,20.407 104.871,21.225C104.871,21.97 104.77,22.342 104.567,22.342C103.909,22.604 103.531,22.942 103.435,23.359C103.362,23.804 103.305,24.027 103.268,24.027L102.868,23.461L102.026,22.829C101.726,22.601 101.575,22.224 101.575,21.697L101.575,21.406L101.336,21.435C100.398,21.435 99.829,21.162 99.63,20.615L99.573,20.295C99.586,20.097 99.62,19.997 99.674,19.997L99.716,19.997C99.964,20.22 100.225,20.332 100.502,20.332C101.092,20.332 101.481,20.077 101.671,19.57C101.85,18.979 101.939,18.111 101.939,16.961C101.939,15.129 101.86,14.212 101.7,14.212L101.575,14.065C101.063,14.065 100.762,14.273 100.676,14.691L100.676,14.792C100.676,14.956 100.734,15.228 100.85,15.605L100.821,15.626C100.274,15.491 100.001,15.252 100.001,14.909L100.001,14.725C100.001,14.47 100.107,14.148 100.32,13.761C100.32,13.707 100.225,13.662 100.037,13.623C99.848,13.459 99.754,13.233 99.754,12.948C99.754,12.725 99.837,12.328 100.001,11.758L100.037,11.758C100.071,11.758 100.087,11.784 100.087,11.837L100.037,12.083L100.037,12.25C100.037,12.628 100.349,12.942 100.973,13.187L101.183,13.21L101.277,13.21C101.481,13.21 101.637,13.159 101.743,13.057L101.7,11.343L101.874,9.528C101.612,8.918 101.245,8.614 100.77,8.614C100.518,8.652 100.261,8.715 100.001,8.803L99.964,8.788L99.964,8.766C100.123,8.296 100.473,8.061 101.009,8.061L101.061,8.061C101.705,8.061 102.177,8.291 102.476,8.753C102.621,9.047 102.743,9.219 102.839,9.266L102.839,9.048C102.839,8.678 102.718,8.338 102.476,8.032L102.476,8.011L102.6,7.879C102.894,7.962 103.141,8.12 103.339,8.352C103.442,8.536 103.509,8.798 103.543,9.136L103.616,9.216C103.941,8.761 104.244,8.535 104.523,8.535L104.684,8.535C105.052,8.65 105.236,8.896 105.236,9.266L105.236,9.325C105.236,9.704 105.097,9.993 104.821,10.197L104.509,10.226L104.458,10.153C104.608,10.05 104.684,9.922 104.684,9.769C104.684,9.551 104.543,9.431 104.261,9.405C103.894,9.546 103.71,9.775 103.71,10.096C103.71,10.332 103.977,10.494 104.509,10.582L104.523,10.61L104.523,10.668C104.063,11.036 103.834,11.463 103.834,11.946C103.766,12.272 103.733,12.499 103.733,12.636L103.733,12.707C103.733,12.79 103.749,12.831 103.783,12.831C104.543,12.831 105.161,12.48 105.634,11.772C105.732,11.283 105.792,11.039 105.816,11.039C105.975,11.164 106.055,11.345 106.055,11.584L106.055,11.815L106.019,12.281L106.382,12.25ZM114.368,20.673C114.78,20.673 115.042,20.947 115.152,21.493L115.175,21.682C115.175,22.239 114.954,22.633 114.513,22.865L114.354,22.901L114.325,22.879L114.325,22.836C114.542,22.628 114.651,22.454 114.651,22.314C114.622,22.087 114.508,21.973 114.31,21.973C113.967,21.973 113.583,22.422 113.155,23.322C113.155,23.449 113.134,23.511 113.09,23.511L113.069,23.511C112.754,23.24 112.368,23.105 111.906,23.105L111.885,23.105C111.518,23.105 111.264,23.257 111.123,23.561L111.072,23.83C111.072,23.962 111.15,24.264 111.305,24.739L111.275,24.768L111.261,24.768C110.666,24.153 110.368,23.282 110.368,22.153L110.368,21.958C110.368,21.765 110.453,21.044 110.622,19.794L110.622,19.569C110.622,18.813 110.451,18.384 110.106,18.276C109.89,18.203 109.778,18.148 109.773,18.111L109.773,18.065C110.233,18.065 110.526,17.686 110.651,16.927L110.71,16.323C110.651,15.38 110.566,14.909 110.456,14.909C110.16,14.777 109.937,14.6 109.788,14.37L109.788,14.349C109.817,14.296 109.937,14.235 110.15,14.167C110.566,13.902 111.01,13.468 111.479,12.868C111.349,12.559 111.105,12.102 110.745,11.495L110.651,11.214C111.324,10.419 111.661,9.994 111.661,9.934L111.703,9.934C112.261,10.647 112.555,11.154 112.589,11.46C112.391,11.712 112.087,12.183 111.675,12.876C111.815,13.588 112.063,14.131 112.415,14.509C112.846,14.746 113.064,14.883 113.069,14.923L113.069,15.031L112.736,16.281C112.628,16.745 112.575,17.132 112.575,17.442L112.575,17.704C112.575,18.158 112.702,18.411 112.952,18.467C113.199,18.494 113.323,18.532 113.323,18.574C113.289,18.686 113.094,18.821 112.736,18.981C112.58,19.218 112.503,19.732 112.503,20.521C112.532,21.464 112.632,21.935 112.801,21.935L112.851,21.973C113.32,21.62 113.555,21.114 113.555,20.456C113.555,20.338 113.51,20.166 113.417,19.932L113.455,19.917L113.497,19.917C113.729,19.917 113.877,20.119 113.941,20.521L113.962,20.703L114.115,20.673L114.368,20.673ZM121.745,19.779C122.103,19.779 122.283,19.922 122.283,20.209L122.283,20.389L122.225,20.433C122.137,20.318 122.01,20.259 121.839,20.259C121.694,20.342 121.621,20.399 121.621,20.433L121.577,20.927L121.651,22.204C121.651,22.646 121.55,23.002 121.346,23.279L121.332,23.279L121.273,23.243C121.371,23.108 121.418,22.993 121.418,22.895C121.418,22.484 121.086,22.139 120.424,21.862C120.307,21.825 120.167,21.797 120.003,21.783C119.441,21.783 119.049,22.093 118.828,22.713L118.855,23.082C118.855,23.136 118.829,23.18 118.775,23.214C118.746,23.214 118.725,23.087 118.71,22.837C118.585,22.435 118.312,22.111 117.889,21.862C117.556,21.713 117.284,21.64 117.076,21.64L116.975,21.64C116.481,21.701 116.234,21.926 116.234,22.315C116.234,22.463 116.328,22.638 116.518,22.837L116.141,22.872C115.666,22.872 115.429,22.638 115.429,22.168C115.429,22.019 115.46,21.791 115.523,21.487C115.31,21.487 115.131,21.311 114.987,20.965L114.957,20.745C114.957,20.435 115.097,20.166 115.378,19.94L115.473,19.918C115.512,20.456 115.598,20.724 115.735,20.724C115.762,20.786 115.814,20.83 115.886,20.854L116.118,20.84C115.876,20.37 115.756,19.901 115.756,19.431C115.756,18.997 115.629,18.693 115.378,18.524C115.024,18.311 114.775,18.116 114.63,17.935L114.63,17.908C114.63,17.883 114.816,17.852 115.19,17.82C115.47,17.69 115.658,17.522 115.756,17.317C115.959,16.816 116.06,16.327 116.06,15.852L116.06,15.764C116.06,15.416 115.965,15.184 115.777,15.068C115.627,15.068 115.494,15.174 115.378,15.387C115.378,15.47 115.47,15.667 115.653,15.976C115.591,16.015 115.484,16.033 115.335,16.033C114.996,16.033 114.8,15.885 114.746,15.59L114.725,15.519C114.725,15.072 115.009,14.753 115.582,14.559L115.284,14.046L115.261,13.776C115.261,13.369 115.533,12.987 116.074,12.629L116.097,12.65C116.029,12.79 115.995,12.919 115.995,13.036L115.995,13.122C115.995,13.408 116.216,13.582 116.657,13.645L116.795,13.658C117.19,13.658 117.575,13.497 117.948,13.174L118.442,12.323L118.601,12.208L118.616,12.229L118.616,12.432C118.616,12.597 118.836,12.821 119.276,13.101C119.683,13.449 119.995,13.782 120.213,14.096C120.446,14.283 120.707,14.379 120.998,14.379C121.171,14.379 121.501,14.213 121.984,13.885L122.015,13.885C122.145,14.078 122.21,14.257 122.21,14.421L122.21,14.494C122.21,14.863 121.813,15.273 121.02,15.729C120.636,16 120.446,16.268 120.446,16.535C120.446,16.859 120.555,17.021 120.772,17.021L120.837,17.021C120.938,17.021 121.046,16.987 121.158,16.919C121.19,16.919 121.208,16.942 121.208,16.984C121.208,17.28 121.007,17.498 120.605,17.639L120.424,17.667L120.228,17.667C119.711,17.667 119.351,17.365 119.153,16.76L119.088,16.382L119.088,16.288L119.393,14.981L119.393,14.807C119.393,14.415 119.166,14.218 118.71,14.218C118.463,14.369 118.273,14.782 118.136,15.46C117.803,16.504 117.636,17.321 117.636,17.908L117.636,18.117C117.636,19.303 117.871,20.194 118.34,20.789L118.522,20.905L118.601,20.905C118.915,20.905 119.545,20.337 120.489,19.2C120.756,18.961 121.036,18.844 121.332,18.844C121.626,18.844 121.877,18.971 122.08,19.228L122.08,19.272L121.673,19.2C121.348,19.2 121.124,19.466 120.998,19.997L120.998,20.194L121.02,20.194C121.054,20.194 121.133,20.109 121.259,19.94C121.371,19.853 121.532,19.801 121.745,19.779ZM137.181,12.941L137.369,12.962L137.987,12.962L137.987,12.998C137.987,13.024 137.865,13.091 137.623,13.201C137.265,13.449 137.086,13.844 137.086,14.385C137.086,14.966 136.657,15.376 135.8,15.613C135.8,15.719 135.904,15.793 136.114,15.837C136.486,16.085 136.673,16.364 136.673,16.68L136.673,16.753C136.673,17.013 136.561,17.26 136.338,17.493L136.309,17.493C136.275,17.483 136.184,17.255 136.033,16.81C135.792,16.374 135.442,16.158 134.987,16.158L134.624,16.185C134.416,16.185 134.127,15.927 133.754,15.41C133.574,15.084 133.437,14.662 133.34,14.138C133.403,14.12 133.434,14.073 133.434,14L133.434,13.862C133.27,13.273 132.98,12.977 132.562,12.977L132.397,12.977C131.927,12.977 131.492,13.265 131.096,13.842C130.951,14.161 130.879,14.577 130.879,15.089L130.879,15.206C130.879,15.985 131.079,16.467 131.481,16.65L131.722,16.703C132.065,16.703 132.476,16.46 132.954,15.976L133.019,16.047C132.938,16.276 132.897,16.462 132.897,16.607L132.897,16.724C132.897,17.228 133.376,17.584 134.335,17.797C134.629,17.88 135.05,18.065 135.597,18.356C136.052,18.67 136.28,19.002 136.28,19.345L136.28,19.423C136.28,19.569 136.205,19.683 136.055,19.765L136.012,19.765C135.916,19.368 135.772,19.169 135.584,19.169C135.486,19.169 135.415,19.223 135.366,19.33L135.366,19.373C135.366,19.465 135.542,19.857 135.894,20.55C135.972,20.831 136.012,21.105 136.012,21.371L136.012,21.413L135.961,22.227C135.961,22.633 136.327,22.981 137.057,23.272L137.057,23.344L136.795,23.344C136.22,23.344 135.782,23.654 135.481,24.274C135.42,24.415 135.387,24.562 135.387,24.716L135.387,24.796L135.366,24.827L135.387,24.846L135.387,24.949C135.387,25.181 135.465,25.326 135.62,25.385L135.678,25.385C136.07,25.385 136.335,25.214 136.477,24.869L136.527,24.869L136.607,24.92L136.607,24.97C136.607,25.494 136.319,25.881 135.743,26.133L135.584,26.154C135.185,26.124 134.745,25.91 134.262,25.508C134.073,25.238 133.979,24.989 133.979,24.767C133.979,24.651 134.059,24.471 134.218,24.222L133.893,24.222L133.507,24.186L133.455,24.186C133.068,24.186 132.701,24.477 132.353,25.058L132.206,25.123L131.99,24.674C131.579,24.152 131.118,23.889 130.609,23.889L130.515,23.889C129.736,24.023 129.282,24.092 129.151,24.092L128.977,24.092C128.656,24.054 128.497,23.999 128.497,23.926C128.904,23.713 129.107,23.495 129.107,23.272C128.908,22.89 128.809,22.397 128.809,21.797C128.743,21.483 128.643,21.266 128.512,21.145C128.308,21.01 128.141,20.942 128.011,20.942L127.982,20.942C127.808,20.942 127.669,21.025 127.568,21.187C127.568,21.339 127.699,21.513 127.96,21.711L127.96,21.797L127.684,21.849L127.474,21.849C127.232,21.641 127.112,21.422 127.112,21.187L127.112,21.095C127.112,20.745 127.401,20.444 127.982,20.194C128.146,20.145 128.282,20.121 128.388,20.121C128.712,20.121 128.983,20.288 129.201,20.623L129.274,20.623L129.274,20.578C129.056,20.075 128.79,19.823 128.476,19.823L128.156,19.852L128.084,19.823L128.084,19.779C128.253,19.488 128.534,19.345 128.925,19.345L129.05,19.345C129.582,19.345 130.039,19.521 130.421,19.875C130.572,20.074 130.723,20.412 130.879,20.891L131.328,20.891C131.717,20.891 131.995,20.966 132.164,21.116L132.164,21.145C132.164,21.17 131.953,21.275 131.531,21.464C131.323,21.614 131.219,21.786 131.219,21.981C131.219,22.392 131.486,22.669 132.019,22.814L132.105,22.814C132.449,22.814 132.827,22.604 133.239,22.184C133.465,21.898 133.58,21.574 133.58,21.21L133.58,21.168C133.58,20.683 133.403,20.267 133.049,19.917C132.894,19.782 132.58,19.664 132.105,19.561C131.795,19.561 131.273,19.431 130.538,19.169C130.257,19.039 129.974,18.817 129.689,18.503C129.494,18.158 129.398,17.93 129.398,17.82L129.274,17.82C128.721,17.82 128.447,18.026 128.447,18.438L128.229,18.48L128.199,18.465L128.229,18.249C128.229,17.88 127.783,17.372 126.892,16.724L126.77,16.703L126.108,16.68L126.108,16.636C126.902,16.535 127.299,16.433 127.299,16.332C127.555,16.143 127.825,15.834 128.105,15.41L128.229,15.293L128.273,15.345L128.273,15.86C128.354,15.966 128.5,16.02 128.708,16.02C128.839,16.02 128.904,15.906 128.904,15.678L128.708,14.945L128.832,14.291C128.435,14.462 128.16,14.545 128.011,14.545C127.502,14.545 127.048,14.25 126.645,13.658L126.544,13.348L126.567,13.325L126.594,13.325C126.726,13.491 126.864,13.572 127.009,13.572L127.082,13.572C127.347,13.572 127.648,13.437 127.982,13.166L127.982,13.094C127.609,12.84 127.424,12.551 127.424,12.222C127.424,11.64 127.804,11.167 128.57,10.8C128.778,10.739 128.938,10.712 129.05,10.712L129.079,10.739L129.079,10.77C128.759,11.071 128.599,11.331 128.599,11.552C128.599,11.86 128.889,12.109 129.469,12.3L129.587,12.317C130.226,12.317 131.109,11.731 132.236,10.559L132.266,10.582L132.294,10.582L132.266,10.8L132.266,11.076C132.266,11.671 132.735,12.052 133.673,12.222L134.792,12.032L134.865,12.047L134.865,12.07L134.771,12.622C134.771,13.091 134.976,13.476 135.387,13.775L135.743,13.862C136.101,13.862 136.28,13.652 136.28,13.232L136.28,13.094C136.28,12.774 136.12,12.489 135.8,12.235L135.46,12.281L135.431,12.25L135.431,12.222L135.743,11.91L136.251,12.07C136.251,11.778 136.399,11.465 136.695,11.126C136.8,11.039 136.89,10.995 136.963,10.995L136.963,11.011C136.784,11.261 136.695,11.548 136.695,11.866C136.734,12.582 136.895,12.941 137.181,12.941ZM146.197,17.159C146.346,17.807 146.605,18.132 146.974,18.132C147.246,18.195 147.381,18.255 147.381,18.314C147.381,18.59 147.107,18.818 146.559,19.004C146.275,19.158 146.132,19.465 146.132,19.926L146.132,20.651C146.132,21.479 145.933,22.005 145.537,22.235C145.324,22.402 145.096,22.488 144.854,22.488L144.789,22.488L144.084,22.472C143.504,22.812 143.213,23.188 143.213,23.599L143.213,23.737L143.177,23.737C142.886,23.238 142.644,22.901 142.45,22.727C142.325,22.646 142.218,22.604 142.131,22.604L141.601,22.604C140.803,22.604 140.274,22.326 140.019,21.77C139.887,21.493 139.764,20.745 139.648,19.526C139.648,19.371 139.486,19.234 139.162,19.119C138.925,18.94 138.806,18.742 138.806,18.524C139.338,18.399 139.604,18.277 139.604,18.161C139.658,18.161 139.697,17.855 139.721,17.247C139.933,16.768 140.04,16.494 140.04,16.426L140.04,16.353C140.04,16.218 139.967,16.15 139.822,16.15C139.624,16.502 139.513,16.683 139.489,16.688L139.43,16.688C139.251,16.688 139.123,16.52 139.047,16.185L139.047,15.982C139.047,15.696 139.344,15.499 139.938,15.387C140.055,15.377 140.113,15.356 140.113,15.322C140.03,15.008 139.99,14.795 139.99,14.683L139.99,14.48C139.99,14.263 140.185,14.068 140.577,13.899C140.63,13.914 140.658,13.935 140.658,13.964C140.531,14.07 140.469,14.167 140.469,14.255C140.469,14.574 140.845,14.854 141.601,15.089L141.796,15.089C142.305,15.089 142.782,14.667 143.227,13.819L143.286,13.819C143.319,13.824 143.41,14.013 143.554,14.385C143.608,14.493 143.802,14.582 144.135,14.655C144.275,14.67 144.501,14.767 144.81,14.951L144.898,14.951C145.096,14.951 145.226,14.758 145.289,14.371C145.289,13.964 145.13,13.645 144.81,13.413L144.73,13.377C144.73,13.769 144.577,13.964 144.273,13.964C143.987,13.795 143.845,13.553 143.845,13.239L143.845,13.18C143.889,12.822 144.031,12.642 144.273,12.642C144.785,12.642 145.231,12.946 145.61,13.551C145.755,13.806 145.826,14.079 145.826,14.371C145.826,14.72 145.73,15.011 145.537,15.242L145.914,15.932C145.958,16.75 146.052,17.159 146.197,17.159ZM143.961,17.348L143.961,17.247C143.961,16.602 143.735,16.02 143.286,15.496C143.115,15.395 142.993,15.345 142.915,15.345C142.523,15.499 142.328,15.663 142.328,15.837C142.328,16.231 142.465,16.716 142.741,17.298L143.38,17.87L143.416,17.87C143.779,17.87 143.961,17.696 143.961,17.348ZM143.743,21.705C143.889,21.186 143.961,20.56 143.961,19.823L143.889,18.574L143.772,18.574C143.471,18.701 143.203,18.763 142.966,18.763L142.879,18.763C142.642,18.763 142.344,18.721 141.987,18.633C141.923,18.899 141.892,19.098 141.892,19.228L142.081,21.472C142.201,21.97 142.458,22.218 142.85,22.218L142.879,22.218C143.358,22.218 143.647,22.048 143.743,21.705ZM154.409,19.779C154.766,19.779 154.947,19.922 154.947,20.209L154.947,20.389L154.888,20.433C154.801,20.318 154.674,20.259 154.503,20.259C154.358,20.342 154.285,20.399 154.285,20.433L154.241,20.927L154.314,22.204C154.314,22.646 154.214,23.002 154.01,23.279L153.996,23.279L153.937,23.243C154.035,23.108 154.082,22.993 154.082,22.895C154.082,22.484 153.75,22.139 153.088,21.862C152.971,21.825 152.831,21.797 152.667,21.783C152.104,21.783 151.712,22.093 151.491,22.713L151.519,23.082C151.519,23.136 151.493,23.18 151.439,23.214C151.41,23.214 151.389,23.087 151.374,22.837C151.249,22.435 150.976,22.111 150.553,21.862C150.22,21.713 149.948,21.64 149.74,21.64L149.639,21.64C149.145,21.701 148.898,21.926 148.898,22.315C148.898,22.463 148.992,22.638 149.182,22.837L148.805,22.872C148.33,22.872 148.093,22.638 148.093,22.168C148.093,22.019 148.124,21.791 148.187,21.487C147.974,21.487 147.795,21.311 147.65,20.965L147.621,20.745C147.621,20.435 147.761,20.166 148.042,19.94L148.137,19.918C148.176,20.456 148.262,20.724 148.398,20.724C148.426,20.786 148.478,20.83 148.55,20.854L148.782,20.84C148.54,20.37 148.419,19.901 148.419,19.431C148.419,18.997 148.293,18.693 148.042,18.524C147.688,18.311 147.439,18.116 147.294,17.935L147.294,17.908C147.294,17.883 147.48,17.852 147.854,17.82C148.133,17.69 148.322,17.522 148.419,17.317C148.623,16.816 148.724,16.327 148.724,15.852L148.724,15.764C148.724,15.416 148.629,15.184 148.441,15.068C148.291,15.068 148.158,15.174 148.042,15.387C148.042,15.47 148.133,15.667 148.317,15.976C148.255,16.015 148.148,16.033 147.998,16.033C147.66,16.033 147.463,15.885 147.41,15.59L147.388,15.519C147.388,15.072 147.673,14.753 148.245,14.559L147.948,14.046L147.925,13.776C147.925,13.369 148.197,12.987 148.738,12.629L148.761,12.65C148.693,12.79 148.659,12.919 148.659,13.036L148.659,13.122C148.659,13.408 148.88,13.582 149.32,13.645L149.459,13.658C149.854,13.658 150.239,13.497 150.612,13.174L151.106,12.323L151.265,12.208L151.28,12.229L151.28,12.432C151.28,12.597 151.499,12.821 151.94,13.101C152.347,13.449 152.659,13.782 152.877,14.096C153.109,14.283 153.371,14.379 153.662,14.379C153.835,14.379 154.165,14.213 154.648,13.885L154.679,13.885C154.809,14.078 154.874,14.257 154.874,14.421L154.874,14.494C154.874,14.863 154.477,15.273 153.683,15.729C153.3,16 153.109,16.268 153.109,16.535C153.109,16.859 153.218,17.021 153.436,17.021L153.501,17.021C153.602,17.021 153.709,16.987 153.822,16.919C153.854,16.919 153.872,16.942 153.872,16.984C153.872,17.28 153.67,17.498 153.269,17.639L153.088,17.667L152.891,17.667C152.374,17.667 152.015,17.365 151.817,16.76L151.751,16.382L151.751,16.288L152.057,14.981L152.057,14.807C152.057,14.415 151.83,14.218 151.374,14.218C151.127,14.369 150.937,14.782 150.8,15.46C150.467,16.504 150.299,17.321 150.299,17.908L150.299,18.117C150.299,19.303 150.535,20.194 151.003,20.789L151.186,20.905L151.265,20.905C151.579,20.905 152.208,20.337 153.153,19.2C153.42,18.961 153.7,18.844 153.996,18.844C154.29,18.844 154.54,18.971 154.744,19.228L154.744,19.272L154.337,19.2C154.012,19.2 153.787,19.466 153.662,19.997L153.662,20.194L153.683,20.194C153.718,20.194 153.797,20.109 153.922,19.94C154.035,19.853 154.196,19.801 154.409,19.779ZM161.386,20.673C161.797,20.673 162.059,20.947 162.17,21.493L162.192,21.682C162.192,22.239 161.971,22.633 161.53,22.865L161.371,22.901L161.342,22.879L161.342,22.836C161.56,22.628 161.669,22.454 161.669,22.314C161.639,22.087 161.526,21.973 161.327,21.973C160.984,21.973 160.6,22.422 160.173,23.322C160.173,23.449 160.151,23.511 160.108,23.511L160.086,23.511C159.771,23.24 159.386,23.105 158.924,23.105L158.903,23.105C158.535,23.105 158.281,23.257 158.14,23.561L158.089,23.83C158.089,23.962 158.168,24.264 158.322,24.739L158.293,24.768L158.278,24.768C157.683,24.153 157.385,23.282 157.385,22.153L157.385,21.958C157.385,21.765 157.47,21.044 157.639,19.794L157.639,19.569C157.639,18.813 157.468,18.384 157.124,18.276C156.907,18.203 156.795,18.148 156.79,18.111L156.79,18.065C157.25,18.065 157.543,17.686 157.668,16.927L157.727,16.323C157.668,15.38 157.584,14.909 157.473,14.909C157.177,14.777 156.954,14.6 156.805,14.37L156.805,14.349C156.834,14.296 156.954,14.235 157.167,14.167C157.584,13.902 158.028,13.468 158.496,12.868C158.366,12.559 158.122,12.102 157.763,11.495L157.668,11.214C158.342,10.419 158.678,9.994 158.678,9.934L158.72,9.934C159.278,10.647 159.573,11.154 159.607,11.46C159.408,11.712 159.104,12.183 158.693,12.876C158.833,13.588 159.08,14.131 159.433,14.509C159.864,14.746 160.082,14.883 160.086,14.923L160.086,15.031L159.753,16.281C159.646,16.745 159.592,17.132 159.592,17.442L159.592,17.704C159.592,18.158 159.719,18.411 159.969,18.467C160.216,18.494 160.34,18.532 160.34,18.574C160.306,18.686 160.111,18.821 159.753,18.981C159.597,19.218 159.52,19.732 159.52,20.521C159.55,21.464 159.649,21.935 159.818,21.935L159.868,21.973C160.337,21.62 160.573,21.114 160.573,20.456C160.573,20.338 160.527,20.166 160.434,19.932L160.472,19.917L160.514,19.917C160.747,19.917 160.895,20.119 160.958,20.521L160.979,20.703L161.132,20.673L161.386,20.673ZM167.73,17.224L167.636,17.289L167.636,17.334C167.636,17.435 167.792,17.653 168.101,17.986L168.101,18.015C167.995,18.272 167.821,18.481 167.579,18.64C167.385,18.78 166.974,18.928 166.345,19.082C165.569,19.281 165.183,19.637 165.183,20.149C165.11,20.338 165.013,20.451 164.892,20.484L164.87,20.513L164.855,20.513C164.827,20.461 164.803,20.318 164.783,20.084C164.71,20.047 164.639,20.027 164.565,20.027L164.544,20.027C164.364,20.027 164.271,20.133 164.26,20.346C164.26,20.71 164.452,21.021 164.834,21.284L164.993,21.334L165.096,21.334C165.183,21.334 165.338,21.242 165.561,21.058L165.574,21.029L165.596,21.058L165.574,21.261C165.574,21.377 165.705,21.491 165.967,21.603C166.232,21.603 166.475,21.367 166.693,20.897C166.969,19.902 167.336,19.279 167.797,19.032C168.125,18.79 168.491,18.669 168.893,18.669C169.091,18.669 169.231,18.729 169.314,18.85L169.314,18.902L169.102,18.872C168.75,18.872 168.486,19.133 168.312,19.656L168.312,19.86L168.34,19.977L168.777,19.996C168.917,20.138 168.987,20.263 168.987,20.369L168.972,20.398L168.95,20.398L168.813,20.369C168.493,20.369 168.275,20.666 168.159,21.261L168.159,21.427C168.159,21.681 168.312,21.961 168.616,22.27L168.704,22.574C168.685,22.639 168.662,22.67 168.639,22.67L168.53,22.67C168.408,22.67 168.091,22.574 167.579,22.387C167.506,22.362 167.376,22.351 167.187,22.351L167.151,22.351C166.706,22.351 166.283,22.507 165.888,22.822C165.819,22.933 165.785,23.035 165.785,23.126L165.785,23.17L165.8,23.286L165.785,23.309L165.77,23.309C165.717,23.304 165.647,23.175 165.561,22.923C165.409,22.687 165.161,22.513 164.813,22.408C163.98,22.3 163.445,22.165 163.208,22.001C162.897,21.783 162.681,21.395 162.554,20.832C162.409,19.22 162.199,18.303 161.923,18.082C161.894,18.014 161.78,17.913 161.581,17.783L161.56,17.76L161.56,17.703L161.705,17.718L161.938,17.718C162.146,17.583 162.25,17.256 162.25,16.739C162.277,16.602 162.349,16.41 162.46,16.165C162.112,16.019 161.938,15.775 161.938,15.431C161.952,15.339 161.978,15.293 162.017,15.293C162.027,15.352 162.138,15.389 162.351,15.409L162.416,15.409C162.658,15.366 162.78,15.28 162.78,15.155C162.508,15.155 162.271,14.906 162.068,14.407L162.053,14.181C162.053,14.056 162.094,13.96 162.177,13.893C162.37,14.168 162.642,14.305 162.99,14.305L163.026,14.305C163.622,14.305 164.26,14.061 164.943,13.571C165.248,13.132 165.453,12.872 165.561,12.789L165.574,12.789C165.608,12.836 165.673,13.049 165.77,13.426C165.77,13.514 166.005,13.648 166.475,13.826C166.969,14.01 167.458,14.361 167.941,14.879C168.159,15.136 168.268,15.514 168.268,16.012C168.268,16.82 168.384,17.224 168.616,17.224L168.639,17.224C168.86,17.224 168.972,17.093 168.972,16.832C168.977,16.692 168.994,16.622 169.023,16.622L169.081,16.622C169.26,16.767 169.35,16.929 169.35,17.108C169.35,17.466 169.112,17.728 168.639,17.894L168.558,17.894C168.244,17.894 167.967,17.671 167.73,17.224ZM166.41,17.929L166.41,17.879C166.062,17.654 165.888,17.385 165.888,17.064L165.888,16.919C165.888,16.736 166.029,16.21 166.315,15.344L166.345,15.09L166.345,15.04C166.345,14.692 166.138,14.446 165.727,14.305L165.458,14.262C165.057,14.262 164.665,14.823 164.283,15.945C164.229,16.227 164.203,16.531 164.203,16.854L164.217,18.124L164.913,17.76L165.022,17.741C165.314,17.778 165.458,17.902 165.458,18.11L165.211,17.986C165.013,18.054 164.913,18.219 164.913,18.481L164.913,18.546C164.913,18.676 165.055,18.742 165.335,18.742C165.81,18.742 166.167,18.471 166.41,17.929ZM176.915,12.25C177.545,12.25 177.992,12.597 178.259,13.29L178.288,13.571L178.288,13.74C178.288,14.311 178.015,14.722 177.467,14.974C177.341,15.026 177.189,15.054 177.01,15.054L176.966,15.054C176.706,15.054 176.488,14.989 176.312,14.859L176.312,14.844C176.312,14.813 176.434,14.776 176.676,14.725C176.982,14.504 177.133,14.236 177.133,13.92C177.047,13.607 176.885,13.449 176.647,13.449L176.502,13.428C176.091,13.428 175.46,13.79 174.614,14.517C174.488,14.633 174.426,14.942 174.426,15.446L174.317,17.181L174.344,18.952L174.294,19.997C174.294,20.282 174.338,20.425 174.426,20.425L174.564,20.463C174.931,19.669 175.504,19.085 176.284,18.713C176.458,18.664 176.602,18.641 176.712,18.641C177.302,18.641 177.685,19.204 177.86,20.332L177.86,20.643C177.86,21.128 177.688,21.461 177.345,21.645C177.198,21.767 177.065,21.828 176.945,21.828C176.538,21.604 176.335,21.376 176.335,21.146L176.349,21.123L176.582,21.173C176.901,21.173 177.06,20.988 177.06,20.615C177.06,20.222 176.922,20.027 176.647,20.027L176.473,19.997C175.94,19.997 175.585,20.407 175.405,21.225C175.405,21.97 175.304,22.342 175.101,22.342C174.442,22.604 174.065,22.942 173.969,23.359C173.896,23.804 173.839,24.027 173.801,24.027L173.401,23.461L172.559,22.829C172.26,22.601 172.108,22.224 172.108,21.697L172.108,21.406L171.869,21.435C170.931,21.435 170.362,21.162 170.164,20.615L170.107,20.295C170.12,20.097 170.154,19.997 170.207,19.997L170.25,19.997C170.497,20.22 170.759,20.332 171.035,20.332C171.625,20.332 172.014,20.077 172.204,19.57C172.383,18.979 172.473,18.111 172.473,16.961C172.473,15.129 172.393,14.212 172.234,14.212L172.108,14.065C171.596,14.065 171.295,14.273 171.209,14.691L171.209,14.792C171.209,14.956 171.268,15.228 171.383,15.605L171.354,15.626C170.808,15.491 170.534,15.252 170.534,14.909L170.534,14.725C170.534,14.47 170.64,14.148 170.853,13.761C170.853,13.707 170.759,13.662 170.57,13.623C170.381,13.459 170.287,13.233 170.287,12.948C170.287,12.725 170.37,12.328 170.534,11.758L170.57,11.758C170.604,11.758 170.621,11.784 170.621,11.837L170.57,12.083L170.57,12.25C170.57,12.628 170.882,12.942 171.507,13.187L171.717,13.21L171.811,13.21C172.014,13.21 172.17,13.159 172.276,13.057L172.234,11.343L172.408,9.528C172.146,8.918 171.778,8.614 171.304,8.614C171.051,8.652 170.795,8.715 170.534,8.803L170.497,8.788L170.497,8.766C170.656,8.296 171.006,8.061 171.543,8.061L171.595,8.061C172.239,8.061 172.71,8.291 173.009,8.753C173.154,9.047 173.276,9.219 173.372,9.266L173.372,9.048C173.372,8.678 173.252,8.338 173.009,8.032L173.009,8.011L173.133,7.879C173.427,7.962 173.674,8.12 173.873,8.352C173.975,8.536 174.042,8.798 174.076,9.136L174.149,9.216C174.475,8.761 174.777,8.535 175.057,8.535L175.218,8.535C175.585,8.65 175.769,8.896 175.769,9.266L175.769,9.325C175.769,9.704 175.631,9.993 175.354,10.197L175.042,10.226L174.992,10.153C175.141,10.05 175.218,9.922 175.218,9.769C175.218,9.551 175.076,9.431 174.795,9.405C174.427,9.546 174.244,9.775 174.244,10.096C174.244,10.332 174.51,10.494 175.042,10.582L175.057,10.61L175.057,10.668C174.596,11.036 174.367,11.463 174.367,11.946C174.299,12.272 174.266,12.499 174.266,12.636L174.266,12.707C174.266,12.79 174.283,12.831 174.317,12.831C175.076,12.831 175.694,12.48 176.167,11.772C176.265,11.283 176.325,11.039 176.349,11.039C176.509,11.164 176.589,11.345 176.589,11.584L176.589,11.815L176.553,12.281L176.915,12.25ZM189.033,14.139C189.783,14.139 190.253,14.692 190.441,15.794L190.441,16.069C190.441,16.536 190.277,16.869 189.947,17.072L189.599,17.158C189.352,17.158 189.196,17.063 189.127,16.869L189.083,16.607C189.088,16.531 189.126,16.49 189.192,16.49L189.381,16.571L189.454,16.571C189.613,16.571 189.693,16.467 189.693,16.259L189.693,16.201C189.583,15.765 189.374,15.547 189.069,15.547C188.677,15.547 188.218,15.888 187.69,16.571C187.548,16.827 187.478,17.058 187.478,17.261C187.478,17.367 187.582,17.602 187.791,17.965L187.769,17.965L187.407,17.848C186.961,17.848 186.218,18.721 185.174,20.471C184.13,22.217 183.61,23.335 183.61,23.824C183.774,23.927 183.948,23.977 184.132,23.977C184.384,23.811 184.509,23.71 184.509,23.671L184.561,23.671C184.598,23.671 184.641,23.819 184.685,24.115C184.602,24.762 184.324,25.086 183.849,25.086C183.569,25.086 183.319,24.935 183.102,24.629L183.029,24.629C183.106,25.04 183.145,25.336 183.145,25.515L183.145,25.545C183.145,26.164 182.803,26.554 182.122,26.712L181.94,26.735L181.736,26.735C181.19,26.61 180.85,26.454 180.72,26.27L180.72,26.228L180.749,26.228C181.398,26.416 181.805,26.324 181.969,25.951L181.94,25.442C181.795,25.27 181.426,25.054 180.835,24.797C180.174,25.48 179.686,25.863 179.377,25.951L179.347,25.951L179.318,25.93L179.318,25.899C179.435,25.736 179.492,25.566 179.492,25.392L179.492,25.27C179.492,24.984 179.388,24.453 179.18,23.678L179.173,23.192L179.209,23.061C179.422,23.196 179.619,23.265 179.798,23.265L179.834,23.265C180.1,23.265 180.273,23.206 180.349,23.091L180.349,23.083C180.021,22.962 179.808,22.717 179.712,22.351C179.565,22.094 179.492,21.881 179.492,21.71L179.492,21.695C179.492,21.188 179.897,20.731 180.705,20.325L180.72,20.325L180.72,20.383C180.395,20.557 180.234,20.951 180.234,21.565C180.234,21.798 180.313,21.949 180.473,22.016C180.629,22.152 180.772,22.219 180.909,22.219C181.619,22.219 182.333,21.515 183.05,20.107C183.19,19.617 183.262,19.318 183.262,19.206C182.437,18.292 181.766,17.589 181.242,17.1C180.749,16.593 180.413,16.339 180.234,16.339L180.183,16.339C179.946,16.339 179.788,16.428 179.712,16.607C179.712,16.656 179.907,16.84 180.299,17.158C180.391,17.298 180.437,17.464 180.437,17.653L180.437,17.667C180.383,17.976 180.209,18.133 179.915,18.133L179.748,18.11L179.748,18.059L179.855,17.894C179.855,17.607 179.798,17.432 179.682,17.368C179.237,17.201 179.014,16.934 179.014,16.571L179.014,16.536C179.13,15.397 179.512,14.828 180.161,14.828L180.793,14.975C180.899,14.532 181.338,14.079 182.107,13.609L182.6,13.487C183.476,13.659 183.915,14.103 183.915,14.814C183.915,15.235 183.74,15.516 183.392,15.658L183.174,15.708C182.966,15.708 182.753,15.645 182.535,15.519L182.535,15.497C182.535,15.472 182.634,15.436 182.832,15.388C182.881,15.358 182.906,15.256 182.906,15.082L182.927,15.082C182.878,14.744 182.769,14.575 182.6,14.575L182.462,14.56C182.138,14.56 181.925,14.687 181.823,14.937C181.77,15.035 181.744,15.14 181.744,15.256L181.795,15.57L181.925,15.57C182.258,16.175 182.997,17.048 184.14,18.189L184.226,18.189C184.324,18.189 184.459,17.96 184.633,17.5C185.611,16.329 186.099,15.454 186.099,14.872L186.129,14.589C186.129,14.087 185.894,13.75 185.424,13.579L185.003,13.521L185.003,13.5C185.003,13.35 185.312,13.236 185.933,13.158C186.272,13.158 186.631,13.464 187.015,14.074C187.015,14.131 187.065,14.184 187.168,14.233L187.21,13.521L187.21,13.326C187.21,12.586 186.956,12.106 186.449,11.888L186.397,11.815L186.397,11.794L186.449,11.742C187.029,11.742 187.402,11.828 187.566,11.997C188.07,12.418 188.322,13.087 188.322,14L188.291,14.313L188.322,14.313C188.558,14.231 188.795,14.173 189.033,14.139Z" />
</svg>