<?xml version="1.0" encoding="UTF-8" standalone="no"?>
<!DOCTYPE svg PUBLIC "-//W3C//DTD SVG 1.1//EN" "http://www.w3.org/Graphics/SVG/1.1/DTD/svg11.dtd">
<svg viewBox="0 0 143 35" version="1.1" xmlns="http://www.w3.org/2000/svg" xmlns:xlink="http://www.w3.org/1999/xlink"
	xml:space="preserve" xmlns:serif="http://www.serif.com/" class="logo-ww">
	<style>
		.logo-long-text {
			fill: #333
		}
	</style>
	<path id="ww1" serif:id="ww" class="logo-long-text"
		d="M14.23,9.265C14.23,9.184 14.347,9.1 14.579,9.019L17.946,9.265L17.946,9.499C17.912,9.591 17.656,9.742 17.165,9.976L17.107,10.28L17.586,25.333L17.586,25.577L17.282,25.694C16.653,25.694 15.534,24.713 13.928,22.769L10.804,18.342C10.595,18.528 9.86,19.613 8.579,21.569C6.575,24.272 5.177,25.635 4.384,25.635L4.082,25.519L4.559,10.453L4.559,10.091C4.466,9.906 4.188,9.708 3.721,9.499L3.721,9.207L7.087,8.961C7.32,9.031 7.437,9.114 7.437,9.207C6.808,9.603 6.482,10.139 6.482,10.814C6.283,14.812 6.178,17.956 6.178,20.252L6.178,21.815L6.307,21.93C7.403,20.973 8.323,19.879 9.068,18.644C9.908,17.502 10.327,16.803 10.327,16.546L10.327,16.489C10.21,15.627 9.628,14.181 8.579,12.131L8.579,11.944C8.672,11.712 8.952,11.595 9.419,11.595L9.489,11.595L9.838,11.712L9.779,12.61L9.779,12.783C10.2,14.228 10.559,15.102 10.863,15.416C11.421,14.381 11.759,13.517 11.888,12.842L11.888,12.667L11.829,11.771L12.18,11.653L12.249,11.653C12.714,11.653 12.994,11.771 13.088,12.014L13.088,12.19C12.029,14.217 11.445,15.72 11.34,16.675C11.34,16.872 11.864,17.69 12.901,19.122C13.379,20.008 14.194,20.963 15.36,21.988L15.431,21.988L15.489,21.93L15.489,20.312C15.372,13.343 15.197,9.861 14.941,9.861L14.23,9.265ZM24.825,17.176C25.652,17.13 26.188,17.071 26.444,16.991L26.7,17.049L26.7,17.246C26.7,17.398 26.083,17.863 24.825,18.644C24.16,17.968 23.566,17.631 23.03,17.631L22.692,17.631C21.784,17.631 21.131,18.447 20.724,20.101L20.724,20.543L21.073,20.801L21.33,20.801C21.608,20.801 22.122,20.648 22.855,20.358C23.03,20.636 23.111,20.928 23.111,21.242L23.111,21.685L22.95,21.883C22.484,21.742 22.064,21.685 21.667,21.685L21.33,21.685C20.992,21.708 20.817,21.778 20.817,21.883L20.817,22.513C20.817,23.595 21.014,24.272 21.411,24.552C21.969,24.844 22.331,24.993 22.517,24.993L22.95,24.993C23.614,24.993 24.545,24.586 25.757,23.784L26.188,24.04C25.395,25.134 24.172,25.694 22.517,25.694C20.49,25.694 19.173,25.134 18.591,24.04C18.196,23.037 17.997,22.362 17.997,22.012L17.997,21.685C17.997,19.494 18.859,18.05 20.561,17.375C20.748,17.269 21.143,17.188 21.749,17.118L24.825,17.176ZM29.545,15.731C29.172,15.731 28.858,15.465 28.602,14.927C28.846,14.346 29.16,14.054 29.545,14.054C29.825,14.054 30.093,14.275 30.35,14.742C30.175,15.393 29.907,15.731 29.545,15.731ZM30.71,17.794C30.42,17.794 30.267,18.702 30.267,20.531L30.267,23.014C30.267,24.505 30.396,25.262 30.629,25.262L31.002,25.566L30.851,25.693L30.198,25.693C29.185,25.693 28.392,25.647 27.81,25.566L27.81,25.449C28.055,25.228 28.17,25.042 28.17,24.89L28.17,19.902L28.24,18.098L27.81,17.608C27.81,17.468 28.077,17.409 28.601,17.409L30.128,17.409C30.804,17.457 31.141,17.538 31.141,17.665C31.141,17.748 31.002,17.794 30.71,17.794ZM36.27,17.002C36.387,17.211 36.806,17.537 37.529,17.956L37.587,18.027L37.587,18.156L37.412,18.214L37.354,18.156L36.737,18.156C36.083,18.156 35.257,18.843 34.278,20.24L33.94,22.152L33.998,23.679L33.998,24.12C33.998,24.599 34.139,25.064 34.395,25.52L34.395,25.578C34.395,25.705 33.964,25.775 33.078,25.775L32.343,25.775L31.656,25.962L31.598,25.904L31.598,25.833C31.948,25.088 32.111,24.271 32.111,23.364L32.111,17.956L31.773,17.002L31.831,16.944L32.564,16.944L34.395,17.002L34.51,17.129C34.208,17.666 34.044,18.049 34.044,18.271L34.044,18.597L34.161,18.726L34.395,18.726L36.224,17.002L36.27,17.002ZM46.933,9.381C46.488,9.965 46.268,11.117 46.268,12.843L46,15.534L46.069,17.141L46,22.698L46,23.596C46,24.529 46.186,25.088 46.536,25.274C46.699,25.344 46.804,25.459 46.862,25.636L46.804,25.693L46.734,25.636L46.397,25.636C46.314,25.636 46.268,25.693 46.268,25.809L45.138,25.751L43.402,25.751C43.076,25.751 42.901,25.682 42.866,25.566C42.866,25.495 43.088,25.368 43.529,25.159L43.6,24.855L43.6,24.798L43.529,24.798C42.47,25.229 41.735,25.449 41.328,25.449L41.13,25.449C39.591,25.449 38.52,24.645 37.936,23.06L37.867,22.164C38.041,19.554 38.881,18.015 40.397,17.56C40.862,17.445 41.34,17.387 41.805,17.387C42.284,17.387 42.844,17.618 43.471,18.097L43.529,18.097L43.529,18.037L43.799,9.975C43.448,9.789 43.263,9.673 43.263,9.614L43.263,9.499C43.448,9.254 43.716,9.137 44.065,9.137L45.861,9.137C46.419,9.137 46.768,9.219 46.933,9.381ZM43.728,23.364L43.799,21.93C43.799,19.775 43.577,18.702 43.134,18.702L42.133,18.517C41.142,18.517 40.431,19.11 40,20.311L39.93,20.905L39.93,21.628C39.93,23.771 40.558,24.855 41.805,24.855L42.061,24.855C43.18,24.575 43.728,24.075 43.728,23.364ZM63.691,9.265C63.691,9.184 63.808,9.1 64.04,9.019L67.407,9.265L67.407,9.499C67.373,9.591 67.117,9.742 66.626,9.976L66.569,10.28L67.047,25.333L67.047,25.577L66.743,25.694C66.114,25.694 64.996,24.713 63.389,22.769L60.265,18.342C60.056,18.528 59.321,19.613 58.04,21.569C56.036,24.272 54.638,25.635 53.845,25.635L53.543,25.519L54.02,10.453L54.02,10.091C53.927,9.906 53.649,9.708 53.182,9.499L53.182,9.207L56.549,8.961C56.781,9.031 56.898,9.114 56.898,9.207C56.269,9.603 55.943,10.139 55.943,10.814C55.744,14.812 55.639,17.956 55.639,20.252L55.639,21.815L55.768,21.93C56.864,20.973 57.784,19.879 58.529,18.644C59.369,17.502 59.788,16.803 59.788,16.546L59.788,16.489C59.671,15.627 59.089,14.181 58.04,12.131L58.04,11.944C58.133,11.712 58.413,11.595 58.88,11.595L58.95,11.595L59.299,11.712L59.24,12.61L59.24,12.783C59.661,14.228 60.02,15.102 60.324,15.416C60.882,14.381 61.22,13.517 61.349,12.842L61.349,12.667L61.29,11.771L61.641,11.653L61.71,11.653C62.175,11.653 62.455,11.771 62.549,12.014L62.549,12.19C61.49,14.217 60.906,15.72 60.801,16.675C60.801,16.872 61.325,17.69 62.362,19.122C62.841,20.008 63.655,20.963 64.821,21.988L64.892,21.988L64.95,21.93L64.95,20.312C64.833,13.343 64.658,9.861 64.402,9.861L63.691,9.265ZM74.286,17.176C75.112,17.13 75.649,17.071 75.905,16.991L76.161,17.049L76.161,17.246C76.161,17.398 75.543,17.863 74.286,18.644C73.621,17.968 73.027,17.631 72.491,17.631L72.153,17.631C71.245,17.631 70.592,18.447 70.185,20.101L70.185,20.543L70.534,20.801L70.791,20.801C71.069,20.801 71.583,20.648 72.316,20.358C72.491,20.636 72.572,20.928 72.572,21.242L72.572,21.685L72.411,21.883C71.944,21.742 71.525,21.685 71.128,21.685L70.791,21.685C70.453,21.708 70.278,21.778 70.278,21.883L70.278,22.513C70.278,23.595 70.475,24.272 70.872,24.552C71.43,24.844 71.792,24.993 71.978,24.993L72.411,24.993C73.075,24.993 74.006,24.586 75.218,23.784L75.649,24.04C74.856,25.134 73.633,25.694 71.978,25.694C69.951,25.694 68.634,25.134 68.052,24.04C67.656,23.037 67.458,22.362 67.458,22.012L67.458,21.685C67.458,19.494 68.32,18.05 70.022,17.375C70.209,17.269 70.604,17.188 71.21,17.118L74.286,17.176ZM84.529,23.596C84.529,24.529 84.716,25.088 85.065,25.274C85.228,25.344 85.333,25.459 85.391,25.636L85.333,25.693L85.264,25.636L84.926,25.636C84.843,25.636 84.797,25.693 84.797,25.809L83.667,25.751L81.931,25.751C81.605,25.751 81.43,25.682 81.395,25.566C81.395,25.495 81.617,25.368 82.058,25.159L82.13,24.855L82.13,24.798L82.058,24.798C80.999,25.229 80.265,25.449 79.857,25.449L79.659,25.449C78.12,25.449 77.049,24.645 76.465,23.06L76.396,22.164C76.571,19.554 77.411,18.015 78.926,17.56C79.391,17.445 79.869,17.387 80.334,17.387C80.813,17.387 81.373,17.618 82.001,18.097L82.058,18.097L82.058,18.037L82.328,9.975C81.977,9.789 81.792,9.673 81.792,9.614L81.792,9.499C81.977,9.254 82.245,9.137 82.594,9.137L84.39,9.137C84.948,9.137 85.298,9.219 85.462,9.381C85.018,9.965 84.797,11.117 84.797,12.843L84.529,15.534L84.598,17.141L84.529,22.698L84.529,23.596ZM82.257,23.364L82.328,21.93C82.328,19.775 82.106,18.702 81.663,18.702L80.662,18.517C79.671,18.517 78.96,19.11 78.529,20.311L78.459,20.905L78.459,21.628C78.459,23.771 79.087,24.855 80.334,24.855L80.59,24.855C81.709,24.575 82.257,24.075 82.257,23.364ZM93.76,24.645C93.829,24.738 94.179,24.913 94.82,25.171C95.005,25.332 95.088,25.483 95.088,25.624L94.644,25.693L92.792,25.693C91.732,25.693 91.196,25.6 91.196,25.437C92.198,22.968 92.699,21.139 92.699,19.927L92.699,19.145C92.524,18.225 91.964,17.771 91.021,17.771L90.671,17.771C89.96,17.771 89.553,18.098 89.438,18.748L89.343,23.399C89.343,24.539 89.612,25.228 90.135,25.437L90.135,25.566L86.955,25.693L86.337,25.693C86.034,25.693 85.859,25.624 85.813,25.495L85.813,25.437C86.699,25.099 87.13,24.75 87.13,24.39L87.13,22.676L87.223,21.499C87.199,19.401 87.048,18.353 86.78,18.353C85.662,18.213 85.102,18.062 85.102,17.898L85.102,17.828C85.452,17.503 85.895,17.268 86.431,17.107L88.457,17.572L88.552,17.572C89.914,17.083 90.999,16.849 91.813,16.849C93.817,17.268 94.82,18.003 94.82,19.076L94.913,19.927L94.913,20.124C94.913,21.069 94.528,22.537 93.76,24.517L93.76,24.645ZM103.13,23.783L103.561,24.039C102.768,25.135 101.545,25.694 99.89,25.694C97.863,25.694 96.546,25.135 95.964,24.039C95.567,23.038 95.37,22.361 95.37,22.011L95.37,21.686C95.37,19.495 96.232,18.049 97.932,17.376C98.119,17.269 98.516,17.187 99.122,17.118L102.198,17.175C103.024,17.13 103.561,17.072 103.817,16.99L104.073,17.048L104.073,17.245C104.073,17.398 103.455,17.864 102.198,18.645C101.533,17.968 100.939,17.63 100.403,17.63L100.065,17.63C99.156,17.63 98.504,18.446 98.097,20.101L98.097,20.544L98.446,20.8L98.703,20.8C98.981,20.8 99.493,20.647 100.228,20.357C100.403,20.637 100.484,20.927 100.484,21.243L100.484,21.686L100.321,21.884C99.855,21.743 99.436,21.686 99.04,21.686L98.703,21.686C98.363,21.708 98.188,21.777 98.188,21.884L98.188,22.512C98.188,23.596 98.387,24.272 98.782,24.552C99.342,24.843 99.704,24.995 99.89,24.995L100.321,24.995C100.985,24.995 101.918,24.587 103.13,23.783ZM109.423,16.535C110.355,16.535 110.809,16.827 110.809,17.41C110.809,17.921 109.959,18.376 108.247,18.771C107.314,18.563 106.662,18.471 106.313,18.471C105.951,18.563 105.743,18.692 105.683,18.843L105.683,19.029C106.057,19.939 106.732,20.404 107.687,20.404C108.992,20.404 109.878,20.916 110.321,21.953C110.46,22.384 110.529,22.815 110.529,23.258L110.529,23.514C110.529,24.424 110.029,25.063 109.004,25.448C108.434,25.613 107.955,25.693 107.558,25.693C107.222,25.693 106.325,25.379 104.857,24.761L104.646,24.761L103.191,25.135L103.121,25.075L103.121,25.006L105.614,22.642L105.683,22.642C105.917,22.642 106.08,23.095 106.172,24.015C106.428,24.261 106.861,24.447 107.489,24.575L107.898,24.575L108.666,24.39C108.666,22.873 108.094,21.895 106.93,21.452C105.59,20.928 104.903,20.509 104.857,20.205C104.529,19.647 104.366,19.204 104.366,18.902C104.658,17.317 105.532,16.535 107,16.535C107.187,16.535 107.943,16.839 109.284,17.468L109.703,17.468L109.914,17.28L109.914,17.095L109.423,16.664L109.423,16.535ZM120.145,9.381C119.701,9.965 119.48,11.117 119.48,12.843L119.212,15.534L119.281,17.141L119.212,22.698L119.212,23.596C119.212,24.529 119.399,25.088 119.748,25.274C119.911,25.344 120.016,25.459 120.074,25.636L120.016,25.693L119.947,25.636L119.609,25.636C119.526,25.636 119.48,25.693 119.48,25.809L118.35,25.751L116.614,25.751C116.288,25.751 116.113,25.682 116.078,25.566C116.078,25.495 116.3,25.368 116.741,25.159L116.812,24.855L116.812,24.798L116.741,24.798C115.682,25.229 114.948,25.449 114.54,25.449L114.342,25.449C112.803,25.449 111.732,24.645 111.148,23.06L111.079,22.164C111.254,19.554 112.093,18.015 113.609,17.56C114.074,17.445 114.552,17.387 115.017,17.387C115.496,17.387 116.056,17.618 116.684,18.097L116.741,18.097L116.741,18.037L117.011,9.975C116.66,9.789 116.475,9.673 116.475,9.614L116.475,9.499C116.66,9.254 116.928,9.137 117.277,9.137L119.073,9.137C119.631,9.137 119.981,9.219 120.145,9.381ZM116.94,23.364L117.011,21.93C117.011,19.775 116.789,18.702 116.346,18.702L115.345,18.517C114.354,18.517 113.643,19.11 113.212,20.311L113.142,20.905L113.142,21.628C113.142,23.771 113.77,24.855 115.017,24.855L115.273,24.855C116.392,24.575 116.94,24.075 116.94,23.364ZM127.416,22.956C127.744,23.818 128.395,24.644 129.363,25.413L129.363,25.542L127.639,25.659L127.347,25.659L127.067,25.717L126.777,25.659L126.777,25.542L127.277,25.042C127.045,24.563 126.822,24.295 126.636,24.249L126.485,24.249C124.969,25.31 123.42,25.844 121.813,25.844L120.449,25.659L120.449,25.286C120.449,23.27 121.742,21.091 124.33,18.76L124.33,18.027C124.33,17.329 124.598,16.98 125.122,16.98C125.658,16.98 125.913,17.037 125.913,17.165L125.913,17.222L125.414,17.653L125.414,18.398C126.1,20.404 126.602,21.558 126.916,21.838C127.16,21.838 127.404,21.431 127.639,20.613L127.708,20.613C128.28,21.069 128.757,21.709 129.142,22.523L129.142,22.583L128.139,22.523C127.662,22.618 127.416,22.758 127.416,22.956ZM125.984,22.956L125.984,22.885C125.984,22.676 125.704,22.001 125.122,20.859L124.83,20.859C123.303,22.734 122.534,23.818 122.534,24.122L122.465,24.424L122.465,24.924L122.604,25.042L122.826,25.042C123.595,25.042 124.62,24.424 125.913,23.2L125.984,22.956ZM137.603,16.99L137.964,17.048L137.964,17.245C137.452,17.245 137.184,17.41 137.184,17.747C137.043,19.471 136.963,21.465 136.963,23.713L137.184,26.788L137.184,26.847C137.184,27.769 136.542,28.56 135.249,29.235C135.063,29.318 134.807,29.364 134.457,29.364L133.676,29.364C132.512,29.364 131.73,28.816 131.311,27.732L131.172,26.975C131.241,26.673 131.345,26.532 131.462,26.532C131.603,26.532 131.754,26.881 131.893,27.604L132.395,27.978L133.106,27.978C133.758,27.978 134.445,27.348 135.18,26.101L135.319,24.971L135.319,24.47L135.18,24.341L133.466,24.47C131.929,24.47 130.904,23.668 130.391,22.081L130.239,20.881L130.822,17.805L130.822,17.678C130.799,17.549 130.6,17.491 130.239,17.491L129.599,17.491L129.458,17.364L129.458,17.304C129.458,17.118 130.135,17.014 131.462,16.99L133.176,17.048L133.245,17.245C132.733,18.458 132.465,19.716 132.465,21.009C132.465,22.315 132.848,23.187 133.607,23.644L134.387,23.841C134.852,23.841 135.192,23.69 135.389,23.398L135.389,23.269C135.389,19.495 135.132,17.618 134.608,17.618C134.608,17.525 134.515,17.491 134.316,17.491L134.316,17.433C134.316,17.175 135.412,17.036 137.603,16.99Z" />
</svg>